<?xml version="1.0" encoding="UTF-8" standalone="no"?>
<svg
   xmlns:dc="http://purl.org/dc/elements/1.1/"
   xmlns:cc="http://creativecommons.org/ns#"
   xmlns:rdf="http://www.w3.org/1999/02/22-rdf-syntax-ns#"
   xmlns:svg="http://www.w3.org/2000/svg"
   xmlns="http://www.w3.org/2000/svg"
   xmlns:sodipodi="http://sodipodi.sourceforge.net/DTD/sodipodi-0.dtd"
   xmlns:inkscape="http://www.inkscape.org/namespaces/inkscape"
   width="1303.4574"
   height="172.18324"
   viewBox="0 0 1303.4574 172.18324"
   version="1.1"
   id="svg20"
   sodipodi:docname="background-footer-novo.svg"
   inkscape:version="0.92.5 (2060ec1f9f, 2020-04-08)">
  <metadata
     id="metadata26">
    <rdf:RDF>
      <cc:Work
         rdf:about="">
        <dc:format>image/svg+xml</dc:format>
        <dc:type
           rdf:resource="http://purl.org/dc/dcmitype/StillImage" />
      </cc:Work>
    </rdf:RDF>
  </metadata>
  <defs
     id="defs24" />
  <sodipodi:namedview
     pagecolor="#ffffff"
     bordercolor="#666666"
     borderopacity="1"
     objecttolerance="10"
     gridtolerance="10"
     guidetolerance="10"
     inkscape:pageopacity="0"
     inkscape:pageshadow="2"
     inkscape:window-width="1366"
     inkscape:window-height="718"
     id="namedview22"
     showgrid="false"
     inkscape:zoom="10.593366"
     inkscape:cx="607.18202"
     inkscape:cy="106.53861"
     inkscape:window-x="0"
     inkscape:window-y="0"
     inkscape:window-maximized="1"
     inkscape:current-layer="svg20" />
  <path
     id="Caminho_11207"
     data-name="Caminho 11207"
     d="m -4.1020581,174.98342 c -3.0657,-29.96075 -7.6359949,-84.919304 -7.6359949,-84.919304 0,0 -6.181671,-86.266982 7.5592649,-84.440926 70.1218751,9.31942 148.5802581,33.519819 231.8757381,43.733384 107.0079,13.1224 212.61291,26.037898 315.85622,22.65555 41.20762,-2.439038 0,0 41.20762,-2.439038 42.00215,-4.546828 0,0 42.00215,-4.546828 141.88291,-17.046722 366.46441,-25.524491 499.78516,-16.164778 50.7289,3.104039 85.836,7.104844 131.3028,13.8355 45.4667,6.730656 49.0646,8.562173 49.0646,8.562173 l 0.044,103.014277 c 0,0 -1167.69839,8.1386 -1311.0615581,0.70998 z"
     inkscape:connector-curvature="0"
     style="fill:#018194;stroke-width:1.00014448"
     sodipodi:nodetypes="ccccccccscccc" />
</svg>
