<svg xmlns="http://www.w3.org/2000/svg" width="1322.043" height="568.342" viewBox="0 0 1322.043 568.342">
  <path id="That_s_enough_" data-name="That&apos;s enough!" d="M0,450.561v68.4s107.514,85.839,282.5,40.4c79.619-20.675,32.6,10.533,148.6-40.4s202.638,89.159,379.8,86.2,181.822-57.121,408.6-105.4c97.287-20.712,100-63.5,100-63.5s11.672-187.5-15-193.933c-72.531-17.482-171.8-37.067-171.8-37.067s-51.989,8.129-94.9,29.2c-47.357,23.254-78.9-133.4-244.8-82C683.839,186.282,585.725,27.946,499,37.261c-6.862.737-29.356,17.281-36.8,24.8-40.75,41.161-71.883,155.258-106.1,153.9-77.75-3.085-79.276-50.252-140.6-53.6-31.661-1.729-65.125,11.825-119,44s-90.4,72-90.4,72Z" transform="translate(0 -36.865)" fill="#f9c001" opacity="0.29"/>
</svg>
