<?xml version="1.0" encoding="UTF-8" standalone="no"?>
<svg
   xmlns:dc="http://purl.org/dc/elements/1.1/"
   xmlns:cc="http://creativecommons.org/ns#"
   xmlns:rdf="http://www.w3.org/1999/02/22-rdf-syntax-ns#"
   xmlns:svg="http://www.w3.org/2000/svg"
   xmlns="http://www.w3.org/2000/svg"
   xmlns:sodipodi="http://sodipodi.sourceforge.net/DTD/sodipodi-0.dtd"
   xmlns:inkscape="http://www.inkscape.org/namespaces/inkscape"
   width="1363.0836"
   height="306.12299"
   viewBox="0 0 1363.0836 306.12298"
   version="1.1"
   id="svg20"
   sodipodi:docname="background-footer-novo.svg"
   inkscape:version="0.92.5 (2060ec1f9f, 2020-04-08)">
  <metadata
     id="metadata26">
    <rdf:RDF>
      <cc:Work
         rdf:about="">
        <dc:format>image/svg+xml</dc:format>
        <dc:type
           rdf:resource="http://purl.org/dc/dcmitype/StillImage" />
      </cc:Work>
    </rdf:RDF>
  </metadata>
  <defs
     id="defs24" />
  <sodipodi:namedview
     pagecolor="#ffffff"
     bordercolor="#666666"
     borderopacity="1"
     objecttolerance="10"
     gridtolerance="10"
     guidetolerance="10"
     inkscape:pageopacity="0"
     inkscape:pageshadow="2"
     inkscape:window-width="1366"
     inkscape:window-height="718"
     id="namedview22"
     showgrid="false"
     inkscape:zoom="0.93633012"
     inkscape:cx="995.26523"
     inkscape:cy="97.607992"
     inkscape:window-x="0"
     inkscape:window-y="0"
     inkscape:window-maximized="1"
     inkscape:current-layer="svg20" />
  <path
     id="Caminho_11207"
     data-name="Caminho 11207"
     d="m -5.5040949,312.3221 c -3.2102058,-53.16423 -7.9959271,-150.68612 -7.9959271,-150.68612 0,0 -6.473053,-153.0775318 7.9155803,-149.837262 C 67.84272,28.335678 149.99933,71.278384 237.22106,89.401973 349.27291,112.68718 459.85575,135.60525 567.96557,129.6034 c 43.14999,-4.32799 0,0 43.14999,-4.32799 43.98197,-8.06817 0,0 43.98197,-8.06817 148.57076,-30.24877 383.73827,-45.292254 523.34317,-28.683793 53.1202,5.508001 89.882,12.607283 137.4919,24.550573 47.61,11.9433 51.3775,15.19326 51.3775,15.19326 l 0.045,182.79497 c 0,0 -1222.73934,14.44165 -1372.8601021,1.25984 z"
     inkscape:connector-curvature="0"
     style="fill:#018194;stroke-width:1.00014448"
     sodipodi:nodetypes="ccccccccscccc" />
</svg>
