<?xml version="1.0" encoding="UTF-8" standalone="no"?>
<svg
   xmlns:dc="http://purl.org/dc/elements/1.1/"
   xmlns:cc="http://creativecommons.org/ns#"
   xmlns:rdf="http://www.w3.org/1999/02/22-rdf-syntax-ns#"
   xmlns:svg="http://www.w3.org/2000/svg"
   xmlns="http://www.w3.org/2000/svg"
   xmlns:sodipodi="http://sodipodi.sourceforge.net/DTD/sodipodi-0.dtd"
   xmlns:inkscape="http://www.inkscape.org/namespaces/inkscape"
   width="1352.001"
   height="371.93359"
   viewBox="0 0 1352.001 371.9336"
   version="1.1"
   id="svg180"
   sodipodi:docname="background-header2.svg"
   inkscape:version="0.92.5 (2060ec1f9f, 2020-04-08)">
  <metadata
     id="metadata184">
    <rdf:RDF>
      <cc:Work
         rdf:about="">
        <dc:format>image/svg+xml</dc:format>
        <dc:type
           rdf:resource="http://purl.org/dc/dcmitype/StillImage" />
      </cc:Work>
    </rdf:RDF>
  </metadata>
  <sodipodi:namedview
     pagecolor="#ffffff"
     bordercolor="#666666"
     borderopacity="1"
     objecttolerance="10"
     gridtolerance="10"
     guidetolerance="10"
     inkscape:pageopacity="0"
     inkscape:pageshadow="2"
     inkscape:window-width="1366"
     inkscape:window-height="718"
     id="namedview182"
     showgrid="false"
     inkscape:zoom="2.2364158"
     inkscape:cx="1088.684"
     inkscape:cy="165.6672"
     inkscape:window-x="0"
     inkscape:window-y="0"
     inkscape:window-maximized="1"
     inkscape:current-layer="Grupo_3024" />
  <defs
     id="defs164">
    <clipPath
       id="clip-path">
      <path
         id="Caminho_15084"
         data-name="Caminho 15084"
         d="M 0,0 H 1401.976 V 289 H 0 Z"
         transform="translate(-112.15)"
         inkscape:connector-curvature="0"
         style="fill:none" />
    </clipPath>
  </defs>
  <g
     id="Grupo_3666"
     data-name="Grupo 3666"
     transform="translate(49.601,-429.863)">
    <g
       id="Grupo_3024"
       data-name="Grupo 3024"
       transform="translate(-60.405,443.987)">
      <path
         id="Caminho_9212"
         data-name="Caminho 9212"
         d="M 830.68104,337.898 435.25859,313.013 C 400.93576,312.971 10.787793,352.871 10.803989,337.898 v -246.7 c 0,0 57.373803,60.49463 142.557331,85.43963 85.18353,24.945 223.14882,-9.92228 235.48834,-12.99428 27.56371,-6.864 37.76861,-11.67144 78.2823,-27.17205 123.77616,-41.162774 148.75198,-14.71721 208.95691,17.82799 79.40907,32.16349 171.92458,82.91151 257.20617,36.27476 0,0 47.84442,-33.08867 146.05246,-28.38294 240.8741,27.16135 259.7686,-37.7518 284.9498,-40.2208 l 1.1478,239.92381 c 0,15.015 -500.35845,-23.98512 -534.77666,-24.00012 z"
         inkscape:connector-curvature="0"
         style="fill:#ff8902;stroke-width:1"
         sodipodi:nodetypes="ccccsccccccccc" />
    </g>
    <g
       id="Grupo_351"
       data-name="Grupo 351"
       transform="matrix(1,0,0,1.0426485,0,689.99897)"
       style="stroke-width:0.97933447">
      <g
         id="Camada_2"
         data-name="Camada 2"
         transform="translate(0,-0.192)"
         style="stroke-width:0.97933447">
        <g
           id="OBJECTS"
           style="stroke-width:0.97933447">
          <path
             id="Caminho_270"
             data-name="Caminho 270"
             d="m -50.959001,84.859717 -0.894288,40.552993 1356.893389,-10.20759 1.7885,-94.636494 C 1219.3126,48.440626 1016.918,74.3 808.4,78.306 566.469,82.934 247.61171,24.940271 3.2947119,74.591271 c -1.635,0.332 -52.2937129,9.854446 -54.2537129,10.268446 z"
             inkscape:connector-curvature="0"
             style="fill:#ffffff;fill-rule:evenodd;stroke-width:0.97933447"
             sodipodi:nodetypes="ccccccc" />
        </g>
      </g>
    </g>
  </g>
</svg>
