<?xml version="1.0" encoding="UTF-8" standalone="no"?>
<svg
   xmlns:dc="http://purl.org/dc/elements/1.1/"
   xmlns:cc="http://creativecommons.org/ns#"
   xmlns:rdf="http://www.w3.org/1999/02/22-rdf-syntax-ns#"
   xmlns:svg="http://www.w3.org/2000/svg"
   xmlns="http://www.w3.org/2000/svg"
   xmlns:sodipodi="http://sodipodi.sourceforge.net/DTD/sodipodi-0.dtd"
   xmlns:inkscape="http://www.inkscape.org/namespaces/inkscape"
   width="1302.071"
   height="178.4054"
   viewBox="0 0 1302.0711 178.4054"
   version="1.1"
   id="svg767"
   sodipodi:docname="background-midias2.svg"
   inkscape:version="0.92.5 (2060ec1f9f, 2020-04-08)">
  <metadata
     id="metadata771">
    <rdf:RDF>
      <cc:Work
         rdf:about="">
        <dc:format>image/svg+xml</dc:format>
        <dc:type
           rdf:resource="http://purl.org/dc/dcmitype/StillImage" />
        <dc:title />
      </cc:Work>
    </rdf:RDF>
  </metadata>
  <sodipodi:namedview
     pagecolor="#ffffff"
     bordercolor="#666666"
     borderopacity="1"
     objecttolerance="10"
     gridtolerance="10"
     guidetolerance="10"
     inkscape:pageopacity="0"
     inkscape:pageshadow="2"
     inkscape:window-width="1366"
     inkscape:window-height="718"
     id="namedview769"
     showgrid="false"
     inkscape:zoom="1.5293414"
     inkscape:cx="952.66841"
     inkscape:cy="208.75862"
     inkscape:window-x="0"
     inkscape:window-y="0"
     inkscape:window-maximized="1"
     inkscape:current-layer="Grupo_3667" />
  <defs
     id="defs754">
    <clipPath
       id="clip-path">
      <rect
         id="Retângulo_2920"
         data-name="Retângulo 2920"
         width="1289.827"
         height="289"
         x="0"
         y="0"
         style="fill:none" />
    </clipPath>
  </defs>
  <g
     id="Grupo_3667"
     data-name="Grupo 3667"
     transform="translate(6.863,-3609.097)">
    <path
       id="That_s_enough_"
       data-name="That's enough!"
       d="m 33.794384,311.61971 81.909436,-21.5055 c 0,0 55.23416,-10.73431 173.27477,-26.1549 177.68206,-23.21203 234.75277,-10.51263 448.04177,-47.18563 213.289,-36.673 94.49126,-16.22687 318.27864,-62.58203 84.1454,-17.42981 130.1613,-34.76014 130.1613,-34.76014 l 133.506,-50.42262 -14.8533,-69.84906345 c 0,0 -149.27,-21.11882655 -347.929,61.72717345 C 908.827,80.636 800.821,154.535 654.573,179 508.325,203.465 414.959,184.611 316.683,180.77 75.222,171.336 20.116883,234.16332 20.116883,234.16332 Z"
       transform="rotate(-171,796.94633,1936.4973)"
       inkscape:connector-curvature="0"
       style="fill:#ff8902"
       sodipodi:nodetypes="ccsssccccsccc" />
    <g
       transform="translate(-6.863,3609.097)"
       data-name="Camada 2"
       id="Camada_2" />
  </g>
  <path
     style="fill:none"
     d="M 0,0 H 1302.071 V 178.40539 H 0.946142 V 0 Z"
     id="path773"
     inkscape:connector-curvature="0" />
</svg>
