<?xml version="1.0" encoding="UTF-8" standalone="no"?>
<svg
   xmlns:dc="http://purl.org/dc/elements/1.1/"
   xmlns:cc="http://creativecommons.org/ns#"
   xmlns:rdf="http://www.w3.org/1999/02/22-rdf-syntax-ns#"
   xmlns:svg="http://www.w3.org/2000/svg"
   xmlns="http://www.w3.org/2000/svg"
   xmlns:sodipodi="http://sodipodi.sourceforge.net/DTD/sodipodi-0.dtd"
   xmlns:inkscape="http://www.inkscape.org/namespaces/inkscape"
   width="1430.861"
   height="584.407"
   viewBox="0 0 1430.861 584.407"
   version="1.1"
   id="svg308"
   sodipodi:docname="background-header-end.svg"
   inkscape:version="0.92.5 (2060ec1f9f, 2020-04-08)">
  <metadata
     id="metadata312">
    <rdf:RDF>
      <cc:Work
         rdf:about="">
        <dc:format>image/svg+xml</dc:format>
        <dc:type
           rdf:resource="http://purl.org/dc/dcmitype/StillImage" />
        <dc:title></dc:title>
      </cc:Work>
    </rdf:RDF>
  </metadata>
  <sodipodi:namedview
     pagecolor="#ffffff"
     bordercolor="#666666"
     borderopacity="1"
     objecttolerance="10"
     gridtolerance="10"
     guidetolerance="10"
     inkscape:pageopacity="0"
     inkscape:pageshadow="2"
     inkscape:window-width="1366"
     inkscape:window-height="718"
     id="namedview310"
     showgrid="false"
     inkscape:zoom="1.1182079"
     inkscape:cx="309.0117"
     inkscape:cy="283.54736"
     inkscape:window-x="0"
     inkscape:window-y="0"
     inkscape:window-maximized="1"
     inkscape:current-layer="Grupo_351" />
  <defs
     id="defs292">
    <clipPath
       id="clip-path">
      <path
         id="Caminho_15084"
         data-name="Caminho 15084"
         d="M0,0H1401.976V289H0Z"
         transform="translate(-112.15 0)"
         fill="none" />
    </clipPath>
  </defs>
  <g
     id="Grupo_3666"
     data-name="Grupo 3666"
     transform="translate(112.245 -429.867)">
    <g
       id="Grupo_3024"
       data-name="Grupo 3024"
       transform="translate(-60.405 443.987)">
      <path
         id="Caminho_9210"
         data-name="Caminho 9210"
         d="M345.945,189.247,230.647,82.038c-19.337-.028-34.993-12.2-34.993-27.212V-142.748c28.865-14.269,90.981-13.53,138.525-8.607,26.286,3.825,32.857,30.6,24.643,48.456-18.071,40.805-84.607,65.352-71.464,115.084,3.286,11.476,15.607,21.359,28.75,25.185,24.643,6.376,47.643-2.55,64.071-16.577,25.793-23.833,21.3-12.5,62.832-38.263s61.6-21.234,94.4-23.6c.064-.006,1.512.032,1.867,0,31.529-2.806,62.4-20.757,76.865-10.457C645.6-30.55,590.512,38.395,590.512,38.395c0,7.227,78.823,145.746,72.233,150.852S355.256,189.264,345.945,189.247Z"
         transform="translate(373.259 162.817)"
         fill="#ff8902" />
      <path
         id="Caminho_9212"
         data-name="Caminho 9212"
         d="M67.575,106.36-152.159,81.475c-19.073-.042-235.876,39.858-235.867,24.885v-246.7s34.864,39.926,82.2,64.871,139.408-15.288,146.265-18.36c15.317-6.864,19-7.2,23.623-8.392,65.8-17.017,68.746,13.9,107.668,24.088,35.679,8.912,75.411.637,82.3-34.374-1.506-23.051.072-29.248,35.938-53.423,6.219-36.4,112.407-77.263,126.4-79.732l169.6,367.807c0,15.015-299.274-15.774-318.4-15.789Z"
         transform="translate(398.83 231.538)"
         fill="#ff8902" />
      <path
         id="Caminho_9214"
         data-name="Caminho 9214"
         d="M858.169,93.815h-294.4C530.526,93.787,413.242-27.4,413.258-42.623V-155c31.788-3,71.714-3,103.75-2.285,35.7.8,132.722,80.572,167.228,85.744,94.8,14.138,182.333-38.249,182.333-38.249v99.2C866.584,4.659,858.169,93.815,858.169,93.815Z"
         transform="translate(496.236 258.216)"
         fill="#ff8902" />
    </g>
    <g
       id="Grupo_351"
       data-name="Grupo 351"
       transform="translate(0 690.868)">
      <g
         id="Camada_2"
         data-name="Camada 2"
         transform="translate(0 -0.192)">
        <g
           id="OBJECTS">
          <path
             id="Caminho_270"
             data-name="Caminho 270"
             d="M0,81.436v42.712H1280V0c-87.516,27.872-263.082,74.3-471.6,78.306-241.931,4.628-559.894-48-804.211,1.651C2.554,80.289,1.96,81.022,0,81.436Z"
             fill-rule="evenodd"
             fill="#fff" />
        </g>
      </g>
      <g
         id="Camada_2-2"
         data-name="Camada 2"
         transform="translate(37.5 -5.771)">
        <g
           id="OBJECTS-2"
           data-name="OBJECTS">
          <path
             id="Caminho_271"
             data-name="Caminho 271"
             d="M782.067,105.164C546.246,104.346,253.042,50.415,0,79.5,240.928,31.131,552.282,82.9,790.572,78.3c206.254-3.988,379.88-50.425,466.534-78.306V42.808C1152.534,70.027,977.662,105.793,782.067,105.164Z"
             transform="translate(0 0.01)"
             fill-rule="evenodd"
             fill="#206666" />
        </g>
      </g>
    </g>
    <g
       id="Grupo_de_máscara_11"
       data-name="Grupo de máscara 11"
       transform="matrix(-0.985, 0.174, -0.174, -0.985, 1208.17, 790.298)"
       clip-path="url(#clip-path)">
      <path
         id="Caminho_15083"
         data-name="Caminho 15083"
         d="M1350.926,208.652c-44.817,15.164-96.165,18.914-128.9,18.973-61.891.111-109.355-13.481-143.992-30.1-27.36-13.134-53.354-26.578-76.83-40.6-57.815-34.307-105.876-37.652-129.522-40.944-68.7-9.494-209.02,1.292-309.454-15.245C374.376,69.806,417.356,22.09,188.115,25.452,173.708,25.663-26.917,41.27-43.235,41.88"
         transform="translate(-38.415 2.92)"
         fill="none"
         stroke="#ff8902"
         stroke-miterlimit="10"
         stroke-width="3" />
    </g>
  </g>
</svg>
