<svg xmlns="http://www.w3.org/2000/svg" xmlns:xlink="http://www.w3.org/1999/xlink" width="85.54" height="23.803" viewBox="0 0 85.54 23.803">
  <defs>
    <linearGradient id="linear-gradient" y1="0.5" x2="1.025" y2="0.5" gradientUnits="objectBoundingBox">
      <stop offset="0" stop-color="#04f81d"/>
      <stop offset="1" stop-color="#00ff19" stop-opacity="0.941"/>
      <stop offset="1" stop-color="#fdfdfd"/>
      <stop offset="1" stop-color="#e6e6e6"/>
    </linearGradient>
  </defs>
  <path id="Caminho_11155" data-name="Caminho 11155" d="M1010.986,178.5h10.973c-3.764,4.161-1.71,9.066-1.71,13.728s.5,6.888-2.409,9.715h0l47.346.359c5.156,0,9.338-5.326,9.34-11.9h0c0-6.574-4.182-11.9-9.34-11.9Z" transform="translate(-988.987 -178.503)" fill="url(#linear-gradient)"/>
  <path id="Caminho_17375" data-name="Caminho 17375" d="M1010.986,178.5h10.973c-3.764,4.161-1.71,9.066-1.71,13.728s.5,6.888-2.409,9.715h0l47.346.359c5.156,0,9.338-5.326,9.34-11.9h0c0-6.574-4.182-11.9-9.34-11.9Z" transform="translate(1074.527 202.305) rotate(180)" fill="url(#linear-gradient)"/>
</svg>
