<svg xmlns="http://www.w3.org/2000/svg" width="267.153" height="279.137" viewBox="0 0 267.153 279.137">
  <g id="Grupo_3667" data-name="Grupo 3667" transform="translate(-372.847 -2342.627)">
    <g id="Grupo_3466" data-name="Grupo 3466" transform="translate(-460 107)" opacity="0.66">
      <g id="Grupo_3465" data-name="Grupo 3465" transform="translate(909.643 2381.49)">
        <path id="Caminho_11081" data-name="Caminho 11081" d="M120.351,71.428a56.312,56.312,0,0,1-5.358,17.884,3.7,3.7,0,0,0,1.441,4.619l.739.406a3.7,3.7,0,0,1,1.256,5.1,66.916,66.916,0,0,1-8.831,10.827,3.7,3.7,0,0,1-5.247,0l-.554-.628a3.7,3.7,0,0,0-4.8-.517,55.982,55.982,0,0,1-16.443,8.868,3.7,3.7,0,0,0-2.18,4.212h0a4.434,4.434,0,0,1-3.4,5.432,65.81,65.81,0,0,1-13.081,1.219h0a3.7,3.7,0,0,1-3.7-3.7v-.85a3.7,3.7,0,0,0-3.03-3.7,56.312,56.312,0,0,1-17.663-5.8,3.7,3.7,0,0,0-4.582,1.478l-.443.739a3.7,3.7,0,0,1-5.062,1.478,63.6,63.6,0,0,1-10.864-8.794,3.7,3.7,0,0,1,.185-5.247l.628-.554a3.7,3.7,0,0,0,.517-4.8,56.941,56.941,0,0,1-8.905-16.443,3.7,3.7,0,0,0-4.286-2.18h0a4.434,4.434,0,0,1-5.432-3.473A62.817,62.817,0,0,1,0,63.964H0A3.7,3.7,0,0,1,3.7,60.49h.887a3.7,3.7,0,0,0,3.7-3.03,55.649,55.649,0,0,1,5.358-17.884,3.7,3.7,0,0,0-1.515-4.582l-.739-.443a3.7,3.7,0,0,1-1.219-5.062,63.593,63.593,0,0,1,8.942-10.753,3.7,3.7,0,0,1,5.247,0l.554.665a3.7,3.7,0,0,0,4.841.517,54.576,54.576,0,0,1,16.406-8.905,3.7,3.7,0,0,0,2.18-4.323h0a4.508,4.508,0,0,1,3.51-5.469A65.439,65.439,0,0,1,64.888,0h0a3.7,3.7,0,0,1,3.7,3.7v.85a3.7,3.7,0,0,0,3.03,3.7A57.422,57.422,0,0,1,89.46,13.636a3.7,3.7,0,0,0,4.619-1.478l.406-.739a3.7,3.7,0,0,1,5.1-1.219,65.364,65.364,0,0,1,10.9,9.016,3.7,3.7,0,0,1-.185,5.247l-.628.554a3.7,3.7,0,0,0-.517,4.8,55.981,55.981,0,0,1,8.72,16.443,3.7,3.7,0,0,0,4.249,2.032h0a4.434,4.434,0,0,1,5.432,3.363,65.808,65.808,0,0,1,1.4,13.228h0a3.7,3.7,0,0,1-3.7,3.51h-.85a3.473,3.473,0,0,0-4.065,3.03ZM50.773,14.856h0l.37,1.4ZM97.294,55.5a34.143,34.143,0,0,0-32.628-25.09,33.775,33.775,0,0,0-9.312,1.219,34.143,34.143,0,0,0-25.09,32.628,33.772,33.772,0,0,0,1.219,9.312A34.143,34.143,0,0,0,64.112,98.66a33.772,33.772,0,0,0,9.312-1.219,34.143,34.143,0,0,0,25.09-32.628,33.774,33.774,0,0,0-1.219-9.459Z" transform="translate(0 4.501) rotate(-2)" fill="#183456" opacity="0.22"/>
        <ellipse id="Elipse_1302" data-name="Elipse 1302" cx="23.39" cy="23.39" rx="23.39" ry="23.39" transform="translate(44.751 43.98) rotate(-2)" fill="#183456" opacity="0.2"/>
      </g>
      <g id="Grupo_3464" data-name="Grupo 3464" transform="translate(832.847 2350.707)">
        <path id="Caminho_15077" data-name="Caminho 15077" d="M81.972,48.653a38.358,38.358,0,0,1-3.649,12.182,2.517,2.517,0,0,0,.982,3.146l.5.277a2.517,2.517,0,0,1,.856,3.473,45.58,45.58,0,0,1-6.015,7.375,2.517,2.517,0,0,1-3.574,0l-.378-.428a2.517,2.517,0,0,0-3.272-.352,38.129,38.129,0,0,1-11.2,6.041,2.517,2.517,0,0,0-1.485,2.869h0a3.02,3.02,0,0,1-2.315,3.7,44.82,44.82,0,0,1-8.909.831h0A2.517,2.517,0,0,1,41,85.248V84.67a2.517,2.517,0,0,0-2.064-2.517A38.353,38.353,0,0,1,26.906,78.2a2.517,2.517,0,0,0-3.121,1.007l-.3.5a2.517,2.517,0,0,1-3.448,1.007,43.316,43.316,0,0,1-7.4-5.99,2.517,2.517,0,0,1,.126-3.574l.428-.378a2.517,2.517,0,0,0,.352-3.272A38.786,38.786,0,0,1,7.476,56.3a2.517,2.517,0,0,0-2.919-1.485h0a3.02,3.02,0,0,1-3.7-2.366A42.79,42.79,0,0,1,0,43.569H0A2.517,2.517,0,0,1,2.518,41.2h.6a2.517,2.517,0,0,0,2.517-2.064A37.907,37.907,0,0,1,9.288,26.957a2.517,2.517,0,0,0-1.032-3.121l-.5-.3a2.517,2.517,0,0,1-.831-3.448,43.316,43.316,0,0,1,6.091-7.324,2.517,2.517,0,0,1,3.574,0l.378.453a2.517,2.517,0,0,0,3.3.352A37.171,37.171,0,0,1,31.436,7.5a2.517,2.517,0,0,0,1.485-2.945h0A3.071,3.071,0,0,1,35.312.832,44.568,44.568,0,0,1,44.2,0h0a2.517,2.517,0,0,1,2.517,2.517V3.1a2.517,2.517,0,0,0,2.064,2.517A39.109,39.109,0,0,1,60.932,9.288a2.517,2.517,0,0,0,3.146-1.007l.277-.5a2.517,2.517,0,0,1,3.473-.831,44.521,44.521,0,0,1,7.424,6.141,2.517,2.517,0,0,1-.126,3.574l-.428.378a2.517,2.517,0,0,0-.352,3.272,38.132,38.132,0,0,1,5.94,11.2A2.517,2.517,0,0,0,83.18,32.9h0a3.02,3.02,0,0,1,3.7,2.29,44.829,44.829,0,0,1,.956,9.01h0a2.517,2.517,0,0,1-2.517,2.391h-.579a2.366,2.366,0,0,0-2.768,2.064ZM34.582,10.119h0l.252.956ZM66.268,37.8a23.255,23.255,0,0,0-22.223-17.09,23,23,0,0,0-6.342.831A23.256,23.256,0,0,0,20.614,43.77a23.005,23.005,0,0,0,.831,6.343A23.255,23.255,0,0,0,43.667,67.2a23,23,0,0,0,6.342-.831A23.256,23.256,0,0,0,67.1,44.147a23.007,23.007,0,0,0-.831-6.443Z" transform="translate(0 3.065) rotate(-2)" fill="#183456" opacity="0.22"/>
        <ellipse id="Elipse_1433" data-name="Elipse 1433" cx="15.932" cy="15.932" rx="15.932" ry="15.932" transform="translate(29.47 30.953) rotate(-2)" fill="#183456" opacity="0.2"/>
      </g>
    </g>
    <g id="Camada_2" data-name="Camada 2" transform="translate(399.948 2342.627)" opacity="0.3">
      <g id="OBJECTS" transform="translate(0 0)">
        <path id="Caminho_11100" data-name="Caminho 11100" d="M223.24,12.527h0L217.7,5.594h0a2.672,2.672,0,0,0-2.587-1.1L50.9,29.819a2.7,2.7,0,0,0-2.215,2.046l-3.7,15.685a2.7,2.7,0,0,0,1.691,3.171l4.3,5.987c.042.059.076.127.127.186h0a2.663,2.663,0,0,0,2.283.9l8.633-.846L74.978,55.7l7.83-.753L215.122,42.266a2.723,2.723,0,0,0,2.359-2.046l6.2-25.485a2.655,2.655,0,0,0-.44-2.207Z" transform="translate(-6.932 -0.703)" fill="#fb7880"/>
        <path id="Caminho_11101" data-name="Caminho 11101" d="M251.14,12.527h0L245.6,5.594h0a2.672,2.672,0,0,0-2.587-1.1L227.887,6.828l-2.317,2,7.821,21.207,11.187,11.55a2.748,2.748,0,0,0,.846-1.361l6.2-25.485A2.655,2.655,0,0,0,251.14,12.527Z" transform="translate(-34.832 -0.703)" fill="#206668"/>
        <path id="Caminho_11102" data-name="Caminho 11102" d="M44.986,47.552l3.72-15.685a2.7,2.7,0,0,1,2.2-2.046L215.1,4.5a2.7,2.7,0,0,1,3.036,3.306l-6.2,25.494a2.714,2.714,0,0,1-2.368,2.055L47.827,50.875a2.7,2.7,0,0,1-2.841-3.323Z" transform="translate(-6.932 -0.704)" fill="#206668"/>
        <path id="Caminho_11103" data-name="Caminho 11103" d="M52.451,52.714a.212.212,0,0,1-.025-.423L208.12,36.09a.211.211,0,0,1,.228.186.22.22,0,0,1-.186.237L52.468,52.705Z" transform="translate(-8.064 -5.587)" fill="#ffc4ce"/>
        <path id="Caminho_11104" data-name="Caminho 11104" d="M176.36,16.807l59.3-8.777L231.347,23Z" transform="translate(-27.232 -1.254)" fill="#fff"/>
        <path id="Caminho_11105" data-name="Caminho 11105" d="M121.305,31.94a1.9,1.9,0,1,1-3.611-.8,1.9,1.9,0,1,1,3.611.8Z" transform="translate(-18.142 -4.523)" fill="#fa505b"/>
        <path id="Caminho_11106" data-name="Caminho 11106" d="M128.96,20.961l-2.537.381c-.372-2.63-2.232-4.625-4.465-4.625-2.537,0-4.541,2.537-4.541,5.606a2.18,2.18,0,0,0,0,.406,5.919,5.919,0,0,0,1.8,4.033,1.268,1.268,0,1,1-1.742,1.843,8.507,8.507,0,0,1-2.537-5.488v-.795c0-4.49,3.179-8.143,7.077-8.143C125.484,14.18,128.4,17.123,128.96,20.961Z" transform="translate(-17.747 -2.203)" fill="#ede9fd"/>
        <path id="Caminho_11107" data-name="Caminho 11107" d="M119.717,15.356c.237.364-.059.972-.668,1.37s-1.285.431-1.514.068.059-.964.668-1.361S119.489,15.018,119.717,15.356Z" transform="translate(-18.136 -2.348)" fill="#fff"/>
        <path id="Caminho_11108" data-name="Caminho 11108" d="M118.037,18.213a.49.49,0,0,1-.2.676.457.457,0,1,1,.2-.676Z" transform="translate(-18.096 -2.795)" fill="#fff"/>
        <path id="Caminho_11109" data-name="Caminho 11109" d="M142.485,28.84a1.9,1.9,0,1,1-3.611-.795,1.9,1.9,0,1,1,3.611.795Z" transform="translate(-21.413 -4.044)" fill="#fa505b"/>
        <path id="Caminho_11110" data-name="Caminho 11110" d="M150.113,17.722l-2.537.389c-.414-2.537-2.258-4.49-4.456-4.49-2.537,0-4.541,2.537-4.541,5.606a1.454,1.454,0,0,0,0,.271,5.987,5.987,0,0,0,1.818,4.2,1.268,1.268,0,0,1-.846,2.19,1.252,1.252,0,0,1-.846-.355,8.532,8.532,0,0,1-2.537-5.623v-.66c0-4.49,3.179-8.143,7.077-8.143C146.613,11.085,149.5,13.951,150.113,17.722Z" transform="translate(-21.025 -1.729)" fill="#ede9fd"/>
        <path id="Caminho_11111" data-name="Caminho 11111" d="M140.952,12.783a.778.778,0,0,1-1.285.846.778.778,0,0,1,1.285-.846Z" transform="translate(-21.554 -1.948)" fill="#fff"/>
        <path id="Caminho_11112" data-name="Caminho 11112" d="M163.648,25.745a1.894,1.894,0,1,1-3.6-.795,1.894,1.894,0,1,1,3.6.795Z" transform="translate(-24.684 -3.57)" fill="#fa505b"/>
        <path id="Caminho_11113" data-name="Caminho 11113" d="M171.241,14.486h0l-2.537.381c-.457-2.494-2.266-4.355-4.422-4.355-2.537,0-4.549,2.537-4.549,5.606a.731.731,0,0,0,0,.135,6.037,6.037,0,0,0,1.776,4.312,1.268,1.268,0,1,1-1.742,1.844,8.549,8.549,0,0,1-2.537-5.767v-.524C157.222,11.636,160.418,8,164.307,8,167.715,8,170.565,10.782,171.241,14.486Z" transform="translate(-24.278 -1.249)" fill="#ede9fd"/>
        <path id="Caminho_11114" data-name="Caminho 11114" d="M161.46,9.826c.169.245,0,.634-.338.846a.685.685,0,0,1-.939,0,.685.685,0,0,1,.347-.846.668.668,0,0,1,.93,0Z" transform="translate(-24.728 -1.502)" fill="#fff"/>
        <path id="Caminho_11115" data-name="Caminho 11115" d="M162.936,9.979c.085.127,0,.33-.178.448a.347.347,0,0,1-.473,0,.347.347,0,0,1,.169-.448C162.64,9.818,162.885,9.826,162.936,9.979Z" transform="translate(-25.054 -1.536)" fill="#fff"/>
        <path id="Caminho_11116" data-name="Caminho 11116" d="M214.826,44.68s-3.34,27.591,3.2,51.317c9.952,36.03,32.132,47.715,32.132,47.715l-139.29-17.757S89.546,114.9,78.858,95.795C70.766,81.31,65.49,59.012,65.49,59.012Z" transform="translate(-10.11 -6.914)" fill="#c5b8f8"/>
        <path id="Caminho_11117" data-name="Caminho 11117" d="M211.769,42.25S205,72.166,209.055,103.427,230.82,159.75,230.82,159.75L86.076,143.836s-17.047-13.859-23.608-37.146,0-50.108,0-50.108Z" transform="translate(-9.193 -6.538)" fill="#e1dafc"/>
        <path id="Caminho_11118" data-name="Caminho 11118" d="M202.269,41.57l-.972,4.668-26.1,123.69L30.45,154.022l5.361-23.448L41.933,103.9l7.128-31.1L52.942,55.9Z" transform="translate(-4.699 -6.433)" fill="#f8f7fe"/>
        <path id="Caminho_11119" data-name="Caminho 11119" d="M105.069,128.031,36.79,141.958l6.122-26.678,57.549,4.777Z" transform="translate(-5.678 -17.816)" fill="#e1dafc"/>
        <path id="Caminho_11120" data-name="Caminho 11120" d="M205.668,41.57l-.972,4.668L52.46,72.8,56.341,55.9Z" transform="translate(-8.098 -6.433)" fill="#e1dafc"/>
        <path id="Caminho_11121" data-name="Caminho 11121" d="M178.335,105.8v-.769H166.024l5.412-24.877,12.76-.414v-.778l-12.574.414,4.752-21.841-.753-.161L170.81,79.38l-23.617.778,4.515-20.776-.753-.169L146.4,80.183l-22.331.736,4.3-19.769-.753-.161-4.338,19.955-24.149.795,4.169-18.687-.753-.169-4.228,18.89-22.9.753L79.235,64.87l-.753-.161L74.61,82.551l-10.282.338v.778l10.147-.338L69.807,104.9H59.55v.769H69.621l-4.3,19.879-10.147-.44v.769l9.986.44-4.507,20.809.753.161,4.532-20.936,22.238.972-4.82,21.621.753.169,4.854-21.756,24.014,1.057-4.9,22.5.753.161,4.921-22.653,21.985.964-5.073,23.346.753.161,5.073-23.473,23.194,1.015-5.268,24.209.753.161,5.293-24.335,13.529.592v-.769l-13.36-.583,5.209-23.93Zm-7.695-25.638-5.412,24.851H141.815l5.217-24.048Zm-24.4.846-5.217,24.023H118.85l5.073-23.262Zm-23.126.769L118.038,105H93.931L99,82.526Zm-47.851,1.5,22.89-.719-5,22.374H70.568ZM66.1,125.548l4.3-19.888H92.992L88.342,126.5Zm23.025,1.015,4.659-20.869h24.107l-4.761,21.892Zm24.792,1.082,4.761-21.926h22.171l-4.963,22.83Zm45.957,2.029-23.185-1.023,4.972-22.9h23.414Z" transform="translate(-8.516 -8.873)" fill="#553ac7"/>
        <path id="Caminho_11122" data-name="Caminho 11122" d="M204.776,96.1a2.85,2.85,0,1,1-.82-2.025A2.858,2.858,0,0,1,204.776,96.1Z" transform="translate(-30.738 -14.411)" fill="#fff"/>
        <path id="Caminho_11123" data-name="Caminho 11123" d="M195.248,105.457a1.429,1.429,0,1,1-1.412-1.437,1.412,1.412,0,0,1,1.412,1.437Z" transform="translate(-29.708 -16.078)" fill="#fff"/>
        <path id="Caminho_11124" data-name="Caminho 11124" d="M134.572,156.833a2.156,2.156,0,1,1-2.139-2.173A2.156,2.156,0,0,1,134.572,156.833Z" transform="translate(-20.113 -23.898)" fill="#fff"/>
        <path id="Caminho_11125" data-name="Caminho 11125" d="M154.383,89.75a1.353,1.353,0,1,1-.387-.965,1.361,1.361,0,0,1,.387.965Z" transform="translate(-23.418 -13.662)" fill="#fff"/>
        <path id="Caminho_11126" data-name="Caminho 11126" d="M125.363,122.845a7.86,7.86,0,0,0-6.164-3.94c-2.7-.381-6.477-.076-8.5,1.962a1.082,1.082,0,0,0,1.023,1.8c1.032-.245,1.97-.736,3-1a11.042,11.042,0,0,1,3.154-.338,6.625,6.625,0,0,1,4.93,2.148c2.232,2.892.575,7.34-1.344,9.935a16.142,16.142,0,0,1-8.735,5.758c-3.754,1.006-9.056.727-10.578-3.594-1.776-5.073,2.926-8.929,5.919-12.176a.109.109,0,0,0-.135-.169c-3.9,2.537-7.965,6.579-7.61,11.652.406,5.268,5.919,7.466,10.57,6.908a18.552,18.552,0,0,0,11.736-6.19C125.558,132.256,127.452,127.064,125.363,122.845Z" transform="translate(-15.487 -18.354)" fill="#fb7880"/>
        <path id="Caminho_11127" data-name="Caminho 11127" d="M113.3,127.94l.347,3.382a1.919,1.919,0,0,1-2.478,2.055l-3.264-.964c.9-.617,1.843-1.336,2.79-2.114S112.527,128.718,113.3,127.94Z" transform="translate(-16.661 -19.772)" fill="#001552"/>
        <path id="Caminho_11128" data-name="Caminho 11128" d="M109.981,113.64l.676,6.688.55,5.4c-.778.778-1.691,1.573-2.6,2.359a31.5,31.5,0,0,1-2.79,2.114l-5.217-1.539-6.266-1.843,7.28-7.17Z" transform="translate(-14.564 -17.563)" fill="#feafab"/>
        <path id="Caminho_11129" data-name="Caminho 11129" d="M26.423,12.63,96.7,97.364c1.023,1.243-.347,4.143-3.162,7.137a28.69,28.69,0,0,1-5.378,4.456c-3.45,2.207-6.57,3.019-7.61,1.784L10.29,26.007Z" transform="translate(-1.585 -1.964)" fill="#6e6e6e"/>
        <path id="Caminho_11130" data-name="Caminho 11130" d="M15.668,23.18l72.49,87.406c-3.45,2.207-6.57,3.019-7.61,1.784L10.29,27.636Z" transform="translate(-1.585 -3.593)" fill="#206668"/>
        <path id="Caminho_11131" data-name="Caminho 11131" d="M22.019,17.9l72.49,87.415a28.69,28.69,0,0,1-5.378,4.456L16.65,22.365Z" transform="translate(-2.568 -2.778)" fill="#206668"/>
        <path id="Caminho_11132" data-name="Caminho 11132" d="M28.386,12.63,98.661,97.364c1.023,1.243-.347,4.143-3.162,7.137L23,17.086Z" transform="translate(-3.548 -1.964)" fill="#206668"/>
        <path id="Caminho_11133" data-name="Caminho 11133" d="M16.519,17.108c-4.456,3.67-7.255,7.61-6.266,8.836l.389.465.693.846.381.465c1,1.2,5.42-.846,9.876-4.515s7.255-7.661,6.257-8.87l-.381-.457-.693-.846-.389-.457C25.4,11.367,21,13.388,16.519,17.108Z" transform="translate(-1.549 -1.902)" fill="#fff"/>
        <path id="Caminho_11134" data-name="Caminho 11134" d="M23.25,17.424l-.042.051c-.152.186-.313.372-.474.55s-.347.389-.524.575-.524.541-.795.8c-.524.516-1.1,1.032-1.691,1.53-3.323,2.757-6.765,4.4-8.853,4.4a2.19,2.19,0,0,1-1.4-.4,8.008,8.008,0,0,1-3.636-5.31l7.61-6.291L21.06,7.04A7.779,7.779,0,0,1,22.887,8.1a7.881,7.881,0,0,1,2.655,3.492h0C26.176,12.773,25.237,15.005,23.25,17.424Z" transform="translate(-0.898 -1.101)" fill="#feafab"/>
        <path id="Caminho_11135" data-name="Caminho 11135" d="M24.4,17.617l-.042.051c-.152.186-.313.372-.474.55s-.347.389-.524.575-.524.541-.795.8a29.1,29.1,0,0,1-6.206,4.515,2.114,2.114,0,1,1-1.945-3.754,25,25,0,0,0,4.549-3.146c2.266-1.987,4.591-4.8,4.887-8.126a2.072,2.072,0,0,1,.186-.795,7.881,7.881,0,0,1,2.655,3.492h0C27.323,12.966,26.385,15.2,24.4,17.617Z" transform="translate(-2.046 -1.294)" fill="#fed3d1"/>
        <path id="Caminho_11136" data-name="Caminho 11136" d="M19.616,9.422a20.691,20.691,0,0,1-4.862,5.522c-3.814,3.162-7.8,4.769-9.411,3.907h0l-.127-.076h0A15.5,15.5,0,0,1,.228,13.8h0C-.8,12.094,1.69,7.985,6.011,4.408S14.831-.843,16.31.451h0a11.441,11.441,0,0,1,.964.955A16.066,16.066,0,0,1,20.293,6.26h0l.051.144h0a4.177,4.177,0,0,1-.727,3.019Z" transform="translate(0.004 -0.016)" fill="#feafab"/>
        <path id="Caminho_11137" data-name="Caminho 11137" d="M14.808,1.923C15.822,3.149,13.489,6.76,9.582,9.99S1.7,14.826.687,13.6,2.014,8.764,5.912,5.534,13.793.672,14.808,1.923Z" transform="translate(-0.066 -0.245)" fill="#fb7880"/>
        <path id="Caminho_11138" data-name="Caminho 11138" d="M21.074,9.674A26.712,26.712,0,0,1,12.931,17.4a2.3,2.3,0,0,1-1.175.321,2.325,2.325,0,0,1-1.175-4.329c2.258-1.3,8.016-5.792,8.016-10.6V2.555a2.292,2.292,0,0,1,.152-.9,16.066,16.066,0,0,1,3,4.862h0l.051.144h0a4.177,4.177,0,0,1-.727,3.019Z" transform="translate(-1.453 -0.268)" fill="#fed3d1"/>
        <path id="Caminho_11139" data-name="Caminho 11139" d="M171.551,165.013l57.169-4.143s-6.283,36.469-16.522,60.2L192.75,232.912l-44.57-3.069S163.045,214.327,171.551,165.013Z" transform="translate(2.471 -72.92)" fill="#fece77"/>
        <path id="Caminho_11140" data-name="Caminho 11140" d="M200.92,243.659s4.921-6.967,1.75-12.819l17.672,1.006Z" transform="translate(-5.673 -83.725)" fill="#fdb737"/>
        <path id="Caminho_11141" data-name="Caminho 11141" d="M216.186,181.4a39.968,39.968,0,0,0-4.177,3.763c-1.4,1.353-2.74,2.765-4.059,4.186a123.329,123.329,0,0,0-13.529,17.994c-.989,1.691-1.979,3.382-2.943,5.073-.211.381-.414.769-.617,1.158-.068-.5-.144-.989-.228-1.48a55.287,55.287,0,0,0-1.167-5.919c-1.057-3.8-2.215-7.982-4.482-11.271-.7-1.015-2.537-.423-2.1.888.558,1.835,1.361,3.611,2.029,5.412a51.24,51.24,0,0,1,1.691,5.547c.457,1.877.93,3.763,1.243,5.674s.406,3.864.66,5.784a1.361,1.361,0,0,0,2.655.364,38.891,38.891,0,0,1,2.689-5.209c.846-1.607,1.784-3.179,2.757-4.727,1.945-3.086,3.881-6.181,6.012-9.149s4.422-5.877,6.765-8.718c1.158-1.421,2.359-2.8,3.568-4.169s2.723-2.824,3.907-4.355C217.175,181.818,216.736,181.048,216.186,181.4Z" transform="translate(-2.878 -76.077)" fill="#fb7880"/>
        <path id="Caminho_11142" data-name="Caminho 11142" d="M218.974,170.98a3.168,3.168,0,1,1-4.033-.533A2.891,2.891,0,0,1,218.974,170.98Z" transform="translate(-32.946 -26.249)" fill="#fff"/>
        <path id="Caminho_11143" data-name="Caminho 11143" d="M209.073,181.684a1.319,1.319,0,1,1-1.669-.214A1.319,1.319,0,0,1,209.073,181.684Z" transform="translate(-31.932 -28.007)" fill="#fff"/>
      </g>
    </g>
  </g>
</svg>
