<svg xmlns="http://www.w3.org/2000/svg" xmlns:xlink="http://www.w3.org/1999/xlink" width="52.4" height="23.844" viewBox="0 0 52.4 23.844">
  <defs>
    <linearGradient id="linear-gradient" x1="-0.001" y1="0.5" x2="0.999" y2="0.5" gradientUnits="objectBoundingBox">
      <stop offset="0.04" stop-color="#395398"/>
      <stop offset="0.42" stop-color="#3a559b"/>
      <stop offset="0.68" stop-color="#3e5ba3"/>
      <stop offset="0.89" stop-color="#4566b2"/>
      <stop offset="0.99" stop-color="#4a6dbc"/>
    </linearGradient>
    <linearGradient id="linear-gradient-2" x1="0" y1="0.5" x2="1" y2="0.5" xlink:href="#linear-gradient"/>
  </defs>
  <g id="Grupo_3211" data-name="Grupo 3211" transform="translate(0 0)">
    <g id="Componente_181_2" data-name="Componente 181 – 2" transform="translate(0 0)">
      <path id="Caminho_11197" data-name="Caminho 11197" d="M179.089,202.311a14.964,14.964,0,0,0,0-23.8H176.56a14.964,14.964,0,0,1,0,23.8h0l1.91.043H177.4Z" transform="translate(-132.581 -178.51)" fill="url(#linear-gradient)"/>
      <path id="Caminho_11198" data-name="Caminho 11198" d="M54.72,180.946A11.918,11.918,0,0,0,47.5,178.51H24.32a11.915,11.915,0,0,0-7.213,2.436h0a11.9,11.9,0,0,0,0,18.927h0a11.9,11.9,0,0,0,7.213,2.438H47.5a11.9,11.9,0,0,0,7.214-2.437h0a11.9,11.9,0,0,0,0-18.927Z" transform="translate(-12.421 -178.51)" fill="url(#linear-gradient-2)"/>
      <path id="Caminho_11199" data-name="Caminho 11199" d="M89.132,209.686v-7.62h2.556l.383-2.969H89.124v-1.9c0-.86.238-1.447,1.471-1.447h1.573V193.1a20.634,20.634,0,0,0-2.291-.118,3.58,3.58,0,0,0-3.821,3.925V199.1H83.5v2.969h2.564v7.62Z" transform="translate(-64.455 -189.103)" fill="#fff"/>
    </g>
  </g>
</svg>
