<svg xmlns="http://www.w3.org/2000/svg" width="11.324" height="11.324" viewBox="0 0 11.324 11.324">
  <path id="Caminho_3" data-name="Caminho 3" d="M5.662,1.007a17.361,17.361,0,0,1,2.265.063A2.918,2.918,0,0,1,9,1.258a2.209,2.209,0,0,1,1.07,1.07,2.918,2.918,0,0,1,.189,1.07c0,.566.063.755.063,2.265a17.361,17.361,0,0,1-.063,2.265A2.918,2.918,0,0,1,10.066,9,2.209,2.209,0,0,1,9,10.066a2.918,2.918,0,0,1-1.07.189c-.566,0-.755.063-2.265.063A17.361,17.361,0,0,1,3.4,10.255a2.918,2.918,0,0,1-1.07-.189A2.209,2.209,0,0,1,1.258,9a2.918,2.918,0,0,1-.189-1.07c0-.566-.063-.755-.063-2.265A17.361,17.361,0,0,1,1.07,3.4a2.918,2.918,0,0,1,.189-1.07A2.26,2.26,0,0,1,1.7,1.7a1.064,1.064,0,0,1,.629-.44A2.918,2.918,0,0,1,3.4,1.07a17.361,17.361,0,0,1,2.265-.063M5.662,0A18.589,18.589,0,0,0,3.334.063,3.884,3.884,0,0,0,1.95.315,2.463,2.463,0,0,0,.944.944,2.463,2.463,0,0,0,.315,1.95,2.866,2.866,0,0,0,.063,3.334,18.589,18.589,0,0,0,0,5.662,18.589,18.589,0,0,0,.063,7.99,3.884,3.884,0,0,0,.315,9.374a2.463,2.463,0,0,0,.629,1.007,2.463,2.463,0,0,0,1.007.629,3.884,3.884,0,0,0,1.384.252,18.589,18.589,0,0,0,2.328.063,18.589,18.589,0,0,0,2.328-.063,3.884,3.884,0,0,0,1.384-.252A2.639,2.639,0,0,0,11.01,9.374a3.884,3.884,0,0,0,.252-1.384c0-.629.063-.818.063-2.328a18.589,18.589,0,0,0-.063-2.328A3.884,3.884,0,0,0,11.01,1.95,2.463,2.463,0,0,0,10.381.944,2.463,2.463,0,0,0,9.374.315,3.884,3.884,0,0,0,7.99.063,18.589,18.589,0,0,0,5.662,0m0,2.768A2.847,2.847,0,0,0,2.768,5.662,2.894,2.894,0,1,0,5.662,2.768m0,4.781A1.854,1.854,0,0,1,3.775,5.662,1.854,1.854,0,0,1,5.662,3.775,1.854,1.854,0,0,1,7.549,5.662,1.854,1.854,0,0,1,5.662,7.549m3.02-5.6a.692.692,0,1,0,.692.692.7.7,0,0,0-.692-.692" fill-rule="evenodd"/>
</svg>
