<svg id="Web" xmlns="http://www.w3.org/2000/svg" width="11.324" height="11.324" viewBox="0 0 11.324 11.324">
  <path id="Caminho_4" data-name="Caminho 4" d="M1.7,1.7A5.14,5.14,0,0,1,5.662,0,5.14,5.14,0,0,1,9.626,1.7a5.14,5.14,0,0,1,1.7,3.963,5.14,5.14,0,0,1-1.7,3.963,5.14,5.14,0,0,1-3.963,1.7A5.14,5.14,0,0,1,1.7,9.626,5.651,5.651,0,0,1,0,5.662,5.14,5.14,0,0,1,1.7,1.7Zm4.718,8.493a2.319,2.319,0,0,0,1.416-.849,4.122,4.122,0,0,0,.661-1.982,1.563,1.563,0,0,0-.472-1.132,1.661,1.661,0,0,0-1.227-.566H5.851A2.755,2.755,0,0,1,5,5.473a.857.857,0,0,1-.283-.661.49.49,0,0,1,.189-.377.715.715,0,0,1,.377-.189.644.644,0,0,1,.472.283c.189.094.283.189.377.189a.567.567,0,0,0,.377-.094.567.567,0,0,0,.094-.377A1.5,1.5,0,0,0,6.134,3.3,3.9,3.9,0,0,0,6.606,1.51a.2.2,0,0,0-.189-.189,2.917,2.917,0,0,0-.755-.189,4.721,4.721,0,0,0-2.454.755,2.376,2.376,0,0,0-.849,1.887,2.416,2.416,0,0,0,.755,1.793,2.578,2.578,0,0,0,1.793.755h0V6.7a1.212,1.212,0,0,0,.377.944,1.374,1.374,0,0,0,.849.566v1.7c0,.094,0,.094.094.189S6.323,10.192,6.417,10.192Z"/>
</svg>
