<svg id="Merge" xmlns="http://www.w3.org/2000/svg" width="15" height="14" viewBox="0 0 15 14">
  <rect id="Ret창ngulo_1459" data-name="Ret창ngulo 1459" width="15" height="14" fill="none"/>
  <path id="Uni찾o_48" data-name="Uni찾o 48" d="M10.823,9.991H9.575A4.26,4.26,0,0,1,5.829,7.658l-1.5-2.915A2.462,2.462,0,0,0,2.08,3.33H0V1.666H2.08A4.262,4.262,0,0,1,5.829,4l1.5,2.913A2.453,2.453,0,0,0,9.575,8.325h1.249V6.659l3.332,2.5-3.332,2.5ZM0,9.991V8.325H2.08a2.447,2.447,0,0,0,1.834-.75l.332.833a4.673,4.673,0,0,0,.417.667,3.905,3.905,0,0,1-2.583.916ZM10.823,3.33H9.575a2.459,2.459,0,0,0-1.834.75l-.332-.831a4.586,4.586,0,0,0-.417-.667,3.905,3.905,0,0,1,2.583-.916h1.249V0l3.332,2.5L10.823,5Z" transform="translate(0.456 0.843)"/>
</svg>
