<svg id="icon" xmlns="http://www.w3.org/2000/svg" width="10.641" height="10.641" viewBox="0 0 10.641 10.641">
  <path id="Caminho_2058" data-name="Caminho 2058" d="M5.32,0a5.321,5.321,0,1,0,5.321,5.32A5.321,5.321,0,0,0,5.32,0ZM6.428,8.246q-.411.162-.655.247a1.729,1.729,0,0,1-.568.085,1.133,1.133,0,0,1-.773-.243.783.783,0,0,1-.275-.616,2.237,2.237,0,0,1,.02-.3c.014-.1.036-.214.066-.342L4.585,5.87c.03-.116.056-.227.077-.329a1.46,1.46,0,0,0,.031-.285.439.439,0,0,0-.1-.323.542.542,0,0,0-.366-.091.961.961,0,0,0-.273.041c-.092.028-.173.054-.238.079l.091-.373q.336-.137.644-.235a1.9,1.9,0,0,1,.581-.1,1.112,1.112,0,0,1,.762.239.793.793,0,0,1,.268.62q0,.079-.018.278a1.86,1.86,0,0,1-.068.365L5.638,6.965c-.028.1-.053.208-.075.332a1.753,1.753,0,0,0-.033.282.4.4,0,0,0,.108.328.6.6,0,0,0,.373.087,1.081,1.081,0,0,0,.282-.044,1.6,1.6,0,0,0,.228-.077Zm-.06-4.9a.814.814,0,0,1-.574.222.822.822,0,0,1-.577-.222.707.707,0,0,1-.24-.537.715.715,0,0,1,.24-.539.816.816,0,0,1,.577-.224.807.807,0,0,1,.574.224.726.726,0,0,1,0,1.076Z"/>
</svg>
