<svg xmlns="http://www.w3.org/2000/svg" width="11.324" height="9.185" viewBox="0 0 11.324 9.185">
  <path id="Caminho_2" data-name="Caminho 2" d="M41.586,11.185a6.547,6.547,0,0,0,6.606-6.606V4.265a5.114,5.114,0,0,0,1.132-1.2A5.223,5.223,0,0,1,48,3.447,2.448,2.448,0,0,0,49.01,2.189a5.77,5.77,0,0,1-1.447.566A2.247,2.247,0,0,0,45.864,2a2.364,2.364,0,0,0-2.328,2.328,1.226,1.226,0,0,0,.063.5,6.5,6.5,0,0,1-4.781-2.454,2.409,2.409,0,0,0-.315,1.2,2.5,2.5,0,0,0,1.007,1.95,2.121,2.121,0,0,1-1.07-.315h0a2.3,2.3,0,0,0,1.887,2.265,1.939,1.939,0,0,1-.629.063,1.071,1.071,0,0,1-.44-.063,2.383,2.383,0,0,0,2.2,1.636,4.75,4.75,0,0,1-2.894,1.007A1.742,1.742,0,0,1,38,10.053a5.938,5.938,0,0,0,3.586,1.132" transform="translate(-38 -2)" fill-rule="evenodd"/>
</svg>
