<svg xmlns="http://www.w3.org/2000/svg" width="10.05" height="10.159" viewBox="0 0 10.05 10.159">
  <g id="Calendar" transform="translate(0)">
    <rect id="Retângulo_557" data-name="Retângulo 557" width="9.992" height="9.992" transform="translate(0 0.167)" fill="none"/>
    <path id="Caminho_149" data-name="Caminho 149" d="M1.256,3.159V8.845H8.794V3.159Zm6.91-1.9H9.422a.6.6,0,0,1,.628.632V9.477a.6.6,0,0,1-.628.632H.628A.6.6,0,0,1,0,9.477V1.9a.6.6,0,0,1,.628-.632H1.884V.632A.6.6,0,0,1,2.513,0a.6.6,0,0,1,.628.632v.632H6.91V.632a.628.628,0,1,1,1.256,0ZM7.538,7.582H6.281V6.318H7.538Zm-1.884,0H4.4V6.318H5.653Zm1.884-1.9H6.281V4.423H7.538Zm-1.884,0H4.4V4.423H5.653Zm-1.884,1.9H2.513V6.318H3.769Z" transform="translate(0 0)" fill-rule="evenodd"/>
  </g>
</svg>

