<svg id="Time" xmlns="http://www.w3.org/2000/svg" width="10.05" height="10.109" viewBox="0 0 10.05 10.109">
  <path id="Caminho_13" data-name="Caminho 13" d="M1.508,1.516A4.55,4.55,0,0,1,5.025,0,4.55,4.55,0,0,1,8.543,1.516,4.6,4.6,0,0,1,10.05,5.054,4.6,4.6,0,0,1,8.543,8.592a4.55,4.55,0,0,1-3.518,1.516A4.55,4.55,0,0,1,1.508,8.592,5.058,5.058,0,0,1,0,5.054,4.6,4.6,0,0,1,1.508,1.516ZM7.286,7.329l.586-.59L5.779,4.633l-.754-3.37H4.188V5.054a.767.767,0,0,0,.251.59.292.292,0,0,0,.168.084Z" transform="translate(0 0)"/>
</svg>
