<svg xmlns="http://www.w3.org/2000/svg" xmlns:xlink="http://www.w3.org/1999/xlink" width="512" height="447.363" viewBox="0 0 512 447.363">
  <defs>
    <linearGradient id="linear-gradient" x1="0.374" y1="0.756" x2="0.455" y2="0.561" gradientUnits="objectBoundingBox">
      <stop offset="0" stop-color="#93c6ff"/>
      <stop offset="1" stop-color="#d0e7ff"/>
    </linearGradient>
    <linearGradient id="linear-gradient-2" x1="0.381" y1="0.739" x2="0.462" y2="0.544" xlink:href="#linear-gradient"/>
    <linearGradient id="linear-gradient-3" x1="0.928" y1="0.652" x2="-0.33" y2="0.279" gradientUnits="objectBoundingBox">
      <stop offset="0" stop-color="#0800ff"/>
      <stop offset="0.93" stop-color="#061ffe"/>
      <stop offset="1" stop-color="#00b1f9"/>
    </linearGradient>
    <linearGradient id="linear-gradient-4" x1="0.688" y1="1.01" x2="0.349" y2="0.209" gradientUnits="objectBoundingBox">
      <stop offset="0" stop-color="#6f6aff"/>
      <stop offset="1" stop-color="#00b1f9"/>
    </linearGradient>
  </defs>
  <g id="Group_2" data-name="Group 2" transform="translate(0.328 342.598)">
    <ellipse id="Oval" cx="5.5" cy="5" rx="5.5" ry="5" transform="translate(-0.328 0.265)" fill="#206668" opacity="0.111"/>
    <circle id="Oval-2" data-name="Oval" cx="5.5" cy="5.5" r="5.5" transform="translate(22.672 0.265)" fill="#206668" opacity="0.111"/>
    <ellipse id="Oval-3" data-name="Oval" cx="5.5" cy="5" rx="5.5" ry="5" transform="translate(44.672 0.265)" fill="#206668" opacity="0.111"/>
    <circle id="Oval-4" data-name="Oval" cx="5" cy="5" r="5" transform="translate(67.672 0.265)" fill="#206668" opacity="0.111"/>
    <circle id="Oval-5" data-name="Oval" cx="5.5" cy="5.5" r="5.5" transform="translate(-0.328 22.265)" fill="#206668" opacity="0.111"/>
    <ellipse id="Oval-6" data-name="Oval" cx="5.5" cy="6" rx="5.5" ry="6" transform="translate(22.672 22.265)" fill="#206668" opacity="0.111"/>
    <circle id="Oval-7" data-name="Oval" cx="5.5" cy="5.5" r="5.5" transform="translate(44.672 22.265)" fill="#206668" opacity="0.111"/>
    <ellipse id="Oval-8" data-name="Oval" cx="5" cy="5.5" rx="5" ry="5.5" transform="translate(67.672 22.265)" fill="#206668" opacity="0.111"/>
    <circle id="Oval-9" data-name="Oval" cx="5.5" cy="5.5" r="5.5" transform="translate(-0.328 44.265)" fill="#206668" opacity="0.111"/>
    <ellipse id="Oval-10" data-name="Oval" cx="5.5" cy="6" rx="5.5" ry="6" transform="translate(22.672 44.265)" fill="#206668" opacity="0.111"/>
    <circle id="Oval-11" data-name="Oval" cx="5.5" cy="5.5" r="5.5" transform="translate(44.672 44.265)" fill="#206668" opacity="0.111"/>
    <ellipse id="Oval-12" data-name="Oval" cx="5" cy="5.5" rx="5" ry="5.5" transform="translate(67.672 44.265)" fill="#206668" opacity="0.111"/>
    <circle id="Oval-13" data-name="Oval" cx="5.5" cy="5.5" r="5.5" transform="translate(-0.328 67.265)" fill="#206668" opacity="0.111"/>
    <circle id="Oval-14" data-name="Oval" cx="5.5" cy="5.5" r="5.5" transform="translate(22.672 67.265)" fill="#206668" opacity="0.111"/>
    <circle id="Oval-15" data-name="Oval" cx="5.5" cy="5.5" r="5.5" transform="translate(44.672 67.265)" fill="#206668" opacity="0.111"/>
    <ellipse id="Oval-16" data-name="Oval" cx="6" cy="5.5" rx="6" ry="5.5" transform="translate(89.672 0.265)" fill="#206668" opacity="0.111"/>
    <circle id="Oval-17" data-name="Oval" cx="6" cy="6" r="6" transform="translate(89.672 22.265)" fill="#206668" opacity="0.111"/>
    <circle id="Oval-18" data-name="Oval" cx="6" cy="6" r="6" transform="translate(89.672 44.265)" fill="#206668" opacity="0.111"/>
  </g>
  <g id="Camada_2" data-name="Camada 2" transform="translate(10.992 41.354)">
    <g id="Layer_1" data-name="Layer 1" transform="translate(0 -41.354)">
      <path id="Caminho_9706" data-name="Caminho 9706" d="M1514.983,175.4c8.181-4.356,37.359-6.136,32.92,7.557S1529.835,175.409,1514.983,175.4ZM1451.9,247.1a16.011,16.011,0,0,0,.773-1.927c14.121-2.6,31.55,12.792,32.343-1.161.761-13.41-23.217-6.106-32.017.118,3.157-10.895,3.094-34.967-8.923-30.679-12.7,4.531,5.828,17.232,7.678,31.644-.156.133-.3.263-.443.393.158-.044.316-.081.479-.12q.1.864.115,1.735Zm13.619-21.738a17.275,17.275,0,0,0,.031-1.863l-.349.054a4.192,4.192,0,0,1,.342-.245c-.641-14.5-17.951-28.8-4.919-32.152,12.3-3.173,10.34,20.663,6.28,31.275,9.224-5.424,33.915-10.605,32,2.729-2,13.847-18.07-3.144-32.386-1.767a16.517,16.517,0,0,1-1,1.988Zm15.148-20.226a15.506,15.506,0,0,0,1.259-1.691c14.554.709,27.8,20.994,32.161,7.537,4.255-13.133-22.415-12.026-31.816-8.075,5.869-9.459,12.207-33.3-.634-32.35-14.033,1.038,2.681,19.816-.957,34.579Zm82.047-46.5c8.181-4.356,37.359-6.136,32.919,7.557S1577.564,158.646,1562.713,158.636Zm-26.594,6.244c8.5-3.647,28.537-25.471,15.445-30.755S1545.631,153.185,1536.12,164.88Zm-20.129,9.992c7.307-5.76,21.208-32.127,7.231-33.786S1522.264,161.066,1515.991,174.871Zm-18.971,13.887c4.531-14.5-11.01-34.3,3.049-34.451S1503.566,182.1,1497.02,188.758Zm1.252-.893c14.839.012,28.482,21.247,32.92,7.557S1506.453,183.508,1498.272,187.865Zm36.807-22.356c14.851,0,28.482,21.247,32.919,7.557s-24.739-11.9-32.919-7.547Z" transform="translate(-1095.082 -83.554)" fill="#144" fill-rule="evenodd" opacity="0.5"/>
      <path id="Caminho_9707" data-name="Caminho 9707" d="M1473.1,242.123c2.846-4.521,5.857-8.983,9.021-13.342.579-6.055.831-18.488-5.2-27.859,7.36,7.493,6.7,20.516,5.651,27.243a217.079,217.079,0,0,1,15.2-18.589c1.577-5.471,4.39-18.375-.177-29.184,6.245,9.081,2.872,22.528.675,28.647a178.246,178.246,0,0,1,15.885-15.241c1.841-5.029,5.794-18.2,1.759-29.643,5.9,9.817,1.168,23.682-1.333,29.285a141.431,141.431,0,0,1,18.932-13.467c2.47-4.837,7.9-17.293,5.311-29.074,4.636,10.443-1.675,23.52-4.856,28.811a110.714,110.714,0,0,1,20.481-9.393c3.681-4.16,11.8-14.633,12.24-26.507,1.833,11.1-7.149,21.873-11.644,26.315a90.3,90.3,0,0,1,32.142-4.6,42.518,42.518,0,0,1,10.21,1.016q.718.11,1.436.245l-.8-.1a21.817,21.817,0,0,1,11.639,6.816c-6.486-5.139-14.909-6.806-21.223-7.26a95.938,95.938,0,0,0-33.9,6.477c6.032-.719,20.229-1.046,27.489,7.665-9.574-7.581-23.353-7.608-28.357-7.329a117.7,117.7,0,0,0-18.908,9.506c6.2-.692,20.033-.857,27.166,7.7-9.186-7.277-22.259-7.594-27.711-7.363a147.27,147.27,0,0,0-16.7,12.2c5.9-.736,20.344-1.178,27.7,7.638-9.385-7.432-22.812-7.608-28.051-7.346a182.488,182.488,0,0,0-15.823,15.153c6.381-.653,19.779-.633,26.761,7.743-8.856-7.017-21.321-7.562-27.1-7.383a219.243,219.243,0,0,0-15.61,18.95c6.257-1.77,19.258-4.005,27.46,2.928-9.813-5.289-22.06-3.681-27.786-2.486-3.4,4.648-6.424,9.142-9.052,13.315q-2.372,3.77-4.715,7.807c6.06-2.329,18.863-5.77,27.654.41-10.261-4.386-22.336-1.662-27.922.052l-3.939,7.086-2.183-2.771q1.63-3.016,3.188-5.741c.053-6.092-.776-18.481-7.578-27.26,7.953,6.779,8.442,19.752,7.98,26.561C1470.135,246.938,1471.677,244.378,1473.1,242.123Z" transform="translate(-1110.968 -91.421)" fill="#144" fill-rule="evenodd" opacity="0.5"/>
      <path id="Caminho_9708" data-name="Caminho 9708" d="M81.452,710.872c-8.32-4.069-37.539-4.832-32.651,8.7S66.611,711.4,81.452,710.872Zm65.42,69.457a16.232,16.232,0,0,1-.838-1.9c-14.205-2.113-31.115,13.882-32.359-.034-1.2-13.379,23.006-6.914,32-1-3.514-10.777-4.248-34.837,7.9-30.971,12.843,4.086-5.254,17.426-6.625,31.891.158.125.311.245.455.376-.158-.037-.318-.069-.479-.1-.045.579-.067,1.158-.057,1.738Zm-14.33-21.25a17.988,17.988,0,0,1-.093-1.863l.352.042c-.112-.081-.239-.162-.352-.245.163-14.517,16.993-29.41,3.851-32.311-12.4-2.742-9.648,21.011-5.242,31.477-9.4-5.1-34.245-9.42-31.886,3.841,2.451,13.769,17.951-3.77,32.312-2.894a16.293,16.293,0,0,0,1.06,1.963Zm-15.8-19.689a15.558,15.558,0,0,1-1.314-1.647c-14.521,1.227-27.087,21.949-31.893,8.652-4.689-12.976,22-12.8,31.531-9.177-6.187-9.24-13.312-32.849-.445-32.333,14.059.55-2.022,19.9,2.113,34.525ZM33.215,695.773c-8.322-4.062-37.556-4.823-32.666,8.705s17.81-8.17,32.651-8.7ZM60,701.086c-8.616-3.348-29.363-24.462-16.453-30.188S50.108,689.74,60,701.086Zm20.447,9.287C72.953,704.869,58.188,679,72.1,676.857S73.729,696.794,80.447,710.374ZM99.86,723.6c-6.761-6.423-18.25-33.983-4.186-34.326S94.853,709.267,99.86,723.6Zm-1.281-.849c-14.839.528-27.764,22.226-32.649,8.7S90.26,718.689,98.58,722.753ZM61.034,701.7c-14.839.528-27.764,22.226-32.651,8.7S52.722,697.628,61.034,701.7Z" transform="translate(-0.001 -485.4)" fill="#144" fill-rule="evenodd" opacity="0.5"/>
      <path id="Caminho_9709" data-name="Caminho 9709" d="M148.654,775.779c-2.994-4.418-6.151-8.774-9.459-13.02-.778-6.033-1.436-18.449,4.275-28.026-7.109,7.746-6.022,20.739-4.746,27.422A215.51,215.51,0,0,0,122.913,744.1c-1.754-5.414-4.993-18.211-.785-29.175-5.95,9.285-2.121,22.614.273,28.654A177.932,177.932,0,0,0,106.022,728.9c-2.006-4.963-6.4-17.99-2.74-29.567-5.577,10.014-.383,23.711,2.3,29.226a140.721,140.721,0,0,0-19.368-12.8c-2.63-4.747-8.466-17.018-6.271-28.873-4.289,10.6,2.449,23.449,5.8,28.625a110.708,110.708,0,0,0-20.777-8.671c-3.818-4.03-12.276-14.213-13.109-26.072-1.467,11.155,7.867,21.613,12.508,25.9a90.213,90.213,0,0,0-32.278-3.483,42.692,42.692,0,0,0-10.17,1.369q-.718.135-1.415.285l.778-.106A21.913,21.913,0,0,0,9.88,711.95c6.314-5.368,14.677-7.316,20.969-8a95.889,95.889,0,0,1,34.095,5.294c-6.055-.51-20.253-.341-27.223,8.617,9.318-7.913,23.09-8.416,28.1-8.313a117.7,117.7,0,0,1,19.207,8.836c-6.223-.476-20.05-.157-26.9,8.644,8.942-7.594,21.984-8.362,27.453-8.32a146.853,146.853,0,0,1,17.1,11.611c-5.926-.533-20.385-.471-27.438,8.59,9.133-7.756,22.549-8.394,27.8-8.318a182.645,182.645,0,0,1,16.316,14.591c-6.4-.43-19.791.056-26.493,8.674,8.616-7.324,21.062-8.3,26.838-8.323a218.646,218.646,0,0,1,16.23,18.4c-6.314-1.549-19.387-3.333-27.347,3.883,9.643-5.628,21.924-4.45,27.685-3.451,3.552,4.526,6.723,8.912,9.488,12.993q2.5,3.681,4.971,7.638c-6.134-2.118-19.042-5.112-27.625,1.37,10.11-4.739,22.259-2.437,27.908-.918l4.181,6.953,2.092-2.842q-1.73-2.945-3.377-5.628c-.256-6.087.163-18.5,6.673-27.508-7.726,7.051-7.786,20.035-7.1,26.823C151.773,780.487,150.148,777.983,148.654,775.779Z" transform="translate(-7.516 -493.462)" fill="#206666" fill-rule="evenodd" opacity="0.5"/>
      <path id="Caminho_9710" data-name="Caminho 9710" d="M451.633,138.444s-126.681.913-119.415,79.716c8.237,89.367,86.346,61.943,63.7,168.375C379.7,462.781,485.528,483.266,535.758,433.3c33.254-33.082,45.526-89.277,129.191-39.964,43.393,25.576,114.489,2.619,88.652-59.583-21.057-50.695-43.561-44.1-12.109-115.592,17.614-40.032-13.128-79.975-82.84-86.309S451.633,138.444,451.633,138.444Z" transform="translate(-301.684 -13.21)" fill="#144" opacity="0.15"/>
      <path id="Caminho_9712" data-name="Caminho 9712" d="M1043.668,1059.5a2.133,2.133,0,0,1,2.846,1.1,2.232,2.232,0,0,1-1.059,2.922,2.132,2.132,0,0,1-2.854-1.075,2.261,2.261,0,0,1-.066-1.7A2.187,2.187,0,0,1,1043.668,1059.5Z" transform="translate(-792.908 -778.469)" fill="#7e779a"/>
      <path id="Caminho_9713" data-name="Caminho 9713" d="M701.1,762.008a2.132,2.132,0,0,1,2.846,1.1,2.233,2.233,0,0,1-1.059,2.922,2.132,2.132,0,0,1-2.854-1.075,2.261,2.261,0,0,1-.066-1.7A2.187,2.187,0,0,1,701.1,762.008Z" transform="translate(-532.33 -555.145)" fill="#7e779a"/>
      <path id="Caminho_9715" data-name="Caminho 9715" d="M1111.579,762.1a2.133,2.133,0,0,1,2.846,1.1,2.232,2.232,0,0,1-1.059,2.922,2.132,2.132,0,0,1-2.854-1.075,2.26,2.26,0,0,1-.066-1.7A2.186,2.186,0,0,1,1111.579,762.1Z" transform="translate(-844.564 -555.212)" fill="#7e779a"/>
      <path id="Caminho_9716" data-name="Caminho 9716" d="M1363.231,1076.286a.889.889,0,0,1,.024.666.86.86,0,0,1-.443.488l-5.452,2.567a.843.843,0,0,1-1.132-.425.883.883,0,0,1,.414-1.161l5.452-2.555a.829.829,0,0,1,.654-.034A.856.856,0,0,1,1363.231,1076.286Z" transform="translate(-1031.562 -790.84)" fill="#7e779a"/>
      <path id="Caminho_9717" data-name="Caminho 9717" d="M1363.935,1070.01l2.494,5.594a.884.884,0,0,1-.414,1.161.844.844,0,0,1-1.132-.425l-2.492-5.594a.89.89,0,0,1,.056-.892.841.841,0,0,1,.793-.372.853.853,0,0,1,.695.54Z" transform="translate(-1036.239 -786.078)" fill="#7e779a"/>
      <path id="Caminho_9735" data-name="Caminho 9735" d="M664.413,704.5a.88.88,0,0,1-.46-1.139l2.3-5.679a.854.854,0,0,1,.676-.554.84.84,0,0,1,.8.341.889.889,0,0,1,.092.883l-2.3,5.677a.859.859,0,0,1-.46.472.828.828,0,0,1-.651,0Z" transform="translate(-504.99 -506.561)" fill="#7e779a"/>
      <path id="Caminho_9736" data-name="Caminho 9736" d="M663.074,707.981l-5.536-2.359a.867.867,0,0,1-.552-.693.882.882,0,0,1,.335-.826.833.833,0,0,1,.868-.088l5.538,2.356a.88.88,0,0,1,.458,1.14A.843.843,0,0,1,663.074,707.981Z" transform="translate(-499.733 -511.696)" fill="#7e779a"/>
      <path id="Caminho_9737" data-name="Caminho 9737" d="M1043.543,702.5a.879.879,0,0,1-.46-1.139l2.3-5.679a.843.843,0,0,1,1.1-.432.881.881,0,0,1,.477,1.1l-2.3,5.679A.842.842,0,0,1,1043.543,702.5Z" transform="translate(-793.378 -505.112)" fill="#7e779a"/>
      <path id="Caminho_9738" data-name="Caminho 9738" d="M1042.321,705.831l-5.538-2.356a.879.879,0,0,1-.46-1.139.843.843,0,0,1,1.11-.471l5.539,2.359a.867.867,0,0,1,.552.693.882.882,0,0,1-.335.826A.832.832,0,0,1,1042.321,705.831Z" transform="translate(-788.236 -510.095)" fill="#7e779a"/>
      <path id="Caminho_9741" data-name="Caminho 9741" d="M752.113,1024.694a.879.879,0,0,1-.459-1.139l2.3-5.679a.843.843,0,0,1,1.1-.432.881.881,0,0,1,.477,1.1l-2.3,5.679A.847.847,0,0,1,752.113,1024.694Z" transform="translate(-571.7 -746.968)" fill="#7e779a"/>
      <path id="Caminho_9742" data-name="Caminho 9742" d="M750.884,1028.02l-5.538-2.356a.88.88,0,0,1-.458-1.14.843.843,0,0,1,1.112-.47l5.536,2.356a.88.88,0,0,1,.46,1.139A.842.842,0,0,1,750.884,1028.02Z" transform="translate(-566.553 -751.96)" fill="#7e779a"/>
      <path id="Caminho_9745" data-name="Caminho 9745" d="M518.076,464.508l.811-3.335-1.288-.331a9.263,9.263,0,0,0-.519-3.591l1.139-.7-1.726-2.945-1.137.7a8.747,8.747,0,0,0-2.846-2.157l.323-1.323L509.582,450l-.321,1.323a8.576,8.576,0,0,0-3.5.53l-.682-1.166-2.872,1.767.682,1.166a9.038,9.038,0,0,0-2.1,2.918l-1.29-.331-.814,3.335,1.29.331a9.221,9.221,0,0,0,.517,3.591l-1.137.7,1.723,2.945,1.137-.7a8.842,8.842,0,0,0,2.846,2.157l-.316,1.313,3.25.835.323-1.323a8.583,8.583,0,0,0,3.5-.53l.682,1.166,2.872-1.767-.682-1.166a9.01,9.01,0,0,0,2.106-2.918ZM507.4,466a5.831,5.831,0,0,1-4.124-7.058,5.667,5.667,0,0,1,6.882-4.231,5.831,5.831,0,0,1,4.128,7.056A5.667,5.667,0,0,1,507.4,466Z" transform="translate(-379.324 -321.01)" fill="#183456"/>
      <path id="Caminho_9746" data-name="Caminho 9746" d="M536.957,486.658a1.311,1.311,0,0,0-1.394.5,1.391,1.391,0,0,0-.079,1.513,1.318,1.318,0,0,0,1.334.652,1.341,1.341,0,0,0,1.1-1.015A1.365,1.365,0,0,0,536.957,486.658Z" transform="translate(-407.178 -348.563)" fill="#206666"/>
      <path id="Caminho_9747" data-name="Caminho 9747" d="M455.88,570.563l1.343-5.493-2.125-.545a15.162,15.162,0,0,0-.852-5.912l1.872-1.151-2.839-4.857-1.874,1.153a14.484,14.484,0,0,0-4.686-3.556l.534-2.177-5.347-1.374-.531,2.179a14.133,14.133,0,0,0-5.768.871l-1.123-1.919-4.734,2.911,1.123,1.922a14.825,14.825,0,0,0-3.466,4.806l-2.125-.545-1.34,5.493,2.125.542a15.166,15.166,0,0,0,.852,5.915l-1.874,1.151,2.841,4.855,1.872-1.151a14.506,14.506,0,0,0,4.686,3.554l-.531,2.179,5.357,1.374.531-2.179a14.158,14.158,0,0,0,5.766-.871l1.125,1.919,4.734-2.911-1.125-1.922a14.8,14.8,0,0,0,3.468-4.806Zm-17.575,2.454a9.606,9.606,0,0,1-6.8-11.626,9.335,9.335,0,0,1,11.337-6.975,9.606,9.606,0,0,1,6.8,11.625,9.341,9.341,0,0,1-11.328,6.978Z" transform="translate(-322.473 -393.481)" fill="#206666"/>
      <path id="Caminho_9748" data-name="Caminho 9748" d="M487.019,607.122a2.185,2.185,0,0,0-2.653,1.632,2.248,2.248,0,0,0,1.592,2.72,2.185,2.185,0,0,0,2.653-1.633,2.248,2.248,0,0,0-1.592-2.719Z" transform="translate(-368.386 -438.969)" fill="#183456"/>
      <path id="Caminho_9755" data-name="Caminho 9755" d="M808.03,514.63H600.1a9.6,9.6,0,0,0-9.452,9.692V668.73a9.6,9.6,0,0,0,9.452,9.695H808.03a9.6,9.6,0,0,0,9.452-9.692V524.322A9.6,9.6,0,0,0,808.03,514.63Z" transform="translate(-449.281 -368.487)" fill="#183456"/>
      <rect id="Retângulo_531" data-name="Retângulo 531" width="198.479" height="134.232" transform="translate(155.545 160.718)" fill="#f6e5e5"/>
      <rect id="Retângulo_532" data-name="Retângulo 532" width="86.48" height="26.168" transform="translate(211.307 311.665)" fill="#183456"/>
      <rect id="Retângulo_533" data-name="Retângulo 533" width="138.935" height="6.3" transform="translate(185.317 338.021)" fill="#183456"/>
      <rect id="Retângulo_534" data-name="Retângulo 534" width="86.48" height="7.27" transform="translate(211.307 311.451)" fill="#0f235d"/>
      <path id="Caminho_9756" data-name="Caminho 9756" d="M883.921,587.68V710.767a7.758,7.758,0,0,1-2.186,5.512,7.371,7.371,0,0,1-5.375,2.242h-149.8a7.371,7.371,0,0,1-5.374-2.242A7.757,7.757,0,0,1,719,710.767V587.68Z" transform="translate(-546.91 -423.526)" fill="#f9c001" opacity="0.1"/>
      <path id="Caminho_9757" data-name="Caminho 9757" d="M885.5,610.86v22.776a15.842,15.842,0,0,1-10.4,3.392,18.183,18.183,0,0,1-17.951-18.407,17.957,17.957,0,1,1-35.9,0,17.964,17.964,0,1,1-35.916,0,17.963,17.963,0,1,1-35.914,0,18.183,18.183,0,0,1-17.951,18.407,19.053,19.053,0,0,1-10.4-3.392V610.86Z" transform="translate(-548.486 -441.709)" opacity="0.15"/>
      <path id="Caminho_9758" data-name="Caminho 9758" d="M725.284,535.474H689.37l7.561-19.384h32.606Z" transform="translate(-524.373 -370.618)" fill="#183456"/>
      <path id="Caminho_9759" data-name="Caminho 9759" d="M875.336,535.474H839.42l4.253-19.384h33.08Z" transform="translate(-638.51 -370.618)" fill="#b7c6f7"/>
      <path id="Caminho_9760" data-name="Caminho 9760" d="M1025.4,535.474H989.48L990.9,516.09h33.082Z" transform="translate(-752.654 -370.618)" fill="#183456"/>
      <path id="Caminho_9761" data-name="Caminho 9761" d="M1170.953,535.474h-35.916l-1.417-19.384h33.08Z" transform="translate(-862.295 -370.618)" fill="#b7c6f7"/>
      <path id="Caminho_9762" data-name="Caminho 9762" d="M1312,535.474h-35.914l-4.253-19.384h32.606Z" transform="translate(-967.425 -370.618)" fill="#183456"/>
      <path id="Caminho_9763" data-name="Caminho 9763" d="M839.42,603.307a17.964,17.964,0,1,0,35.916,0V595.07H839.42Z" transform="translate(-638.51 -429.857)" fill="#8a9ddb"/>
      <path id="Caminho_9764" data-name="Caminho 9764" d="M1139.54,595.07v8.237a17.956,17.956,0,1,0,35.9,0V595.07Z" transform="translate(-866.798 -429.857)" fill="#8a9ddb"/>
      <path id="Caminho_9765" data-name="Caminho 9765" d="M689.37,603.307a17.956,17.956,0,1,0,35.9,0V595.07h-35.9Z" transform="translate(-524.373 -429.857)" fill="#1b3f6b"/>
      <path id="Caminho_9766" data-name="Caminho 9766" d="M989.48,603.307a17.964,17.964,0,1,0,35.916,0V595.07H989.48Z" transform="translate(-752.654 -429.857)" fill="#183456"/>
      <path id="Caminho_9767" data-name="Caminho 9767" d="M1289.59,595.07v8.237a17.964,17.964,0,1,0,35.916,0V595.07Z" transform="translate(-980.934 -429.857)" fill="#1b3f6b"/>
      <path id="Caminho_9768" data-name="Caminho 9768" d="M1033.771,732.8v18.407h-1.891V732.8Z" transform="translate(-784.905 -533.275)" fill="#183456"/>
      <path id="Caminho_9769" data-name="Caminho 9769" d="M1033.771,1021.07v18.408h-1.891V1021.07Z" transform="translate(-784.905 -749.636)" fill="#183456"/>
      <path id="Caminho_9770" data-name="Caminho 9770" d="M1121.086,783.615l-12.76,13.084-1.417-1.455,12.759-13.084Z" transform="translate(-841.977 -570.35)" fill="#183456"/>
      <path id="Caminho_9771" data-name="Caminho 9771" d="M917.719,988.955l-12.759,13.084-1.419-1.455L916.3,987.5Z" transform="translate(-687.283 -724.476)" fill="#183456"/>
      <path id="Caminho_9772" data-name="Caminho 9772" d="M1161.906,910.5v1.939H1144.42V910.5Z" transform="translate(-870.51 -666.784)" fill="#183456"/>
      <path id="Caminho_9773" data-name="Caminho 9773" d="M873.644,911.47v.969H856.16V910.5h17.484Z" transform="translate(-651.243 -666.784)" fill="#183456"/>
      <path id="Caminho_9774" data-name="Caminho 9774" d="M1122.585,1000.108l-1.417,1.453-12.288-12.6,1.419-1.453Z" transform="translate(-843.476 -724.488)" fill="#183456"/>
      <path id="Caminho_9775" data-name="Caminho 9775" d="M917.719,795.244,916.3,796.7,903.54,783.615l1.419-1.455Z" transform="translate(-687.283 -570.35)" fill="#183456"/>
      <path id="Caminho_9776" data-name="Caminho 9776" d="M978.792,782.43c-.479,0-.943.491-1.888.967l-4.253-10.176,1.888-.982Z" transform="translate(-739.852 -562.927)" fill="#183456"/>
      <path id="Caminho_9777" data-name="Caminho 9777" d="M1077.474,1023.31l-1.891.969-4.253-10.178c.479,0,.957-.491,1.891-.982Z" transform="translate(-814.913 -743.738)" fill="#183456"/>
      <path id="Caminho_9778" data-name="Caminho 9778" d="M904.5,855.591c-.479.491-.479.982-.957,1.939l-9.923-4.361.957-1.939Z" transform="translate(-679.737 -622.256)" fill="#183456"/>
      <path id="Caminho_9779" data-name="Caminho 9779" d="M1143.421,956.331l-.957,1.936-9.923-4.361c.479-.491.479-.982.943-1.936Z" transform="translate(-861.473 -697.879)" fill="#183456"/>
      <path id="Caminho_9780" data-name="Caminho 9780" d="M904.5,951.936l-9.923,4.361-.957-1.939L903.555,950C904.029,950.967,904.029,951.451,904.5,951.936Z" transform="translate(-679.737 -696.401)" fill="#183456"/>
      <path id="Caminho_9781" data-name="Caminho 9781" d="M1143.459,853.209l-9.926,4.361c0-.491-.479-.982-.943-1.939l9.911-4.361Z" transform="translate(-861.511 -622.286)" fill="#183456"/>
      <path id="Caminho_9782" data-name="Caminho 9782" d="M978.792,1012.169l-4.253,10.176-1.888-.969L976.9,1011.2C977.848,1011.684,978.32,1011.684,978.792,1012.169Z" transform="translate(-739.852 -742.297)" fill="#183456"/>
      <path id="Caminho_9783" data-name="Caminho 9783" d="M1078.972,771.252l-3.782,10.176c-.479-.491-.957-.491-1.891-.982l4.253-10.176Z" transform="translate(-816.412 -561.449)" fill="#183456"/>
      <path id="Caminho_9784" data-name="Caminho 9784" d="M1176.01,888.78l8.98,32.952,8.033-8.237,7.561,8.237,7.089-7.267-7.561-8.239,7.561-8.237Z" transform="translate(-894.539 -650.22)" fill="#183456"/>
      <path id="Caminho_9785" data-name="Caminho 9785" d="M1004.359,891.028H978.51l-3.59-19.3h32.695v15.98a3.367,3.367,0,0,1-.956,2.352,3.2,3.2,0,0,1-2.3.966Zm-24.782-1.33h24.782a1.969,1.969,0,0,0,1.939-1.988V873.06H976.471Z" transform="translate(-741.578 -637.542)" fill="#dba903"/>
      <path id="Caminho_9788" data-name="Caminho 9788" d="M1088.011,967.96H1084.7a.665.665,0,0,1,0-1.33h3.313a.665.665,0,0,1,0,1.33Z" transform="translate(-824.589 -708.926)" fill="#dba903"/>
      <path id="Caminho_9789" data-name="Caminho 9789" d="M1030.907,967.96h-8.569a.665.665,0,0,1,0-1.33h8.566a.665.665,0,0,1,0,1.33Z" transform="translate(-777.154 -708.926)" fill="#dba903"/>
      <path id="Caminho_9790" data-name="Caminho 9790" d="M968.155,862.828a.654.654,0,0,1-.639-.557l-.45-2.771h-1.4a.665.665,0,0,1,0-1.33h2.5l.632,3.885a.676.676,0,0,1-.111.5.644.644,0,0,1-.422.269A.536.536,0,0,1,968.155,862.828Z" transform="translate(-734.048 -627.478)" fill="#dba903"/>
      <path id="Caminho_9791" data-name="Caminho 9791" d="M1011.094,877.719h-5.849V871.73h-7.14v5.989h-4.548V871.73h-7.125v5.989H979.52l1.364,7.321h5.548v5.986h7.14V885.05h4.548v5.984h7.125V885.05h5.84Zm-11.682-4.663h4.548v4.663h-4.548Zm4.548,5.989v4.663h-4.548v-4.663Zm-16.223-5.989h4.548v4.663h-4.548Zm4.548,5.989v4.663h-4.548v-4.663Zm-10.318,4.663-.869-4.663h5.345v4.663Zm10.318,5.986h-4.548V885.05h4.548Zm1.3-5.986v-4.663h4.548v4.663Zm10.383,5.984h-4.548V885.05h4.548Zm5.828-5.984h-4.547v-4.663h4.547Z" transform="translate(-745.078 -637.542)" fill="#dba903"/>
      <path id="Caminho_9792" data-name="Caminho 9792" d="M981.12,951.594h-2.013a3.217,3.217,0,0,1-2.406-1.1,3.338,3.338,0,0,1,2.528-5.554.665.665,0,0,1,0,1.33,2.051,2.051,0,0,0-2.058,1.792,2,2,0,0,0,.493,1.541,1.934,1.934,0,0,0,1.436.66h2.013a.665.665,0,0,1,0,1.33Z" transform="translate(-742.296 -692.599)" fill="#dba903"/>
      <ellipse id="Elipse_1168" data-name="Elipse 1168" cx="1.946" cy="1.995" rx="1.946" ry="1.995" transform="translate(227.729 229.336)" fill="#e3ba42"/>
      <path id="Caminho_9793" data-name="Caminho 9793" d="M602.975,1449.516H201.137a1.587,1.587,0,0,1-1.491-1.087,1.65,1.65,0,0,1,.5-1.8l60.181-49.3a7.329,7.329,0,0,1,4.639-1.639H539.147a7.322,7.322,0,0,1,4.636,1.64l60.181,49.3a1.648,1.648,0,0,1,.507,1.806A1.585,1.585,0,0,1,602.975,1449.516Z" transform="translate(-151.794 -1029.777)" fill="#183456" opacity="0.2"/>
      <path id="Caminho_9794" data-name="Caminho 9794" d="M611.388,1372.31H212.64l61.832-50.65a7.118,7.118,0,0,1,4.5-1.59H545.056a7.1,7.1,0,0,1,4.5,1.59Z" transform="translate(-161.746 -972.716)" fill="#183456"/>
      <path id="Caminho_9795" data-name="Caminho 9795" d="M697.452,1381.709H377.75l45.009-43.179H652.441Z" transform="translate(-287.338 -986.646)" fill="#183456"/>
      <path id="Caminho_9796" data-name="Caminho 9796" d="M705.991,1387.406H394.13l43.905-41.326H662.083Z" transform="translate(-299.797 -992.343)" fill="#fff"/>
      <path id="Caminho_9797" data-name="Caminho 9797" d="M212.59,1532.92H611.338v10.063a3.472,3.472,0,0,1-3.427,3.515H216.017A3.471,3.471,0,0,1,212.59,1543V1532.94Z" transform="translate(-161.708 -1133.326)" fill="#183456"/>
      <line id="Linha_13" data-name="Linha 13" x2="398.76" transform="translate(50.882 404.878)" fill="none" stroke="#fff" stroke-miterlimit="10" stroke-width="0.97"/>
      <rect id="Retângulo_535" data-name="Retângulo 535" width="61.03" height="7.145" rx="3.572" transform="translate(127.094 401.707)" fill="#0b1b2e"/>
      <rect id="Retângulo_536" data-name="Retângulo 536" width="61.03" height="6.342" rx="3.171" transform="translate(127.094 402.51)" fill="#224c7e"/>
      <path id="Caminho_9798" data-name="Caminho 9798" d="M1590.23,1365.824l22.664,20.547h12.132v-1.637l-34.8-20.545Z" transform="translate(-1209.617 -1007.115)" fill="#1f3881"/>
      <path id="Caminho_9799" data-name="Caminho 9799" d="M1590.23,1364.19l22.664,20.545h12.132l-25.186-20.545Z" transform="translate(-1209.617 -1007.137)" fill="#fdeeff"/>
      <ellipse id="Elipse_1169" data-name="Elipse 1169" cx="9.533" cy="4.256" rx="9.533" ry="4.256" transform="translate(94.333 362.536)" fill="#fff"/>
      <path id="Caminho_9800" data-name="Caminho 9800" d="M419.415,1394.666c0,1.472-2.989,2.665-6.678,2.665s-6.678-1.193-6.678-2.665,2.989-2.666,6.687-2.666S419.415,1393.2,419.415,1394.666Z" transform="translate(-308.872 -1028.211)" fill="#183456"/>
      <path id="Caminho_9801" data-name="Caminho 9801" d="M422.635,1397.58c0,.505-1.032.918-2.3.918s-2.3-.412-2.3-.918,1.032-.92,2.3-.92S422.635,1397.073,422.635,1397.58Z" transform="translate(-317.977 -1031.754)" fill="#fff"/>
      <path id="Caminho_9802" data-name="Caminho 9802" d="M524.849,1219.7l-56.375-31.906c-1.869-.876-4.617-1.7-6.462-.557l-39.051,23.13c-.957.564-4.047,2.547-1.972,3.7,6.108,3.407,50.77,29.567,56.964,33.028a8.511,8.511,0,0,0,4.691.736,11.576,11.576,0,0,0,5.081-1.551l36.608-21.76c1.324-.837,2.058-1.753,2.128-2.631S526.007,1220.237,524.849,1219.7Z" transform="translate(-319.692 -873.378)" fill="#d7eeff" fill-rule="evenodd" opacity="0.12"/>
      <path id="Caminho_9803" data-name="Caminho 9803" d="M608.955,1187.98l55.6,33.138-1.86,2.361-55.26-34.6Z" transform="translate(-462.053 -874.705)" fill="#92c5ff" fill-rule="evenodd"/>
      <path id="Caminho_9804" data-name="Caminho 9804" d="M495.328,1203.635c-2.252,3.095-4.84,9.918-2.942,12.272l-55.6-33.134c-4.385-3.357.337-12.318,3.83-13.312l37.153-22,55.607,33.134-3,2.425Z" transform="translate(-330.899 -843.862)" fill-rule="evenodd" fill="url(#linear-gradient)"/>
      <path id="Caminho_9805" data-name="Caminho 9805" d="M678.584,1314.537l35.808-21.107-.036,8.143-34.851,21.792c-2.673,1.6-4.258.574-4.548-1.293A8.4,8.4,0,0,1,678.584,1314.537Z" transform="translate(-513.365 -953.897)" fill="#f1f8ff" fill-rule="evenodd"/>
      <path id="Caminho_9806" data-name="Caminho 9806" d="M669.488,1308.64a11.364,11.364,0,0,1,3.865-4.2l37.158-21.993v2.962l-1.515.893-35.638,21.107a6.762,6.762,0,0,0-2.958,5.255,2.18,2.18,0,0,0,.878,1.964,2.013,2.013,0,0,0,2.1-.216l35.638-21.107,1.515-.893v2.96l-37.153,22a3.81,3.81,0,0,1-3.882.4c-1.01-.579-1.611-1.838-1.615-3.613A11.683,11.683,0,0,1,669.488,1308.64Z" transform="translate(-508.027 -945.59)" fill="#d7e9ff" fill-rule="evenodd"/>
      <path id="Caminho_9807" data-name="Caminho 9807" d="M491.9,1154.26,453.57,1175.3a.663.663,0,0,0,.285,1.053c4.014,2.238,47.39,27.626,51.459,29.9a5.639,5.639,0,0,0,3.08.491,8.193,8.193,0,0,0,3.351-1.021l34.987-20.359-3.9-2.351Z" transform="translate(-344.894 -849.186)" fill="#92c5ff" fill-rule="evenodd" opacity="0.5"/>
      <path id="Caminho_9808" data-name="Caminho 9808" d="M608.955,1120.87l55.6,33.136-1.86,2.361-55.26-34.6Z" transform="translate(-462.053 -824.349)" fill="#92c5ff" fill-rule="evenodd"/>
      <path id="Caminho_9809" data-name="Caminho 9809" d="M495.328,1136.522c-2.252,3.1-4.84,9.92-2.942,12.272l-55.6-33.133c-4.385-3.357.337-12.316,3.83-13.312l37.153-22,55.607,33.133-3,2.422Z" transform="translate(-330.899 -793.533)" fill-rule="evenodd" fill="url(#linear-gradient-2)"/>
      <path id="Caminho_9810" data-name="Caminho 9810" d="M678.584,1247.417l35.808-21.107-.036,8.143-34.851,21.795c-2.673,1.6-4.258.572-4.548-1.293A8.4,8.4,0,0,1,678.584,1247.417Z" transform="translate(-513.365 -903.528)" fill="#f1f8ff" fill-rule="evenodd"/>
      <path id="Caminho_9811" data-name="Caminho 9811" d="M669.488,1241.53a11.347,11.347,0,0,1,3.865-4.2l37.158-21.993v2.96l-1.515.9L673.359,1240.3a6.13,6.13,0,0,0-2.09,2.263,6.373,6.373,0,0,0-.869,2.99,2.139,2.139,0,0,0,.878,1.951,2.045,2.045,0,0,0,2.1-.216l35.638-21.107,1.515-.894v2.963l-37.153,21.993a3.812,3.812,0,0,1-3.882.4c-1.01-.577-1.611-1.84-1.615-3.615A11.629,11.629,0,0,1,669.488,1241.53Z" transform="translate(-508.027 -895.233)" fill="#d7e9ff" fill-rule="evenodd"/>
      <path id="Caminho_9812" data-name="Caminho 9812" d="M707.885,1318.664v8.146l-2.633-1.617-3.37,5.1v-8.023a.8.8,0,0,1-.034-.177c-.172-2.209-2.013-4.884-3.4-5.277l6.139-3.711c1.477.419,3.327,3.264,3.282,5.557Z" transform="translate(-531.28 -968.843)" fill="#dba903" fill-rule="evenodd"/>
      <path id="Caminho_9813" data-name="Caminho 9813" d="M1479.2,584.29h-.309v53.976h.036c.369,10.261,3.887,20.042,9.978,28.993V609.606A55.743,55.743,0,0,1,1479.2,584.29Z" transform="translate(-1124.926 -421.409)" fill="#a6afbb" fill-rule="evenodd" opacity="0.5"/>
      <path id="Caminho_9814" data-name="Caminho 9814" d="M1632.621,850.053c-40.729-4.472-74.85-20.7-92.8-42.8V737.76c17.951,22.089,52.074,38.324,92.8,42.8Z" transform="translate(-1170.635 -534.149)" fill-rule="evenodd" opacity="0.5" fill="url(#linear-gradient-3)"/>
      <path id="Caminho_9815" data-name="Caminho 9815" d="M1514.89,804.675c-9.318-8.345-16.118-17.867-19.72-28.109V743.4c3.59,10.242,10.4,19.75,19.72,28.107Z" transform="translate(-1137.309 -540.901)" fill="#183456" fill-rule="evenodd" opacity="0.5"/>
      <path id="Caminho_9816" data-name="Caminho 9816" d="M1684.8,931.95l-1.7,19.546,16.2.719Z" transform="translate(-1276.431 -682.731)" fill="#fff" fill-rule="evenodd" opacity="0.5"/>
      <path id="Caminho_9817" data-name="Caminho 9817" d="M1661.381,938.727c-6.525-4.081-11.489-13.793-11.094-21.694s6.005-11,12.527-6.919,11.489,13.793,11.094,21.7S1667.9,942.809,1661.381,938.727Zm-.168,3.348c8.049,5.039,14.969,1.212,15.457-8.536s-5.639-21.736-13.688-26.772-14.971-1.227-15.459,8.536S1653.162,937.039,1661.214,942.075Z" transform="translate(-1249.349 -661.986)" fill="#fff" fill-rule="evenodd" opacity="0.5"/>
      <path id="Caminho_9818" data-name="Caminho 9818" d="M1638.329,1044.063a1.318,1.318,0,0,1,1.149,1.458,1.3,1.3,0,0,1-1.422,1.178,157.08,157.08,0,0,1-48.539-13.008c-14.361-6.627-26.139-15.266-34.265-25.267a1.346,1.346,0,0,1,.168-1.863,1.268,1.268,0,0,1,1.817.172c7.867,9.68,19.337,18.081,33.343,24.543A154.941,154.941,0,0,0,1638.329,1044.063Z" transform="translate(-1182.785 -738.293)" fill="#fff" fill-rule="evenodd" opacity="0.5"/>
      <path id="Caminho_9819" data-name="Caminho 9819" d="M1584.69,1029.5a.939.939,0,0,1,.379,1.253.894.894,0,0,1-1.222.389,101.385,101.385,0,0,1-15.318-10.063,75.34,75.34,0,0,1-11.809-11.692.945.945,0,0,1,.128-1.307.89.89,0,0,1,1.274.131,73.64,73.64,0,0,0,11.52,11.408A99.724,99.724,0,0,0,1584.69,1029.5Z" transform="translate(-1183.972 -739.681)" fill="#fff" fill-rule="evenodd" opacity="0.5"/>
      <path id="Caminho_9820" data-name="Caminho 9820" d="M571.165,1012.4l35.488-21.146-8.238-40.1v-.044h0v-.052h0v-.039h0v-.029h0v-.015h0v-.032h0v-.017h0v-.015h0V950.9h0v-.012h0v-.017h0v-.015h0v-.015h0v-.017h0v-.012h0v-.017h0v-.015h0v-.015h0v-.017h0v-.015h0v-.017h0v-.017h0v-.017h0v-.015h0l-.012-.017h0l-.012-.015v-.015h0V950.6l-.014-.012h-.026l-.014-.012H598.3a.571.571,0,0,0-.529-.027L562.29,971.7C563.032,970.7,567.752,1000.578,571.165,1012.4Z" transform="translate(-427.709 -696.226)" fill="#224c7e" fill-rule="evenodd"/>
      <path id="Caminho_9821" data-name="Caminho 9821" d="M614.5,953.18c-14.9,17.514-32.682,28.33-30.945,43.532l3.7,17.713,35.488-21.146Z" transform="translate(-443.795 -698.246)" fill="#0094f2" fill-rule="evenodd" opacity="0.3"/>
      <path id="Caminho_9822" data-name="Caminho 9822" d="M601.43,953.772l.8,40.668,37.221-22.032-.11-40.317Z" transform="translate(-457.481 -682.415)" fill="#f1f3ff" fill-rule="evenodd"/>
      <path id="Caminho_9823" data-name="Caminho 9823" d="M601.848,1020.444l-.778-.464.11,40.317.778.462Z" transform="translate(-457.208 -748.587)" fill="#bcdbf1" fill-rule="evenodd"/>
      <path id="Caminho_9824" data-name="Caminho 9824" d="M639.068,930.664l-.783-.464L601.07,952.235l.778.464Z" transform="translate(-457.208 -681.398)" fill="#d7e8f8" fill-rule="evenodd"/>
      <path id="Caminho_9825" data-name="Caminho 9825" d="M610,998.014v2.545l34.451-20.4v-2.54Zm-.077-29.231v2.543l34.451-20.4v-2.54l-34.447,20.393Zm.012,4.172,34.444-20.4V955.1l-34.437,20.4v-2.543Zm0,4.172L644.4,956.74v2.543l-34.466,20.393v-2.54Zm0,4.172L644.4,960.917v2.543l-34.449,20.4v-2.543Zm0,4.172L644.4,965.092v2.543l-34.449,20.393v-2.54Zm0,4.172,34.449-20.4v2.543L609.93,992.185v-2.54Zm.012,4.172,34.449-20.4v2.543l-34.449,20.393Z" transform="translate(-463.939 -694.754)" fill="#bcdbf1" fill-rule="evenodd"/>
      <path id="Caminho_9826" data-name="Caminho 9826" d="M610.95,998.251l-8.461,30.507h0a3.7,3.7,0,0,1-.519.982l35.485-21.146a1.444,1.444,0,0,0,.522-.969l8.461-30.51h0l1.587-5.719a1.525,1.525,0,0,0-.306-1.036c-1.474,1.377-9.334,6.315-10.794,7.191-2.429,1.964-2.513,4.364-6.194,8.367a6.365,6.365,0,0,1-1.822,1.495Z" transform="translate(-457.892 -711.153)" fill="#224c7e" fill-rule="evenodd"/>
      <path id="Caminho_9827" data-name="Caminho 9827" d="M578.451,1046.059a.978.978,0,0,0-.175-.13c-.278-.162-.527-.093-.608.189l-8.377,30.259-8.231-40.1a1.421,1.421,0,0,0-.6-.9.775.775,0,0,0-.17-.076c-.34-.091-.541.206-.445.656l8.286,40.366a6.183,6.183,0,0,0,.5,1.581,1.815,1.815,0,0,0,.668.771.57.57,0,0,0,.658.017,1.819,1.819,0,0,0,.479-.943l8.451-30.507A1.359,1.359,0,0,0,578.451,1046.059Z" transform="translate(-425.831 -760.038)" fill="#0f235d" fill-rule="evenodd"/>
      <path id="Caminho_9828" data-name="Caminho 9828" d="M652.971,985.1l-17.9,10.667c.467-.245,1.18.839,1.058,1.35L654.2,986.346a11.05,11.05,0,0,0,1.508-1c2.568-2.081,3.782-4.933,5.459-7.24a7.332,7.332,0,0,1,1.436-1.495c.445-.245.682-.38.6-.341l9.976-6.023a1.514,1.514,0,0,0-.306-1.026c-.189-.206-.479-.459-.754-.314l-9.993,6.033c.079-.039-.158.093-.6.341a7.278,7.278,0,0,0-1.436,1.495c-1.776,2.44-3.047,5.184-5.929,7.513a9.573,9.573,0,0,1-1.192.807Z" transform="translate(-483.07 -710.362)" fill="#183456" fill-rule="evenodd"/>
      <path id="Caminho_9829" data-name="Caminho 9829" d="M1395.311,837.436l-.081,29.629c0,2.165-1.513,3.046-3.351,1.964l-27.022-16a7.591,7.591,0,0,1-3.327-5.91l.113-40.987c0-2.165,1.515-3.043,3.351-1.963l17.649,10.451Z" transform="translate(-1035.656 -586.092)" fill="#f9c001" fill-rule="evenodd"/>
      <path id="Caminho_9830" data-name="Caminho 9830" d="M1377.309,857.445l13.138,7.778c.557.331,1,.074,1-.567V862.67a2.261,2.261,0,0,0-.993-1.767l-13.14-7.778c-.541-.322-.984-.047-.984.594v1.988A2.22,2.22,0,0,0,1377.309,857.445Z" transform="translate(-1046.913 -623.531)" fill="#fff" fill-rule="evenodd" opacity="0.7"/>
      <path id="Caminho_9831" data-name="Caminho 9831" d="M1402.088,904.842c.381.226.689.044.692-.4v-1.4a1.564,1.564,0,0,0-.687-1.227l-25.131-14.871c-.38-.226-.692-.047-.692.4v1.4a1.564,1.564,0,0,0,.687,1.227Z" transform="translate(-1046.868 -648.894)" fill="#fff" fill-rule="evenodd" opacity="0.7"/>
      <path id="Caminho_9832" data-name="Caminho 9832" d="M1402.088,933.291c.381.228.689.047.692-.4v-1.4a1.564,1.564,0,0,0-.687-1.227l-25.131-14.871c-.38-.226-.692-.044-.692.405v1.4a1.564,1.564,0,0,0,.687,1.227Z" transform="translate(-1046.868 -670.249)" fill="#fff" fill-rule="evenodd" opacity="0.7"/>
      <path id="Caminho_9833" data-name="Caminho 9833" d="M1402.088,961.729c.381.226.689.044.692-.405v-1.4a1.56,1.56,0,0,0-.687-1.227l-25.131-14.873c-.38-.223-.692-.044-.692.405v1.4a1.567,1.567,0,0,0,.687,1.227Z" transform="translate(-1046.868 -691.591)" fill="#fff" fill-rule="evenodd" opacity="0.7"/>
      <path id="Caminho_9834" data-name="Caminho 9834" d="M1402.088,991.261c.381.228.689.047.692-.4v-1.4a1.564,1.564,0,0,0-.687-1.227l-25.131-14.871c-.38-.226-.692-.044-.692.405v1.4a1.564,1.564,0,0,0,.687,1.227Z" transform="translate(-1046.868 -713.759)" fill="#fff" fill-rule="evenodd" opacity="0.7"/>
      <path id="Caminho_9835" data-name="Caminho 9835" d="M1459.523,876.718c-1.915-1.833-6.67-5.559-10.385-9.061-3.32-3.129-3.322-4.793-3.087-8.617l.689-11.17.151.088,12.642,22.786Z" transform="translate(-1099.88 -619.556)" fill="#ffd139" fill-rule="evenodd" opacity="0.5"/>
      <path id="Caminho_9836" data-name="Caminho 9836" d="M1462.287,871.023l-9.356-5.542a7.617,7.617,0,0,1-3.351-5.917l.031-11.344Z" transform="translate(-1102.631 -619.868)" fill="#dba903" fill-rule="evenodd"/>
      <path id="Caminho_9837" data-name="Caminho 9837" d="M1684.294,672.324a7.735,7.735,0,0,1,4.1,2.865c-.013-.3-.027.836-.017-.923,0-.621,1.244-6.99,1.938-7.514a24.016,24.016,0,0,1,2.077-1.445,5.079,5.079,0,0,1,3.959-.449,10.075,10.075,0,0,1,5.625,4.981,23.607,23.607,0,0,1,2.341,8.95c0,1.778,0,.615-.025.919a4.64,4.64,0,0,1,4.2-.534c1.89.534,4.264,2.529,5.737,5.088a18.669,18.669,0,0,1,2.412,9.1,13.188,13.188,0,0,1-1.5,6.446,12.649,12.649,0,0,1-4.111,3.931c-3.751,2.48-10.991-3.348-14.8-4.481l-12.088-3.583a10.112,10.112,0,0,1-5.546-5.068,18.388,18.388,0,0,1-2.215-8.908,47.449,47.449,0,0,1,1.35-6.978C1680.059,672.52,1682.423,671.8,1684.294,672.324Z" transform="translate(-1276.755 -470.913)" fill="#4577b4" fill-rule="evenodd"/>
      <path id="Caminho_9838" data-name="Caminho 9838" d="M1677.124,677.285a7.731,7.731,0,0,1,4.1,2.865c-.015-.306-.029.834-.019-.923s.916-5.863,2.356-7.565a5.261,5.261,0,0,1,5.619-1.851,10.075,10.075,0,0,1,5.623,4.983,23.623,23.623,0,0,1,2.343,8.948c0,1.776,0,.617-.025.919a4.639,4.639,0,0,1,4.2-.532c1.89.534,4.262,2.527,5.737,5.088a18.643,18.643,0,0,1,2.412,9.1,11.947,11.947,0,0,1-2.387,7.745,5.279,5.279,0,0,1-5.762,1.78l-12.264-3.634q-6.074-1.8-12.089-3.583a10.114,10.114,0,0,1-5.546-5.068,18.4,18.4,0,0,1-2.215-8.908,11.85,11.85,0,0,1,2.351-7.536A5.544,5.544,0,0,1,1677.124,677.285Z" transform="translate(-1270.968 -474.883)" fill="#183456" fill-rule="evenodd"/>
      <path id="Caminho_9839" data-name="Caminho 9839" d="M1716.49,741.17l-3.76-1.159,5.912,8.979,5.951-5.319-3.758-1.161.012-10.11-4.346-1.341Z" transform="translate(-1306.098 -524.13)" fill="#fff" fill-rule="evenodd"/>
      <path id="Caminho_9840" data-name="Caminho 9840" d="M1765.865,753.05l3.758,1.159-5.912-8.979-5.951,5.319,3.758,1.161-.01,10.111,4.344,1.341Z" transform="translate(-1342.445 -535.452)" fill="#fff" fill-rule="evenodd"/>
      <path id="Caminho_9841" data-name="Caminho 9841" d="M670.07,766.836l.053,18.82c0,1.374.957,1.934,2.128,1.242l17.161-10.146A4.815,4.815,0,0,0,691.522,773l-.072-26.016c0-1.372-.957-1.932-2.125-1.242l-11.211,6.627Z" transform="translate(-509.693 -542.596)" fill="#8a9ddb" fill-rule="evenodd"/>
      <path id="Caminho_9842" data-name="Caminho 9842" d="M719.18,779.476l-8.344,4.938c-.354.211-.634.047-.637-.358v-1.261a1.434,1.434,0,0,1,.63-1.122l8.344-4.936c.345-.2.625-.029.625.376v1.264A1.422,1.422,0,0,1,719.18,779.476Z" transform="translate(-540.218 -566.262)" fill="#c6e7ff" fill-rule="evenodd"/>
      <path id="Caminho_9843" data-name="Caminho 9843" d="M680.5,807.526c-.239.145-.438.029-.438-.245v-.893a.986.986,0,0,1,.436-.775l15.952-9.444c.24-.145.438-.029.441.245v.893a.987.987,0,0,1-.438.773Z" transform="translate(-517.292 -580.838)" fill="#c6e7ff" fill-rule="evenodd"/>
      <path id="Caminho_9844" data-name="Caminho 9844" d="M670.064,791.694c1.223-1.166,4.234-3.532,6.594-5.755,2.109-1.988,2.111-3.046,1.96-5.473l-.443-7.086-.1.056-8.03,14.481Z" transform="translate(-509.678 -563.733)" fill-rule="evenodd" opacity="0.5" fill="url(#linear-gradient-4)"/>
      <path id="Caminho_9845" data-name="Caminho 9845" d="M670.07,788.081l5.943-3.517a4.829,4.829,0,0,0,2.123-3.758l-.021-7.206Z" transform="translate(-509.693 -563.925)" fill="#b7c6f7" fill-rule="evenodd"/>
      <path id="Caminho_9846" data-name="Caminho 9846" d="M706.042,842.391a11.03,11.03,0,0,0,3.274-9.611c-.641-3.23-3.15-4.187-5.6-2.116a11.032,11.032,0,0,0-3.274,9.614C701.082,843.51,703.591,844.462,706.042,842.391Z" transform="translate(-532.68 -605.939)" fill="#c6e7ff" fill-rule="evenodd"/>
      <path id="Caminho_9847" data-name="Caminho 9847" d="M712.447,849.61l.665.489-4.82,4.744-1.812-4.884.888.523,1.187,1.728Z" transform="translate(-537.388 -621.048)" fill="#1b3f6b" fill-rule="evenodd"/>
      <path id="Caminho_9848" data-name="Caminho 9848" d="M575.27,1431.335c-4.911,0-8.581-1.917-8.581-4.288h0v-1.814h.754c1.314-1.487,4.234-2.474,7.827-2.474s6.513,1.014,7.843,2.474h.785v1.814h0C583.9,1429.419,580.23,1431.335,575.27,1431.335Zm.048-5.674c-1.587,0-2.678.606-2.678,1.387,0,.736,1.091,1.387,2.678,1.387,1.539,0,2.633-.6,2.633-1.387S576.857,1425.661,575.318,1425.661Z" transform="translate(-431.056 -1050.203)" fill="#64acac"/>
      <path id="Caminho_9849" data-name="Caminho 9849" d="M514.05,1431.766l.01,0h-.01v-1.814h4.8v1.72l17.666,9.935h3.222v1.814h0l-3.267.982Z" transform="translate(-391.015 -1055.628)" fill="#64acac"/>
      <path id="Caminho_9850" data-name="Caminho 9850" d="M492.71,1464.9h.788c1.328-1.472,4.229-2.471,7.8-2.471s6.513,1.011,7.843,2.471h.785v1.814h0c0,2.371-3.669,4.288-8.628,4.288-4.911,0-8.58-1.917-8.58-4.288h0Zm8.628,3.191c1.539,0,2.633-.606,2.633-1.389s-1.091-1.387-2.633-1.387c-1.587,0-2.678.606-2.678,1.387,0,.744,1.091,1.4,2.678,1.4Z" transform="translate(-374.783 -1080.137)" fill="#64acac"/>
      <path id="Caminho_9851" data-name="Caminho 9851" d="M527.626,1419.658c0-2.371-3.669-4.287-8.628-4.287-4.911,0-8.581,1.841-8.581,4.287,0,2.371,3.669,4.288,8.581,4.288C523.956,1423.946,527.626,1422.029,527.626,1419.658Zm-26.534-1.664-3.274.957,22.419,12.635,3.272-.982Zm15.275,1.664c0-.783,1.091-1.387,2.678-1.387,1.539,0,2.633.6,2.633,1.387s-1.091,1.387-2.633,1.387C517.458,1421.044,516.367,1420.389,516.367,1419.658Zm-6.448,9.734c0-2.371-3.669-4.288-8.628-4.288-4.911,0-8.581,1.917-8.581,4.288s3.66,4.3,8.581,4.3C506.25,1433.687,509.919,1431.762,509.919,1429.392Zm-11.249,0c0-.781,1.091-1.387,2.678-1.387,1.539,0,2.633.606,2.633,1.387s-1.091,1.387-2.633,1.387c-1.6,0-2.688-.655-2.688-1.387Z" transform="translate(-374.783 -1044.627)" fill="#206666"/>
      <path id="Caminho_9852" data-name="Caminho 9852" d="M1335.36,1135.315v-8.08c0-6.975,4.787-15.462,10.668-18.947h0c5.893-3.488,10.67-.66,10.67,6.317v8.08" transform="translate(-1015.749 -813.866)" fill="none" stroke="#154b4b" stroke-linecap="round" stroke-miterlimit="10" stroke-width="2.91"/>
      <path id="Caminho_9853" data-name="Caminho 9853" d="M1334.086,1180.988l-42.1,24.922v-60.426l42.1-24.924Z" transform="translate(-982.76 -823.434)" fill="#58a6a6"/>
      <path id="Caminho_9854" data-name="Caminho 9854" d="M1484.788,1202.489l-7.068-.36V1141.7l7.068.361Z" transform="translate(-1124.036 -839.651)" fill="#154b4b"/>
      <path id="Caminho_9855" data-name="Caminho 9855" d="M1470.228,1186.086l-2.358-5.218V1120.44l2.358,5.218Z" transform="translate(-1116.544 -823.637)" fill="#206666"/>
      <path id="Caminho_9856" data-name="Caminho 9856" d="M1373.474,1204.176,1331.38,1229.1v-60.428l42.094-24.921Z" transform="translate(-1012.722 -839.671)" fill="#206666"/>
      <path id="Caminho_9857" data-name="Caminho 9857" d="M1323.888,1290.295l-2.357-5.017V1224.85l2.357,5.017Z" transform="translate(-1005.229 -900.866)" fill="#154b4b"/>
      <path id="Caminho_9858" data-name="Caminho 9858" d="M1299.06,1283.55l-7.07-.565V1222.56l7.07.562Z" transform="translate(-982.76 -900.297)" fill="#206666"/>
      <path id="Caminho_9859" data-name="Caminho 9859" d="M1373.416,1243.379a1.381,1.381,0,0,1-.608,1.08c-.335.2-.608.039-.608-.358a1.389,1.389,0,0,1,.608-1.082C1373.145,1242.82,1373.416,1242.982,1373.416,1243.379Z" transform="translate(-1043.772 -916.351)" fill="none" stroke="#853df8" stroke-linecap="round" stroke-miterlimit="10" stroke-width="2.91"/>
      <path id="Caminho_9860" data-name="Caminho 9860" d="M1462.558,1191.91a1.391,1.391,0,0,1-.608,1.082c-.337.2-.61.037-.61-.361a1.386,1.386,0,0,1,.61-1.082C1462.285,1191.35,1462.558,1191.512,1462.558,1191.91Z" transform="translate(-1111.577 -877.711)" fill="none" stroke="#853df8" stroke-linecap="round" stroke-miterlimit="10" stroke-width="2.91"/>
      <path id="Caminho_9861" data-name="Caminho 9861" d="M1374.74,1158.531v-8.08c0-6.977,4.787-15.462,10.668-18.948h0c5.893-3.49,10.67-.66,10.67,6.315v8.08" transform="translate(-1045.704 -831.288)" fill="none" stroke="#154b4b" stroke-linecap="round" stroke-miterlimit="10" stroke-width="2.91"/>
      <path id="Caminho_9862" data-name="Caminho 9862" d="M1410.962,1414.226h.479l24.174-14.311a2.66,2.66,0,0,1,2.451.1l14.076,8.345a1.715,1.715,0,0,1,.2.14h.4v.717a.762.762,0,0,1-.424.594l-24.243,14.353a2.66,2.66,0,0,1-2.451-.1l-14.078-8.345a1.056,1.056,0,0,1-.6-.776Z" transform="translate(-1073.247 -1032.775)" fill="#9c60fa"/>
      <path id="Caminho_9863" data-name="Caminho 9863" d="M1428.123,1421.328l24.243-14.353c.629-.373.55-1.023-.177-1.453l-14.076-8.345a2.667,2.667,0,0,0-2.451-.105l-24.243,14.353c-.63.373-.551,1.024.175,1.453l14.078,8.345A2.661,2.661,0,0,0,1428.123,1421.328Z" transform="translate(-1073.281 -1030.631)" fill="#183456"/>
      <path id="Caminho_9864" data-name="Caminho 9864" d="M1496.285,1410.07a.554.554,0,0,0,.28-.079l5.313-3.146a.583.583,0,0,0,.2-.785.553.553,0,0,0-.766-.208L1496,1409a.583.583,0,0,0-.26.648A.565.565,0,0,0,1496.285,1410.07Z" transform="translate(-1137.731 -1037.385)" fill="#fff"/>
      <path id="Caminho_9865" data-name="Caminho 9865" d="M1540.021,1430.437a.515.515,0,0,0,.256-.069l3.765-2.231a.532.532,0,0,0,.015-.927.5.5,0,0,0-.527.019l-3.765,2.231a.528.528,0,0,0-.249.594.512.512,0,0,0,.5.388Z" transform="translate(-1171.028 -1053.511)" fill="#fff"/>
      <path id="Caminho_9866" data-name="Caminho 9866" d="M1515.275,1444.747a.493.493,0,0,0,.256-.071l3.765-2.228a.532.532,0,0,0,.015-.927.5.5,0,0,0-.527.019l-3.765,2.228a.533.533,0,0,0-.187.717A.505.505,0,0,0,1515.275,1444.747Z" transform="translate(-1152.213 -1064.309)" fill="#fff"/>
      <path id="Caminho_9867" data-name="Caminho 9867" d="M1490.483,1459.1a.52.52,0,0,0,.256-.071l3.765-2.231a.532.532,0,0,0,.188-.716.5.5,0,0,0-.7-.193l-3.767,2.231a.531.531,0,0,0-.242.592.515.515,0,0,0,.5.39Z" transform="translate(-1133.352 -1075.145)" fill="#fff"/>
      <path id="Caminho_9868" data-name="Caminho 9868" d="M1465.7,1473.357a.511.511,0,0,0,.256-.069l3.767-2.231a.532.532,0,0,0,.015-.927.5.5,0,0,0-.527.019l-3.767,2.229a.531.531,0,0,0-.242.592.515.515,0,0,0,.5.39Z" transform="translate(-1114.504 -1085.897)" fill="#fff"/>
      <path id="Caminho_9869" data-name="Caminho 9869" d="M1527.236,1439.843a.47.47,0,0,0,.239-.069l9.251-5.476a.518.518,0,0,0,.158-.681.491.491,0,0,0-.654-.2l-9.251,5.476a.516.516,0,0,0-.233.569.5.5,0,0,0,.472.383Z" transform="translate(-1161.317 -1058.202)" fill="#fff"/>
      <path id="Caminho_9870" data-name="Caminho 9870" d="M1503.239,1463.807a.483.483,0,0,0,.239-.068l3.653-2.162a.517.517,0,0,0,.009-.9.487.487,0,0,0-.507.012l-3.653,2.162a.516.516,0,0,0-.233.569.5.5,0,0,0,.472.383Z" transform="translate(-1143.061 -1078.767)" fill="#fff"/>
      <path id="Caminho_9871" data-name="Caminho 9871" d="M1476.089,1482.412a.471.471,0,0,0,.239-.066l2.09-1.227a.518.518,0,0,0,.168-.689.491.491,0,0,0-.666-.195l-2.087,1.227a.514.514,0,0,0-.235.569.5.5,0,0,0,.474.381Z" transform="translate(-1122.41 -1093.526)" fill="#fff"/>
      <path id="Caminho_9872" data-name="Caminho 9872" d="M1512.643,1419.577l5.414-3.208c.261-.152.239-.422-.072-.6l-2.575-1.527a1.11,1.11,0,0,0-1.017-.041l-5.414,3.205c-.261.155-.24.422.074.6l2.575,1.524A1.112,1.112,0,0,0,1512.643,1419.577Z" transform="translate(-1147.676 -1043.667)" fill="#3174c6"/>
      <path id="Caminho_9873" data-name="Caminho 9873" d="M1428.947,1454.807a1.137,1.137,0,0,1,0-2.135,3.9,3.9,0,0,1,3.6,0,1.137,1.137,0,0,1,0,2.135A3.9,3.9,0,0,1,1428.947,1454.807Z" transform="translate(-1086.369 -1072.44)" fill="#3174c6"/>
      <path id="Caminho_9874" data-name="Caminho 9874" d="M1117.146,1304.158,1094.59,1290.8l22.556-13.354L1139.7,1290.8Z" transform="translate(-832.606 -941.958)" fill="#124481"/>
      <path id="Caminho_9875" data-name="Caminho 9875" d="M1135.454,1314.486l-5.744-3.4,22.556-13.354,5.744,3.4Z" transform="translate(-859.32 -957.305)" fill="#132a46"/>
      <path id="Caminho_9876" data-name="Caminho 9876" d="M1129.71,1301.132l5.744-3.4,22.556,13.354-5.744,3.4Z" transform="translate(-859.32 -957.305)" fill="#132a46"/>
      <path id="Caminho_9877" data-name="Caminho 9877" d="M1117.016,1366.78l-22.556-13.354V1331.86l22.556,13.354Z" transform="translate(-832.507 -982.676)" fill="#124481"/>
      <path id="Caminho_9878" data-name="Caminho 9878" d="M1135.324,1377.105l-5.744-3.4V1352.14l5.744,3.4Z" transform="translate(-859.221 -998.033)" fill="#132a46"/>
      <path id="Caminho_9879" data-name="Caminho 9879" d="M1211.218,1353.426l-22.558,13.354v-21.566l22.558-13.354Z" transform="translate(-904.161 -982.676)" fill="#0e2a7a"/>
      <path id="Caminho_9880" data-name="Caminho 9880" d="M1229.534,1373.706l-5.744,3.4v-21.564l5.744-3.4Z" transform="translate(-930.883 -998.033)" fill="#071e39"/>
      <path id="Caminho_9881" data-name="Caminho 9881" d="M917.14,1370.245l-18.52-11.025v7.105l18.52,10.993Z" transform="translate(-683.54 -1003.44)" fill="#bbcee1"/>
      <path id="Caminho_9882" data-name="Caminho 9882" d="M917.76,1313.27l-19.14,11.278,18.52,11.025,19.167-11.3Z" transform="translate(-683.54 -968.897)" fill="#fff"/>
      <path id="Caminho_9883" data-name="Caminho 9883" d="M995.167,1358.11,976,1369.407v7.073l19.167-11.371Z" transform="translate(-742.4 -1002.603)" fill="#a7bcce"/>
      <path id="Caminho_9884" data-name="Caminho 9884" d="M917.14,1322.9l-18.52-11.022v7.105l18.52,10.991Z" transform="translate(-683.54 -967.908)" fill="#bbcee1"/>
      <path id="Caminho_9885" data-name="Caminho 9885" d="M917.76,1265.92l-19.14,11.28,18.52,11.022,19.167-11.3Z" transform="translate(-683.54 -933.36)" fill="#fff"/>
      <path id="Caminho_9886" data-name="Caminho 9886" d="M995.167,1310.76,976,1322.057v7.073l19.167-11.371Z" transform="translate(-742.4 -967.064)" fill="#a7bcce"/>
      <path id="Caminho_9887" data-name="Caminho 9887" d="M786.288,1446.015,767.77,1434.99v7.105l18.52,10.993Z" transform="translate(-584.009 -1059.431)" fill="#bbcee1"/>
      <path id="Caminho_9888" data-name="Caminho 9888" d="M786.91,1389.04l-19.14,11.277,18.518,11.025,19.167-11.3Z" transform="translate(-584.009 -1025.764)" fill="#fff"/>
      <path id="Caminho_9889" data-name="Caminho 9889" d="M864.307,1433.88l-19.167,11.3,0,7.073,19.164-11.371Z" transform="translate(-642.861 -1058.594)" fill="#a7bcce"/>
      <path id="Caminho_9890" data-name="Caminho 9890" d="M786.288,1398.665,767.77,1387.64v7.105l18.52,10.993Z" transform="translate(-584.009 -1024.771)" fill="#bbcee1"/>
      <path id="Caminho_9891" data-name="Caminho 9891" d="M786.91,1341.69l-19.14,11.277,18.518,11.025,19.167-11.3Z" transform="translate(-584.009 -990.227)" fill="#fff"/>
      <path id="Caminho_9892" data-name="Caminho 9892" d="M864.307,1386.53l-19.167,11.3,0,7.073,19.164-11.371Z" transform="translate(-642.861 -1023.934)" fill="#a7bcce"/>
      <path id="Caminho_9893" data-name="Caminho 9893" d="M824.082,1374.618l-1.163-.69a10.5,10.5,0,0,1-2.724.673v.982h-2.824v-.982a10.653,10.653,0,0,1-2.726-.673l-1.156.69-2.006-1.188,1.156-.69a3.744,3.744,0,0,1-1.139-1.617H809.86v-1.679H811.5a3.724,3.724,0,0,1,1.12-1.62l-1.161-.687,1.991-1.185,1.161.687a10.544,10.544,0,0,1,2.7-.658V1365h2.827v.982a10.537,10.537,0,0,1,2.729.67l1.156-.69,2.006,1.188-1.156.689a3.744,3.744,0,0,1,1.139,1.617h1.64v1.679h-1.64a3.709,3.709,0,0,1-1.12,1.62l1.163.687Zm-7.934-2.778a5.638,5.638,0,0,0,5.242,0c1.443-.861,1.436-2.253-.017-3.112a5.652,5.652,0,0,0-5.242,0c-1.443.859-1.436,2.253.017,3.112" transform="translate(-616.025 -1007.876)" fill="#1c75bc"/>
      <path id="Caminho_9894" data-name="Caminho 9894" d="M953.711,1290.9l1.8,3.942,1.8,3.947-6.647-1.058-6.644-1.058,4.844-2.886Z" transform="translate(-718.074 -952.286)" fill="#ef4136"/>
      <path id="Caminho_9895" data-name="Caminho 9895" d="M1236.771,743.247l-14.33-8.477a1.319,1.319,0,0,0-1.436.056h0l-3.145,1.863,1.462,2.035.546.641v14.557a2.439,2.439,0,0,0,1.182,2.1l10.723,6.357.11.611,2.188,3.146,3.365-2.03h.019l.021-.015h0a1.108,1.108,0,0,0,.512-.947V745.417A2.514,2.514,0,0,0,1236.771,743.247Z" transform="translate(-926.372 -534.522)" fill="#ffd139"/>
      <path id="Caminho_9896" data-name="Caminho 9896" d="M1231.749,751.256l-14.5-8.59a1.04,1.04,0,0,0-1.061,0,1.1,1.1,0,0,0-.53.943V761.4a2.439,2.439,0,0,0,1.182,2.1l14.495,8.59a1.066,1.066,0,0,0,1.088,0,1.122,1.122,0,0,0,.544-.966v-17.72A2.515,2.515,0,0,0,1231.749,751.256Z" transform="translate(-924.699 -540.491)" fill="#f9c001"/>
      <path id="Caminho_9897" data-name="Caminho 9897" d="M1285.621,863.08l-.022.015h0Z" transform="translate(-977.899 -631.199)" fill="#bbcee1"/>
      <path id="Caminho_9898" data-name="Caminho 9898" d="M1286.243,795.93V778.21a2.565,2.565,0,0,0-.165-.854l3.351-1.986a2.553,2.553,0,0,1,.151.822V793.91a1.108,1.108,0,0,1-.512.947h0l-.021.015h-.019l-3.336,2.013A1.111,1.111,0,0,0,1286.243,795.93Z" transform="translate(-977.968 -565.203)" fill="#dba903"/>
      <g id="Grupo_3105" data-name="Grupo 3105" transform="translate(167.013 38.034) rotate(22)">
        <path id="Caminho_9753" data-name="Caminho 9753" d="M.422,90.8c-.265-2.67-.4-5.379-.422-8.051l1.327.014c.027,2.631.152,5.3.416,7.923ZM.34,74.7c.238-2.66.61-5.337,1.1-7.953l1.29.273c-.481,2.58-.844,5.211-1.082,7.83ZM3.294,58.954C4.03,56.4,4.9,53.86,5.881,51.394l1.22.522c-.962,2.425-1.82,4.928-2.548,7.438ZM9.176,44.141c.514-1.014,1.056-2.014,1.62-3.01.745-1.317,1.53-2.624,2.338-3.89l1.106.744c-.795,1.243-1.571,2.533-2.3,3.827-.555.977-1.083,1.969-1.594,2.96Zm9.573-12.527-1.035-.843c1.625-2.072,3.376-4.084,5.191-5.986l.951.943C22.081,27.594,20.361,29.574,18.749,31.615ZM29.51,20.374l-.858-1.024c2-1.709,4.1-3.339,6.229-4.842l.76,1.1c-2.088,1.48-4.152,3.1-6.118,4.762ZM42.241,11.48l-.649-1.167c2.283-1.283,4.661-2.464,7.068-3.518L49.2,8.02a76.645,76.645,0,0,0-6.943,3.461ZM56.466,5.254l-.425-1.27C58.535,3.168,61.1,2.471,63.665,1.9l.3,1.3A74.8,74.8,0,0,0,56.479,5.25ZM71.647,1.892,71.464.57c2.611-.315,5.273-.506,7.9-.57l.058,1.334c-2.578.056-5.195.243-7.766.553Zm83.613,45.57c-1-1.976-2.089-3.94-3.238-5.836l1.114-.68c1.167,1.923,2.282,3.919,3.293,5.927ZM87.249,1.537,87.321.209a73.724,73.724,0,0,1,7.9.991l-.2,1.313A72.665,72.665,0,0,0,87.249,1.537Zm60.334,33.476c-1.582-2.123-3.28-4.193-5.049-6.155l.96-.9c1.814,1.989,3.526,4.1,5.13,6.251ZM102.68,4.2,103,2.913c2.559.7,5.114,1.545,7.595,2.49l-.436,1.247c-2.435-.935-4.959-1.744-7.482-2.452Zm34.273,19.01c-1.942-1.781-3.995-3.491-6.1-5.069l.77-1.066c2.142,1.619,4.227,3.356,6.2,5.165ZM117.4,9.81l.553-1.2c1.969.971,3.895,2,5.817,3.168.406.241.808.486,1.209.731l-.666,1.136c-.4-.245-.794-.491-1.214-.736-1.859-1.1-3.793-2.146-5.718-3.1Z" transform="translate(0 0)" fill="#206666"/>
        <path id="Caminho_9754" data-name="Caminho 9754" d="M0,4.658.467,3.42l5.3,2.157L6.926,0,8.212.3,6.732,7.4Z" transform="translate(150.035 41.308)" fill="#206666"/>
      </g>
      <path id="Caminho_9899" data-name="Caminho 9899" d="M1236.412,779.776a9.326,9.326,0,0,0-3.188-3.448,3.147,3.147,0,0,0-3.2-.331c-1.573.918-1.752,3.681-.541,6.469l-3.937,2.3,1.146,2.037,3.94-2.3a8.689,8.689,0,0,0,2.561,2.454,3.149,3.149,0,0,0,3.193.331C1238.159,786.263,1238.168,782.9,1236.412,779.776Zm-1.168,5.483a2.012,2.012,0,0,1-2.044-.211,5.968,5.968,0,0,1-2.039-2.209c-1.123-2-1.118-4.148.014-4.806a2.013,2.013,0,0,1,2.044.211,5.954,5.954,0,0,1,2.037,2.209C1236.38,782.444,1236.373,784.6,1235.244,785.259Z" transform="translate(-932.222 -565.514)" fill="#fff"/>
      <path id="Caminho_9786" data-name="Caminho 9786" d="M998.734,963.766a3.994,3.994,0,1,1,3.894-3.993A3.945,3.945,0,0,1,998.734,963.766Zm0-6.654a2.664,2.664,0,1,0,2.606,2.661,2.7,2.7,0,0,0-.765-1.885A2.565,2.565,0,0,0,998.734,957.113Z" transform="translate(-756.731 -700.725)" fill="#183456"/>
      <path id="Caminho_9787" data-name="Caminho 9787" d="M1061.1,963.766a3.994,3.994,0,1,1,3.894-3.993A3.945,3.945,0,0,1,1061.1,963.766Zm0-6.654a2.664,2.664,0,1,0,2.6,2.661A2.631,2.631,0,0,0,1061.1,957.113Z" transform="translate(-804.173 -700.725)" fill="#183456"/>
      <g id="Grupo_3354" data-name="Grupo 3354" transform="matrix(0.839, 0.545, -0.545, 0.839, 294.472, 0)">
        <path id="Caminho_9720" data-name="Caminho 9720" d="M8.169.589a1.029,1.029,0,0,1,.028.77,1,1,0,0,1-.512.565L1.4,4.875a.974.974,0,0,1-1.307-.49A1.02,1.02,0,0,1,.57,3.044L6.87.09A.972.972,0,0,1,8.169.589Z" transform="translate(6.495 19.913)" fill="#7e779a"/>
        <path id="Caminho_9749" data-name="Caminho 9749" d="M0,.486C17.617-2.558,48.135,8.763,38.827,32.625A28.469,28.469,0,0,1,22.833,48.887c-5.86,2.288-14.455,3.22-17.271-5.791-5.18-16.582,38.556-28.42,50.631,4.643,8.66,23.72-.437,23.77-.437,23.77" transform="translate(57.041 29.496)" fill="none" stroke="#302558" stroke-miterlimit="10" stroke-width="1"/>
        <path id="Caminho_9750" data-name="Caminho 9750" d="M32.115,2c-.21-.111,12.992-2,12.992-2l9.951,16.993L41.652,9.371l-13.05,7.4L0,14.964Z" transform="translate(0.003 12.79)" fill="#183456"/>
        <path id="Caminho_9751" data-name="Caminho 9751" d="M0,5.593l55.059,2.03L41.652,0Z" transform="translate(0 22.284)" fill="#183456"/>
        <path id="Caminho_9752" data-name="Caminho 9752" d="M0,26.518,49.179,0,45.118,11.554,0,26.518l41.652-5.593L35.079,40.98Z" fill="#1b3f6b"/>
      </g>
    </g>
  </g>
</svg>
