<svg xmlns="http://www.w3.org/2000/svg" xmlns:xlink="http://www.w3.org/1999/xlink" width="507" height="465.016" viewBox="0 0 507 465.016">
  <defs>
    <linearGradient id="linear-gradient" x1="0.59" y1="0.295" x2="0.026" y2="1.576" gradientUnits="objectBoundingBox">
      <stop offset="0" stop-color="#d2e7fa"/>
      <stop offset="0.18" stop-color="#cee4f9"/>
      <stop offset="0.36" stop-color="#c1ddf6"/>
      <stop offset="0.55" stop-color="#acd1f1"/>
      <stop offset="0.75" stop-color="#8fbfe9"/>
      <stop offset="0.94" stop-color="#69a9e0"/>
      <stop offset="1" stop-color="#5ca1dd"/>
    </linearGradient>
  </defs>
  <g id="Grupo_3420" data-name="Grupo 3420" transform="translate(2210 4224)">
    <circle id="Elipse_1383" data-name="Elipse 1383" cx="221.429" cy="221.429" r="221.429" transform="translate(-2185.028 -4207.098)" fill="#183456" opacity="0.05"/>
    <circle id="Elipse_1384" data-name="Elipse 1384" cx="186.766" cy="186.766" r="186.766" transform="translate(-2150.365 -4172.435)" fill="#183456" opacity="0.1"/>
    <circle id="Elipse_1385" data-name="Elipse 1385" cx="129.389" cy="129.389" r="129.389" transform="translate(-2092.988 -4115.058)" fill="#183456" opacity="0.15"/>
    <path id="Caminho_14230" data-name="Caminho 14230" d="M348.538,219H326.354a14.981,14.981,0,0,1-14.981-14.981V188.611a14.981,14.981,0,0,0-14.981-14.981H274.14" transform="translate(-2168.227 -4195.645)" fill="none" stroke="#183456" stroke-linecap="round" stroke-miterlimit="10" stroke-width="2"/>
    <path id="Caminho_14231" data-name="Caminho 14231" d="M123.292,86.232A21.2,21.2,0,0,0,83.27,93.146h5.255a15.995,15.995,0,0,1,30.815-2.95l-2.962,2.939h9.957V83.144Z" transform="translate(-2197.312 -4210.75)" fill="#1d6f5e"/>
    <path id="Caminho_14232" data-name="Caminho 14232" d="M104.439,108.558A16.03,16.03,0,0,1,89.458,98.083l2.985-2.973h-10v9.968l3.042-3.042a21.192,21.192,0,0,0,40.011-6.914h-5.255A16.03,16.03,0,0,1,104.439,108.558Z" transform="translate(-2197.438 -4207.609)" fill="#1d6f5e"/>
    <path id="Caminho_14233" data-name="Caminho 14233" d="M331.9,319.913a3.123,3.123,0,1,1-3.123-3.123,3.123,3.123,0,0,1,3.123,3.123Z" transform="translate(-2160.378 -4173.83)" fill="#183456"/>
    <path id="Caminho_14234" data-name="Caminho 14234" d="M325.65,311.439A13.068,13.068,0,0,1,338.729,324.5H343a17.343,17.343,0,0,0-17.286-17.286Z" transform="translate(-2160.378 -4175.29)" fill="#183456"/>
    <path id="Caminho_14235" data-name="Caminho 14235" d="M325.65,301.863a24.2,24.2,0,0,1,24.2,24.2h4.886A29.1,29.1,0,0,0,325.65,297Z" transform="translate(-2160.378 -4176.846)" fill="#183456"/>
    <path id="Caminho_14236" data-name="Caminho 14236" d="M325.65,292.355a35.24,35.24,0,0,1,35.194,35.205h5.266a40.506,40.506,0,0,0-40.46-40.46Z" transform="translate(-2160.378 -4178.354)" fill="#183456"/>
    <path id="Caminho_14237" data-name="Caminho 14237" d="M384.024,120.269a19.592,19.592,0,0,1-2.524.945,23.048,23.048,0,0,0,2.3-2.42l-.438-3.457a21.112,21.112,0,0,1-6.419,6.28v-9.6a20.224,20.224,0,0,1,6.165,1.36l-.323-2.593a22.2,22.2,0,0,0-5.843-1.152v-6.672h10.371a24.855,24.855,0,0,1-.864,5.52l2.051,1.694a27.217,27.217,0,0,0,1.348-7.214h6.165a20.178,20.178,0,0,1-3.6,10.371l1.809,1.475a22.529,22.529,0,0,0-1.717-28.187h0l-.841-.818A22.379,22.379,0,0,0,378.17,79.36h-.115l-.945-.081h-.6c-.507,0-1.026-.069-1.567-.069a1.06,1.06,0,0,0-.461.092H374.4l-.933.081h-.115a22.379,22.379,0,0,0-13.517,6.442l-.83.818h0a22.541,22.541,0,0,0,0,30.331h0l.83.83a22.436,22.436,0,0,0,13.517,6.442h.115a4.3,4.3,0,0,1,.933.069h.081a1.152,1.152,0,0,0,.449.092h0a9.982,9.982,0,0,0,1.567-.081h.6a4.3,4.3,0,0,0,.945-.069h.115a22.552,22.552,0,0,0,6.165-1.567Zm11.95-19.59h-6.119a27.149,27.149,0,0,0-2.3-9.934,23.3,23.3,0,0,0,3.3-2.455,20.293,20.293,0,0,1,5.128,12.342Zm-6.845-14.024a20.4,20.4,0,0,1-2.674,1.994,24.385,24.385,0,0,0-4.955-6.234,20.282,20.282,0,0,1,7.629,4.195Zm-12.158-4.61a21.388,21.388,0,0,1,7.329,7.744,20.155,20.155,0,0,1-7.329,1.844Zm0,11.927a22.552,22.552,0,0,0,8.366-2.1,24.65,24.65,0,0,1,2.005,8.77H376.971Zm-6.983-11.547a24.2,24.2,0,0,0-4.967,6.223,21.078,21.078,0,0,1-2.662-1.994,20.1,20.1,0,0,1,7.629-4.229ZM360.7,88.291a21.678,21.678,0,0,0,3.284,2.443,26.964,26.964,0,0,0-2.3,9.945h-6.165A20.167,20.167,0,0,1,360.7,88.245Zm-5.174,14.716h6.165a26.909,26.909,0,0,0,2.3,9.934,22.483,22.483,0,0,0-3.284,2.443,20.109,20.109,0,0,1-5.186-12.423ZM362.359,117A20.035,20.035,0,0,1,365.021,115a24.374,24.374,0,0,0,4.967,6.223A20.409,20.409,0,0,1,362.359,117Zm12.158,4.61a21.388,21.388,0,0,1-7.329-7.744,20.166,20.166,0,0,1,7.329-1.855Zm0-11.927a22.322,22.322,0,0,0-8.366,2.086,24.579,24.579,0,0,1-2.005-8.758h10.371Zm0-9H364.145a24.591,24.591,0,0,1,2.005-8.77,22.551,22.551,0,0,0,8.366,2.04Zm0-9.012a20.156,20.156,0,0,1-7.329-1.844,21.2,21.2,0,0,1,7.329-7.744Z" transform="translate(-2156.189 -4210.032)" fill="#448379"/>
    <path id="Caminho_14238" data-name="Caminho 14238" d="M391.5,114.121,380,104.66l1.878,14.762,3.388-1.867,3.158,5.739,2.858-1.579-3.169-5.727Z" transform="translate(-2152.097 -4206.154)" fill="#f9c001"/>
    <path id="Caminho_14239" data-name="Caminho 14239" d="M106.294,351.9h-.657a15.177,15.177,0,0,0,.657-4.425,14.912,14.912,0,0,0-29.3-3.884,12.538,12.538,0,0,0-18.645,10.959A7.42,7.42,0,0,0,58.4,355.7h-.058a10.613,10.613,0,0,0,0,21.227H80.5V365.4H75.525l8.816-13.9,8.977,13.955H88.374v11.524h17.919a12.549,12.549,0,1,0,0-25.1Z" transform="translate(-2207.114 -4156.509)" fill="#183456"/>
    <circle id="Elipse_1386" data-name="Elipse 1386" cx="39.895" cy="39.895" r="39.895" transform="matrix(0.159, -0.987, 0.987, 0.159, -1946.061, -4145.218)" fill="#183456"/>
    <path id="Caminho_14240" data-name="Caminho 14240" d="M274.257,85.6a42.027,42.027,0,1,1,42.027-42.05A42.027,42.027,0,0,1,274.257,85.6Zm0-79.779a37.752,37.752,0,1,0,37.752,37.729A37.752,37.752,0,0,0,274.257,5.825Z" transform="translate(-2174.613 -4221.866)" fill="#fff"/>
    <path id="Caminho_14241" data-name="Caminho 14241" d="M302.664,41.962A29.962,29.962,0,1,1,272.7,12a29.962,29.962,0,0,1,29.962,29.962Z" transform="translate(-2173.012 -4220.273)" fill="#183456"/>
    <path id="Caminho_14242" data-name="Caminho 14242" d="M272.948,74.41A32.14,32.14,0,1,1,305.1,42.247,32.14,32.14,0,0,1,272.948,74.41Zm0-60.016a27.876,27.876,0,1,0,27.876,27.853,27.876,27.876,0,0,0-27.876-27.853Z" transform="translate(-2173.304 -4220.558)" fill="#fff"/>
    <path id="Caminho_14243" data-name="Caminho 14243" d="M289.485,40.424A18.357,18.357,0,1,1,271.127,22.09a18.357,18.357,0,0,1,18.357,18.334Z" transform="translate(-2171.484 -4218.736)" fill="#183456"/>
    <path id="Caminho_14244" data-name="Caminho 14244" d="M271.411,61.232a20.5,20.5,0,1,1,20.5-20.524A20.5,20.5,0,0,1,271.411,61.232Zm0-36.726a16.225,16.225,0,1,0,16.226,16.2,16.225,16.225,0,0,0-16.226-16.2Z" transform="translate(-2171.767 -4219.019)" fill="#fff"/>
    <path id="Caminho_14246" data-name="Caminho 14246" d="M301.017,24.158,296.5,32.1l15.407-4.218,4.529-7.94Z" transform="translate(-2164.82 -4219.063)" fill="#f9c001"/>
    <path id="Caminho_14247" data-name="Caminho 14247" d="M304.428,35.577,296.5,31.048l15.407-4.218,7.94,4.529Z" transform="translate(-2164.82 -4218.014)" fill="#cd9e02"/>
    <line id="Linha_38" data-name="Linha 38" y1="13.633" x2="49.806" transform="translate(-1900.356 -4191.829)" fill="none" stroke="#05293d" stroke-linecap="round" stroke-miterlimit="10" stroke-width="1.5"/>
    <path id="Caminho_14248" data-name="Caminho 14248" d="M331.762,105.65l-1.867-3.4-1.855,3.4-3.4,1.855,3.4,1.867,1.855,3.4,1.867-3.4,3.4-1.867Z" transform="translate(-2160.532 -4206.521)" fill="#fff"/>
    <path id="Caminho_14249" data-name="Caminho 14249" d="M126.91,182.791l-1.855-3.411-1.855,3.411-3.4,1.855,3.4,1.855,1.855,3.4,1.855-3.4,3.4-1.855Z" transform="translate(-2191.745 -4194.769)" fill="#fff"/>
    <path id="Caminho_14250" data-name="Caminho 14250" d="M205.58,385.289l-1.855-3.4-1.867,3.4-3.388,1.855L201.858,389l1.867,3.4,1.855-3.4,3.4-1.855Z" transform="translate(-2179.758 -4163.911)" fill="#fff"/>
    <path id="Caminho_14251" data-name="Caminho 14251" d="M227.02,299.311l-1.855-3.411-1.867,3.411-3.388,1.855,3.388,1.855,1.867,3.4,1.855-3.4,3.4-1.855Z" transform="translate(-2176.491 -4177.014)" fill="#fff"/>
    <path id="Caminho_14252" data-name="Caminho 14252" d="M178,293.93l-1.855-3.4-1.855,3.4-3.4,1.867,3.4,1.855,1.855,3.4,1.855-3.4,3.4-1.855Z" transform="translate(-2183.96 -4177.832)" fill="#fff"/>
    <path id="Caminho_14253" data-name="Caminho 14253" d="M232.9,110.141l-1.867-3.411-1.855,3.411L225.78,112l3.4,1.855,1.855,3.4,1.867-3.4L236.3,112Z" transform="translate(-2175.596 -4205.839)" fill="#fff"/>
    <path id="Caminho_14254" data-name="Caminho 14254" d="M304.342,219.38l-1.855-3.4-1.867,3.4-3.4,1.855,3.4,1.855,1.867,3.4,1.855-3.4,3.4-1.855Z" transform="translate(-2164.71 -4189.191)" fill="#fff"/>
    <path id="Caminho_14255" data-name="Caminho 14255" d="M301.862,93.95l-1.855-3.4-1.867,3.4-3.4,1.855,3.4,1.867,1.867,3.4,1.855-3.4,3.4-1.867Z" transform="translate(-2165.088 -4208.304)" fill="#fff"/>
    <path id="Caminho_14256" data-name="Caminho 14256" d="M437.952,179.93l-1.855-3.4-1.867,3.4-3.4,1.855,3.4,1.867,1.867,3.388,1.855-3.388,3.4-1.867Z" transform="translate(-2144.351 -4195.203)" fill="#fff"/>
    <path id="Caminho_14257" data-name="Caminho 14257" d="M297.3,321.039l-1.867-3.4-1.855,3.4-3.4,1.867,3.4,1.855,1.855,3.4,1.867-3.4,3.4-1.855Z" transform="translate(-2165.783 -4173.701)" fill="#fff"/>
    <path id="Caminho_14258" data-name="Caminho 14258" d="M48.672,151.18l-1.855-3.4-1.867,3.4-3.4,1.867,3.4,1.855,1.867,3.4,1.855-3.4,3.4-1.855Z" transform="translate(-2203.669 -4199.583)" fill="#fff"/>
    <path id="Caminho_14259" data-name="Caminho 14259" d="M319.312,62.9l-1.867-3.4-1.855,3.4-3.4,1.855,3.4,1.855,1.855,3.4,1.867-3.4,3.4-1.855Z" transform="translate(-2162.429 -4213.036)" fill="#fff"/>
    <path id="Caminho_14260" data-name="Caminho 14260" d="M216.382,25.67l-1.867-3.4-1.855,3.4-3.4,1.855,3.4,1.867,1.855,3.388,1.867-3.388,3.388-1.867Z" transform="translate(-2178.114 -4218.708)" fill="#fff"/>
    <path id="Caminho_14261" data-name="Caminho 14261" d="M104.512,25.67l-1.867-3.4-1.855,3.4-3.4,1.855,3.4,1.867,1.855,3.388,1.867-3.388,3.4-1.867Z" transform="translate(-2195.16 -4218.708)" fill="#fff"/>
    <path id="Caminho_14262" data-name="Caminho 14262" d="M7.122,176.52l-1.867-3.4L3.4,176.52,0,178.375l3.4,1.855,1.855,3.4,1.867-3.4,3.4-1.855Z" transform="translate(-2210 -4195.722)" fill="#fff"/>
    <path id="Caminho_14263" data-name="Caminho 14263" d="M24.232,321.039l-1.867-3.4-1.855,3.4-3.4,1.867,3.4,1.855,1.855,3.4,1.867-3.4,3.388-1.855Z" transform="translate(-2207.393 -4173.701)" fill="#fff"/>
    <path id="Caminho_14264" data-name="Caminho 14264" d="M351.6,378.559l-1.855-3.4-1.867,3.4-3.388,1.855,3.388,1.867,1.867,3.4,1.855-3.4,3.4-1.867Z" transform="translate(-2157.508 -4164.936)" fill="#fff"/>
    <path id="Caminho_14265" data-name="Caminho 14265" d="M430.762,223.98l-1.855-3.4-1.867,3.4-3.4,1.867,3.4,1.855,1.867,3.4,1.855-3.4,3.4-1.855Z" transform="translate(-2145.447 -4188.49)" fill="#fff"/>
    <path id="Caminho_14266" data-name="Caminho 14266" d="M132.042,396.16l-1.867-3.4-1.855,3.4-3.4,1.855,3.4,1.867,1.855,3.388,1.867-3.388,3.388-1.867Z" transform="translate(-2190.965 -4162.254)" fill="#fff"/>
    <path id="Caminho_14267" data-name="Caminho 14267" d="M116.562,126.93l-1.867-3.4-1.855,3.4-3.4,1.855,3.4,1.855,1.855,3.4,1.867-3.4,3.4-1.855Z" transform="translate(-2193.324 -4203.279)" fill="#fff"/>
    <path id="Caminho_14268" data-name="Caminho 14268" d="M34.082,204.88l-1.867-3.4-1.855,3.4-3.4,1.855,3.4,1.867,1.855,3.4,1.867-3.4,3.4-1.867Z" transform="translate(-2205.892 -4191.401)" fill="#ff931e"/>
    <path id="Caminho_14269" data-name="Caminho 14269" d="M218.012,350.7l-1.867-3.4-1.855,3.4-3.4,1.855,3.4,1.855,1.855,3.4,1.867-3.4,3.4-1.855Z" transform="translate(-2177.865 -4169.181)" fill="#ff931e"/>
    <path id="Caminho_14270" data-name="Caminho 14270" d="M336.69,177.08l-1.855-3.4-1.855,3.4-3.4,1.855,3.4,1.855,1.855,3.4,1.855-3.4,3.4-1.855Z" transform="translate(-2159.78 -4195.637)" fill="#ff931e"/>
    <path id="Caminho_14271" data-name="Caminho 14271" d="M116.562,299.311l-1.867-3.411-1.855,3.411-3.4,1.855,3.4,1.855,1.855,3.4,1.867-3.4,3.4-1.855Z" transform="translate(-2193.324 -4177.014)" fill="#05293d"/>
    <path id="Caminho_14272" data-name="Caminho 14272" d="M126.91,51.84l-1.855-3.4-1.855,3.4-3.4,1.855,3.4,1.867,1.855,3.4,1.855-3.4,3.4-1.867Z" transform="translate(-2191.745 -4214.721)" fill="#05293d"/>
    <path id="Caminho_14273" data-name="Caminho 14273" d="M387.552,172.51l-1.867-3.4-1.855,3.4-3.4,1.867,3.4,1.855,1.855,3.4,1.867-3.4,3.4-1.855Z" transform="translate(-2152.031 -4196.333)" fill="#05293d"/>
    <path id="Caminho_14274" data-name="Caminho 14274" d="M270.55,335.59l-1.855-3.4-1.867,3.4-3.388,1.855,3.388,1.867,1.867,3.4,1.855-3.4,3.4-1.867Z" transform="translate(-2169.858 -4171.483)" fill="#05293d"/>
    <path id="Caminho_14275" data-name="Caminho 14275" d="M175.15,67.46l-1.855-3.4-1.855,3.4-3.4,1.867,3.4,1.855,1.855,3.4,1.855-3.4,3.4-1.855Z" transform="translate(-2184.395 -4212.34)" fill="#ff931e"/>
    <path id="Caminho_14276" data-name="Caminho 14276" d="M363.312,57.28l-1.855-3.4-1.867,3.4-3.4,1.867L359.59,61l1.867,3.4,1.855-3.4,3.4-1.855Z" transform="translate(-2155.725 -4213.892)" fill="#ff931e"/>
    <path id="Caminho_14277" data-name="Caminho 14277" d="M249.31,269.5v28.429a14.981,14.981,0,0,0,14.981,14.981h63.577" transform="translate(-2172.011 -4181.036)" fill="none" stroke="#183456" stroke-linecap="round" stroke-miterlimit="10" stroke-width="2"/>
    <path id="Caminho_14278" data-name="Caminho 14278" d="M177.2,151.984V107.871A14.981,14.981,0,0,0,162.219,92.89H129.48" transform="translate(-2190.27 -4207.948)" fill="none" stroke="#183456" stroke-linecap="round" stroke-miterlimit="10" stroke-width="2"/>
    <line id="Linha_39" data-name="Linha 39" y1="71.228" transform="translate(-1904.205 -4126.938)" fill="none" stroke="#183456" stroke-linecap="round" stroke-miterlimit="10" stroke-width="2"/>
    <path id="Caminho_14279" data-name="Caminho 14279" d="M266.29,166.556H374a14.981,14.981,0,0,0,14.981-14.981V128.09" transform="translate(-2169.423 -4202.584)" fill="none" stroke="#183456" stroke-linecap="round" stroke-miterlimit="10" stroke-width="2"/>
    <path id="Caminho_14280" data-name="Caminho 14280" d="M74,331.962V273.191A14.981,14.981,0,0,1,88.981,258.21h48.93" transform="translate(-2198.724 -4182.756)" fill="none" stroke="#183456" stroke-linecap="round" stroke-miterlimit="10" stroke-width="2"/>
    <line id="Linha_40" data-name="Linha 40" y1="14.451" x2="14.451" transform="translate(-2154.939 -4022.038)" fill="#ff931e"/>
    <path id="Caminho_14281" data-name="Caminho 14281" d="M46.215,190.346a2.731,2.731,0,0,1,0-3.849l14.451-14.451a2.726,2.726,0,1,1,3.86,3.849L50.064,190.346a2.731,2.731,0,0,1-3.849,0Z" transform="translate(-2203.079 -4196.008)" fill="#05293d"/>
    <line id="Linha_41" data-name="Linha 41" y1="14.451" x2="14.451" transform="translate(-2139.06 -4037.917)" fill="#ff931e"/>
    <path id="Caminho_14282" data-name="Caminho 14282" d="M60.624,175.649a1.613,1.613,0,0,1,0-2.3l14.451-14.451a1.63,1.63,0,0,1,2.3,2.3L62.929,175.649a1.613,1.613,0,0,1-2.3,0Z" transform="translate(-2200.836 -4197.963)" fill="#05293d"/>
    <path id="Caminho_14283" data-name="Caminho 14283" d="M99.3,167.176a19.383,19.383,0,1,1,0-27.415A19.383,19.383,0,0,1,99.3,167.176Z" transform="translate(-2199.911 -4201.67)" fill="#f9c001"/>
    <path id="Caminho_14284" data-name="Caminho 14284" d="M71.881,164.613a19.395,19.395,0,0,0,33.1-13.713H66.2a19.36,19.36,0,0,0,5.681,13.713Z" transform="translate(-2199.913 -4199.108)" fill="#ff931e"/>
    <path id="Caminho_14285" data-name="Caminho 14285" d="M70.635,169a21.561,21.561,0,1,1,30.492,0,21.561,21.561,0,0,1-30.492,0ZM98.05,141.582a17.2,17.2,0,1,0,0,24.338A17.2,17.2,0,0,0,98.05,141.582Z" transform="translate(-2200.199 -4201.959)" fill="#05293d"/>
    <path id="Caminho_14286" data-name="Caminho 14286" d="M73.2,143.928a1.613,1.613,0,0,1,0-2.3,16.133,16.133,0,0,1,22.794,0,1.63,1.63,0,0,1-2.3,2.3,12.872,12.872,0,0,0-18.185,0,1.613,1.613,0,0,1-2.3,0Zm24.569,12.4a1.613,1.613,0,0,1-.461-1.394,12.815,12.815,0,0,0-.945-7.076,1.636,1.636,0,1,1,3-1.314,16.133,16.133,0,0,1,1.152,8.862,1.636,1.636,0,0,1-1.855,1.383,1.717,1.717,0,0,1-.887-.449Z" transform="translate(-2198.919 -4201.24)" fill="#fff"/>
    <path id="Caminho_14287" data-name="Caminho 14287" d="M388.482,201.83H351.237a2.627,2.627,0,0,0-2.627,2.627V225.7a2.627,2.627,0,0,0,2.627,2.627h25.675l6.108,6.108v-6.108h5.462a2.627,2.627,0,0,0,2.627-2.627V204.457a2.627,2.627,0,0,0-2.627-2.627Z" transform="translate(-2156.88 -4191.348)" fill="#183456"/>
    <path id="Caminho_14288" data-name="Caminho 14288" d="M363.336,214.318a1.5,1.5,0,1,1-1.5-1.5,1.5,1.5,0,0,1,1.5,1.5Z" transform="translate(-2155.092 -4189.673)" fill="#fff"/>
    <path id="Caminho_14289" data-name="Caminho 14289" d="M368.746,214.318a1.5,1.5,0,1,1-1.5-1.5,1.5,1.5,0,0,1,1.5,1.5Z" transform="translate(-2154.268 -4189.673)" fill="#fff"/>
    <path id="Caminho_14290" data-name="Caminho 14290" d="M374.156,214.318a1.5,1.5,0,1,1-1.5-1.5,1.5,1.5,0,0,1,1.5,1.5Z" transform="translate(-2153.444 -4189.673)" fill="#fff"/>
    <path id="Caminho_14291" data-name="Caminho 14291" d="M82.44,178.25v14.543a14.808,14.808,0,0,0,14.981,14.555h93.285" transform="translate(-2197.438 -4194.94)" fill="none" stroke="#183456" stroke-linecap="round" stroke-miterlimit="10" stroke-width="2"/>
    <path id="Caminho_14292" data-name="Caminho 14292" d="M184.882,369.959V360.74h-4.206A17.549,17.549,0,0,0,179,356.73l2.985-2.973-6.534-6.534-2.973,2.985a17.551,17.551,0,0,0-4.01-1.671V344.33h-9.219v4.229a17.552,17.552,0,0,0-4.01,1.671l-3-3.019-6.534,6.534,2.985,2.973a17.551,17.551,0,0,0-1.671,4.01H142.82v9.219h4.206a17.632,17.632,0,0,0,1.671,4.022l-2.985,2.973,6.534,6.534,2.973-2.985a17.549,17.549,0,0,0,4.01,1.671v4.206h9.219v-4.206a17.549,17.549,0,0,0,4.01-1.671l2.973,2.985,6.534-6.534-2.985-2.973a17.634,17.634,0,0,0,1.671-4.022Zm-21.031,3.607a8.216,8.216,0,1,1,8.217-8.216,8.216,8.216,0,0,1-8.217,8.216Z" transform="translate(-2188.238 -4169.634)" fill="#183456"/>
    <path id="Caminho_14293" data-name="Caminho 14293" d="M150.219,350.007v-2.731a11.688,11.688,0,0,0,2.627-1.083l1.947,1.947,4.264-4.275-1.948-1.948A11.121,11.121,0,0,0,158.2,339.3h2.754v-6.05H158.2a11.122,11.122,0,0,0-1.095-2.616l1.948-1.959-4.264-4.264-1.948,1.948a12.275,12.275,0,0,0-2.627-1.095V322.5H144.18v2.743a12.272,12.272,0,0,0-2.627,1.095l-1.948-1.948-4.275,4.264,1.959,1.959a11.121,11.121,0,0,0-1.095,2.616H133.44v6.05h2.754a11.121,11.121,0,0,0,1.095,2.616l-2.051,1.924,4.275,4.275,1.948-1.948a11.686,11.686,0,0,0,2.627,1.083v2.754Zm-8.389-13.759a2.231,2.231,0,1,1-.058,0Z" transform="translate(-2189.667 -4172.96)" fill="#1d6f5e"/>
    <path id="Caminho_14294" data-name="Caminho 14294" d="M170,340.867h17.862a14.981,14.981,0,0,0,14.981-14.981V269.5" transform="translate(-2184.096 -4181.036)" fill="none" stroke="#183456" stroke-linecap="round" stroke-miterlimit="10" stroke-width="2"/>
    <path id="Caminho_14295" data-name="Caminho 14295" d="M416.756,256.132v-.91a.542.542,0,0,0-.553-.542h-4.609a.542.542,0,0,0-.553.542v.91Z" transform="translate(-2147.367 -4183.294)" fill="#ffaf59"/>
    <path id="Caminho_14296" data-name="Caminho 14296" d="M411.9,256.642l-4.022-5.312H394.9l-4.022,5.312Z" transform="translate(-2150.439 -4183.805)" fill="#ffaf59"/>
    <path id="Caminho_14297" data-name="Caminho 14297" d="M382.68,257v25.237H422.6V257Zm8.309,3.457a.553.553,0,0,1-.553.553H384.95a.541.541,0,0,1-.542-.553V259.3a.553.553,0,0,1,.542-.553h5.485a.565.565,0,0,1,.553.553Zm11.65,19.59a4.345,4.345,0,1,1,0,.069Z" transform="translate(-2151.688 -4182.941)" fill="#ff931e"/>
    <path id="Caminho_14298" data-name="Caminho 14298" d="M401.029,261.23a7.755,7.755,0,1,0,5.488,2.276,7.767,7.767,0,0,0-5.488-2.276Zm5.209,8.458a.68.68,0,0,1-.68-.691,4.54,4.54,0,0,0-4.529-4.575.691.691,0,1,1,0-1.371,5.9,5.9,0,0,1,5.9,5.9.691.691,0,0,1-.691.738Z" transform="translate(-2150.078 -4182.296)" fill="#ffaf59"/>
    <path id="Caminho_14299" data-name="Caminho 14299" d="M237.72,374.43l8.182,25.5h46.061l-8.182-25.5Z" transform="translate(-2173.777 -4165.047)" fill="#f9c001"/>
    <path id="Caminho_14300" data-name="Caminho 14300" d="M282.7,374.009h1.118l.334,1.049,6.73,20.985v-25.5H254.488l-1.971-3.33h-7.7v6.8Z" transform="translate(-2172.695 -4166.147)" fill="#ff931e"/>
    <path id="Caminho_14301" data-name="Caminho 14301" d="M208.61,65.449A4.61,4.61,0,1,0,204,60.84,4.61,4.61,0,0,0,208.61,65.449Z" transform="translate(-2178.915 -4213.534)" fill="#183456"/>
    <path id="Caminho_14302" data-name="Caminho 14302" d="M221.064,68.936c-.565-3.86-5.508-3.6-5.508-3.6H203.444s-5.312-.288-5.554,4.033V83.905a2.086,2.086,0,0,0,4.172,0V70.872h1.982v34.7a2.086,2.086,0,1,0,4.16,0V85.761h2.708V105.57a2.086,2.086,0,1,0,4.172,0v-34.7h1.936V83.905a2.086,2.086,0,0,0,4.172,0V69.558a1.8,1.8,0,0,0-.127-.622Z" transform="translate(-2179.846 -4212.146)" fill="rgba(24,52,86,0.77)"/>
    <path id="Caminho_14303" data-name="Caminho 14303" d="M45.928,267.608l6.661-8.631A24.373,24.373,0,0,0,37.17,252.5v10.844a13.6,13.6,0,0,1,8.758,4.264Z" transform="translate(-2204.336 -4183.626)" fill="#f9c001"/>
    <path id="Caminho_14304" data-name="Caminho 14304" d="M59.117,275.3a24.419,24.419,0,0,0-6.154-15.638l-6.834,8.862a13.655,13.655,0,0,1,2.155,7.4,7.42,7.42,0,0,1-.058,1.152Z" transform="translate(-2202.971 -4182.536)" fill="#05293d"/>
    <path id="Caminho_14305" data-name="Caminho 14305" d="M52.548,280.733a13.725,13.725,0,1,1-14.462-17.389V252.5a24.557,24.557,0,1,0,25.71,26.4Z" transform="translate(-2207.752 -4183.626)" fill="#1d6f5e"/>
    <path id="Caminho_14306" data-name="Caminho 14306" d="M38.21,245.991v-12c0-6.592,6.741-11.985,14.981-11.985H178.973" transform="translate(-2204.178 -4188.272)" fill="none" stroke="#183456" stroke-linecap="round" stroke-miterlimit="10" stroke-width="2"/>
    <path id="Caminho_14307" data-name="Caminho 14307" d="M315.18,362.889l15.188-14.52,17.1,16.721,15.223-16.721,11.881,12.757,27.841-28.936" transform="translate(-2161.974 -4171.483)" fill="none" stroke="#183456" stroke-miterlimit="10" stroke-width="1"/>
    <path id="Caminho_14308" data-name="Caminho 14308" d="M318.862,360a3.261,3.261,0,1,1-3.261-3.261A3.261,3.261,0,0,1,318.862,360Z" transform="translate(-2162.406 -4167.743)" fill="#ff931e"/>
    <path id="Caminho_14309" data-name="Caminho 14309" d="M332.052,346.891a3.261,3.261,0,1,1-3.261-3.261A3.261,3.261,0,0,1,332.052,346.891Z" transform="translate(-2160.396 -4169.74)" fill="#ff931e"/>
    <path id="Caminho_14310" data-name="Caminho 14310" d="M346.866,361.171a3.273,3.273,0,1,1-3.273-3.261,3.273,3.273,0,0,1,3.273,3.261Z" transform="translate(-2158.143 -4167.564)" fill="#ff931e"/>
    <path id="Caminho_14311" data-name="Caminho 14311" d="M360.242,346.891a3.261,3.261,0,1,1-3.261-3.261,3.261,3.261,0,0,1,3.261,3.261Z" transform="translate(-2156.101 -4169.74)" fill="#ff931e"/>
    <path id="Caminho_14312" data-name="Caminho 14312" d="M370.436,357.171a3.273,3.273,0,1,1-3.261-3.261,3.273,3.273,0,0,1,3.261,3.261Z" transform="translate(-2154.552 -4168.174)" fill="#ff931e"/>
    <path id="Caminho_14313" data-name="Caminho 14313" d="M394.572,332.621a3.261,3.261,0,1,1-3.261-3.261A3.261,3.261,0,0,1,394.572,332.621Z" transform="translate(-2150.87 -4171.915)" fill="#ff931e"/>
    <path id="Caminho_14314" data-name="Caminho 14314" d="M324.423,136.325,313,118.59,301.79,136.325h6.315v14.681H318.1V136.325Z" transform="translate(-2164.014 -4204.031)" fill="#f9c001"/>
    <path id="Caminho_14315" data-name="Caminho 14315" d="M19.12,83.628,46.858,97.7,70.827,59.67Z" transform="translate(-2207.086 -4213.009)" fill="#1d6f5e"/>
    <path id="Caminho_14316" data-name="Caminho 14316" d="M69.415,59.67,28.39,89.044v15.534l7.064-11.95Z" transform="translate(-2205.674 -4213.009)" fill="#04659b"/>
    <path id="Caminho_14317" data-name="Caminho 14317" d="M69.415,59.67,28.39,89.044v15.534l7.064-11.95Z" transform="translate(-2205.674 -4213.009)" fill="#094438"/>
    <path id="Caminho_14318" data-name="Caminho 14318" d="M159.867,3.25h36.646A2.789,2.789,0,0,1,199.3,6.039V42.684a2.789,2.789,0,0,1-2.789,2.789H159.867A2.777,2.777,0,0,1,157.09,42.7V6.039a2.777,2.777,0,0,1,2.777-2.777Z" transform="translate(-2186.063 -4221.606)" fill="rgba(249,205,57,0.49)"/>
    <path id="Caminho_14319" data-name="Caminho 14319" d="M157.09,6.031v8.124H199.3V6.089A2.789,2.789,0,0,0,196.524,3.3H159.867a2.789,2.789,0,0,0-2.777,2.731Z" transform="translate(-2186.063 -4221.599)" fill="#05293d"/>
    <path id="Caminho_14320" data-name="Caminho 14320" d="M166.61,8.3A2.3,2.3,0,1,1,164.3,6,2.3,2.3,0,0,1,166.61,8.3Z" transform="translate(-2185.315 -4221.188)" fill="#04659b"/>
    <path id="Caminho_14321" data-name="Caminho 14321" d="M189.53,8.3a2.3,2.3,0,1,1-2.3-2.3A2.3,2.3,0,0,1,189.53,8.3Z" transform="translate(-2181.822 -4221.188)" fill="#04659b"/>
    <path id="Caminho_14322" data-name="Caminho 14322" d="M164.114,10.619a1.394,1.394,0,0,1-1.383-1.383V1.411a1.394,1.394,0,1,1,2.777,0V9.236A1.394,1.394,0,0,1,164.114,10.619Z" transform="translate(-2185.204 -4222.119)" fill="#ff931e"/>
    <path id="Caminho_14323" data-name="Caminho 14323" d="M187.054,10.619a1.394,1.394,0,0,1-1.383-1.383V1.411a1.394,1.394,0,1,1,2.777,0V9.236A1.394,1.394,0,0,1,187.054,10.619Z" transform="translate(-2181.709 -4222.119)" fill="#ff931e"/>
    <path id="Caminho_14324" data-name="Caminho 14324" d="M177.541,24.7a1.729,1.729,0,0,1-1.521,1.717h0a1.752,1.752,0,0,1,1.521,1.729V32.6a3.134,3.134,0,0,1-3.457,3.457h-2.812a3.042,3.042,0,0,1-3.4-3.388v-.8a.438.438,0,0,1,.484-.5h2.3a.438.438,0,0,1,.484.5v.991h2.72a.438.438,0,0,0,.484-.484V28.925a.864.864,0,0,0-.968-.968h-2.858a.438.438,0,0,1-.484-.484V25.33a.438.438,0,0,1,.484-.5h2.858a.864.864,0,0,0,.968-.933V20.49a.438.438,0,0,0-.484-.484h-2.72V21a.438.438,0,0,1-.484.484h-2.3a.438.438,0,0,1-.484-.484v-.991c0-2.086,1.152-3.2,3.4-3.2h2.812a3.134,3.134,0,0,1,3.457,3.457Z" transform="translate(-2184.423 -4219.544)" fill="#183456"/>
    <path id="Caminho_14325" data-name="Caminho 14325" d="M183.291,16.75a.357.357,0,0,1,.38.392V35.753a.346.346,0,0,1-.38.38h-2.524a.346.346,0,0,1-.392-.38V20.5l-1.5.2a.4.4,0,0,1-.507-.438v-2.3a.449.449,0,0,1,.461-.507Z" transform="translate(-2182.821 -4219.55)" fill="#183456"/>
    <path id="Caminho_14326" data-name="Caminho 14326" d="M135.39,93.366a5.255,5.255,0,1,1-1.535-3.723,5.255,5.255,0,0,1,1.535,3.723Z" transform="translate(-2190.971 -4208.677)" fill="#183456"/>
    <path id="Caminho_14327" data-name="Caminho 14327" d="M271.313,84.385a5.266,5.266,0,1,1-5.255-5.255A5.266,5.266,0,0,1,271.313,84.385Z" transform="translate(-2170.263 -4210.044)" fill="#183456"/>
    <path id="Caminho_14328" data-name="Caminho 14328" d="M378.713,128.785a5.266,5.266,0,1,1-5.255-5.255,5.266,5.266,0,0,1,5.255,5.255Z" transform="translate(-2153.898 -4203.279)" fill="#183456"/>
    <path id="Caminho_14329" data-name="Caminho 14329" d="M344.663,213.7a5.266,5.266,0,1,1-5.266-5.266A5.266,5.266,0,0,1,344.663,213.7Z" transform="translate(-2159.086 -4190.342)" fill="#183456"/>
    <path id="Caminho_14330" data-name="Caminho 14330" d="M323.96,307.865a5.255,5.255,0,1,1-5.255-5.255A5.255,5.255,0,0,1,323.96,307.865Z" transform="translate(-2162.237 -4175.991)" fill="#183456"/>
    <path id="Caminho_14331" data-name="Caminho 14331" d="M176.843,332.125a5.266,5.266,0,1,1-5.255-5.255A5.266,5.266,0,0,1,176.843,332.125Z" transform="translate(-2184.658 -4172.294)" fill="#183456"/>
    <path id="Caminho_14332" data-name="Caminho 14332" d="M79.97,322.906a5.255,5.255,0,1,1-1.543-3.731,5.255,5.255,0,0,1,1.543,3.731Z" transform="translate(-2199.416 -4173.701)" fill="#183456"/>
    <path id="Caminho_14333" data-name="Caminho 14333" d="M44.173,243.515a5.266,5.266,0,1,1-5.266-5.255A5.266,5.266,0,0,1,44.173,243.515Z" transform="translate(-2204.874 -4185.796)" fill="#183456"/>
    <path id="Caminho_14334" data-name="Caminho 14334" d="M88.393,178.945a5.266,5.266,0,1,1-5.266-5.255,5.266,5.266,0,0,1,5.266,5.255Z" transform="translate(-2198.136 -4195.635)" fill="#183456"/>
    <path id="Caminho_14335" data-name="Caminho 14335" d="M390.825,274.175H358.973a14.981,14.981,0,0,1-14.981-14.981V253.8a14.981,14.981,0,0,0-14.981-14.981H277.88" transform="translate(-2167.657 -4185.711)" fill="none" stroke="#183456" stroke-linecap="round" stroke-miterlimit="10" stroke-width="2"/>
    <path id="Caminho_14398" data-name="Caminho 14398" d="M380.393,270.195a5.266,5.266,0,1,1-5.266-5.255,5.266,5.266,0,0,1,5.266,5.255Z" transform="translate(-2153.642 -4181.731)" fill="#183456"/>
    <g id="Camada_2" data-name="Camada 2" transform="translate(-2090.878 -4060.768)">
      <g id="OBJECTS" transform="translate(0 0)">
        <path id="Caminho_14558" data-name="Caminho 14558" d="M196.494,110.037l-158.2-.129a2.087,2.087,0,0,1-2.087-2.087L36.3,6.39A6.39,6.39,0,0,1,42.75,0L192.277.118a6.454,6.454,0,0,1,6.39,6.4l-.075,101.431a2.087,2.087,0,0,1-2.1,2.087" transform="translate(2.743 0)" fill="#183456"/>
        <path id="Caminho_14559" data-name="Caminho 14559" d="M192.062,103.888,41.89,103.77l.075-98.44,150.172.118-.075,98.44" transform="translate(3.173 0.404)" fill="url(#linear-gradient)"/>
        <path id="Caminho_14560" data-name="Caminho 14560" d="M235.359,135.93,5.034,135.758A5.045,5.045,0,0,1,0,130.713v-.183l240.394.194v.183a5.024,5.024,0,0,1-5.034,5.024Z" transform="translate(0.001 14.253)" fill="#929496"/>
        <path id="Caminho_14561" data-name="Caminho 14561" d="M234.842,134.288,5.529,134.062c-4.163,0-6.454-.839-5.164-1.872l36.489-28.539c1.312-1.076,4.626-1.861,7.39-1.861l152.506.118c2.775,0,6.067.839,7.358,1.872l35.929,28.6C241.329,133.406,239.005,134.288,234.842,134.288Z" transform="translate(0.001 12.077)" fill="#d0d2d3"/>
        <path id="Caminho_14562" data-name="Caminho 14562" d="M158.882,130.74l-88.092-.065,5.949-11.435,76.441.065Z" transform="translate(5.362 13.398)" fill="#bbbdbf"/>
        <path id="Caminho_14563" data-name="Caminho 14563" d="M50.782,105.879H43.746c-.409,0-.624-.108-.463-.258l2.689-2.453a1.829,1.829,0,0,1,1-.258H53.74c.387,0,.592.118.452.258l-2.377,2.453a1.753,1.753,0,0,1-1.033.258Z" transform="translate(3.275 11.179)" fill="#929496"/>
        <path id="Caminho_14564" data-name="Caminho 14564" d="M60.042,105.889h-7c-.42,0-.645-.118-.506-.258l2.334-2.453a1.592,1.592,0,0,1,.957-.258h6.734c.387,0,.613.118.495.269l-2.022,2.453a1.56,1.56,0,0,1-.99.247Z" transform="translate(3.976 11.18)" fill="#929496"/>
        <path id="Caminho_14565" data-name="Caminho 14565" d="M69.315,105.889H62.28c-.409,0-.656-.118-.538-.258l1.969-2.453a1.42,1.42,0,0,1,.925-.258H71.37c.4,0,.635.118.538.258l-1.667,2.453A1.334,1.334,0,0,1,69.315,105.889Z" transform="translate(4.674 11.18)" fill="#929496"/>
        <path id="Caminho_14566" data-name="Caminho 14566" d="M78.588,105.9H71.552c-.42,0-.678-.118-.581-.269l1.614-2.442a1.248,1.248,0,0,1,.893-.269H80.2c.4,0,.656.118.581.258l-1.312,2.453C79.394,105.782,79,105.9,78.588,105.9Z" transform="translate(5.374 11.18)" fill="#929496"/>
        <path id="Caminho_14567" data-name="Caminho 14567" d="M87.849,105.909H80.814c-.409,0-.688-.118-.613-.258l1.259-2.453a1.14,1.14,0,0,1,.85-.258h6.723c.4,0,.678.108.613.258l-.947,2.453C88.645,105.791,88.258,105.909,87.849,105.909Z" transform="translate(6.073 11.182)" fill="#929496"/>
        <path id="Caminho_14568" data-name="Caminho 14568" d="M97.151,105.919H90.116c-.409,0-.7-.118-.645-.258l.893-2.453c0-.14.42-.258.818-.258H97.9c.4,0,.688.118.656.269l-.592,2.442C97.936,105.8,97.571,105.919,97.151,105.919Z" transform="translate(6.776 11.183)" fill="#929496"/>
        <path id="Caminho_14569" data-name="Caminho 14569" d="M106.424,105.92H99.389c-.409,0-.721-.118-.688-.258l.538-2.453c0-.151.376-.269.775-.269h6.723c.4,0,.71.118.688.258l-.226,2.453C107.177,105.812,106.833,105.92,106.424,105.92Z" transform="translate(7.475 11.182)" fill="#929496"/>
        <path id="Caminho_14570" data-name="Caminho 14570" d="M115.686,105.93h-7.035c-.409,0-.731-.118-.721-.269l.183-2.453c0-.14.333-.258.732-.258h6.691c.4,0,.721.118.731.258l.129,2.453C116.428,105.811,116.106,105.93,115.686,105.93Z" transform="translate(8.174 11.183)" fill="#929496"/>
        <path id="Caminho_14571" data-name="Caminho 14571" d="M124.971,105.94h-7.035c-.409,0-.753-.118-.764-.258L117,103.218c0-.14.3-.258.7-.258h6.723c.4,0,.742.118.775.269l.484,2.453C125.692,105.821,125.38,105.94,124.971,105.94Z" transform="translate(8.861 11.185)" fill="#929496"/>
        <path id="Caminho_14572" data-name="Caminho 14572" d="M134.259,105.949h-7.035c-.409,0-.764-.118-.8-.258l-.538-2.453c0-.151.258-.269.656-.258h6.734c.387,0,.753.118.807.258l.839,2.453C134.969,105.831,134.679,105.949,134.259,105.949Z" transform="translate(9.534 11.186)" fill="#929496"/>
        <path id="Caminho_14573" data-name="Caminho 14573" d="M144,105.95h-7.035c-.409,0-.785-.118-.839-.269l-.914-2.453c-.054-.14.226-.258.624-.258h6.68a1.14,1.14,0,0,1,.85.258l1.3,2.463C144.666,105.843,144.419,105.95,144,105.95Z" transform="translate(10.24 11.185)" fill="#929496"/>
        <path id="Caminho_14574" data-name="Caminho 14574" d="M153.3,105.96h-7.035c-.409,0-.807-.118-.882-.269l-1.269-2.453c-.075-.14.183-.258.581-.258h6.734a1.237,1.237,0,0,1,.882.269l1.571,2.453C153.975,105.842,153.674,105.96,153.3,105.96Z" transform="translate(10.913 11.186)" fill="#929496"/>
        <path id="Caminho_14575" data-name="Caminho 14575" d="M162.586,105.97h-7.035a1.355,1.355,0,0,1-.914-.258L153,103.248c-.1-.151.14-.258.538-.258h6.734a1.42,1.42,0,0,1,.914.258l1.936,2.463C163.242,105.852,163.006,105.97,162.586,105.97Z" transform="translate(11.586 11.188)" fill="#929496"/>
        <path id="Caminho_14576" data-name="Caminho 14576" d="M171.885,105.97h-7.035a1.549,1.549,0,0,1-.957-.258l-1.99-2.453c-.108-.151.118-.269.506-.269h6.734a1.592,1.592,0,0,1,.957.258l2.291,2.453C172.519,105.862,172.293,105.981,171.885,105.97Z" transform="translate(12.26 11.188)" fill="#929496"/>
        <path id="Caminho_14577" data-name="Caminho 14577" d="M181.173,105.98h-7.024a1.635,1.635,0,0,1-1-.269l-2.345-2.453c-.14-.14.075-.258.473-.258H178a1.742,1.742,0,0,1,1,.258l2.646,2.453C181.775,105.862,181.593,105.98,181.173,105.98Z" transform="translate(12.933 11.189)" fill="#929496"/>
        <path id="Caminho_14578" data-name="Caminho 14578" d="M52.066,109.04H40.319c-.441,0-.656-.118-.506-.269l2.689-2.442a1.839,1.839,0,0,1,1.076-.269H54.809c.409,0,.645.118.516.258l-2.238,2.453a1.678,1.678,0,0,1-1.022.269Z" transform="translate(3.012 11.521)" fill="#929496"/>
        <path id="Caminho_14579" data-name="Caminho 14579" d="M61.389,109.05H54.042c-.441,0-.688-.118-.559-.269l2.151-2.442a1.581,1.581,0,0,1,.99-.269h7.1c.42,0,.667.118.549.258L62.4,108.781a1.56,1.56,0,0,1-1.011.269Z" transform="translate(4.048 11.522)" fill="#929496"/>
        <path id="Caminho_14580" data-name="Caminho 14580" d="M71.124,109.059h-7.39c-.43,0-.7-.118-.592-.258l1.829-2.453a1.485,1.485,0,0,1,.947-.258H73c.42,0,.688.118.592.258L72.07,108.8A1.4,1.4,0,0,1,71.124,109.059Z" transform="translate(4.781 11.524)" fill="#929496"/>
        <path id="Caminho_14581" data-name="Caminho 14581" d="M80.855,109.069h-7.39c-.43,0-.71-.118-.624-.258l1.463-2.453a1.312,1.312,0,0,1,.914-.258H82.3c.409,0,.7.118.624.269l-1.162,2.453C81.694,108.951,81.286,109.069,80.855,109.069Z" transform="translate(5.516 11.525)" fill="#929496"/>
        <path id="Caminho_14582" data-name="Caminho 14582" d="M90.617,109.069h-7.38c-.441,0-.731-.118-.667-.258l1.076-2.453c.065-.151.452-.258.871-.258h7.121c.409,0,.71.118.667.258l-.807,2.453C91.445,108.961,91.058,109.069,90.617,109.069Z" transform="translate(6.253 11.525)" fill="#929496"/>
        <path id="Caminho_14583" data-name="Caminho 14583" d="M100.35,109.08h-7.39c-.43,0-.742-.118-.7-.269l.753-2.453c0-.14.409-.258.828-.258h7.078c.42,0,.731.118.71.258l-.452,2.453C101.157,108.961,100.78,109.08,100.35,109.08Z" transform="translate(6.987 11.526)" fill="#929496"/>
        <path id="Caminho_14584" data-name="Caminho 14584" d="M110.083,109.089h-7.39c-.43,0-.764-.108-.742-.258l.4-2.453c0-.14.377-.258.785-.258h7.078c.42,0,.753.108.753.258l-.086,2.453C110.868,108.971,110.513,109.089,110.083,109.089Z" transform="translate(7.721 11.528)" fill="#929496"/>
        <path id="Caminho_14585" data-name="Caminho 14585" d="M119.8,109.1h-7.38c-.441,0-.785-.118-.785-.258v-2.453c0-.14.344-.258.764-.258h7.154c.409,0,.764.118.785.269l.269,2.453C120.633,108.981,120.246,109.1,119.8,109.1Z" transform="translate(8.455 11.529)" fill="#929496"/>
        <path id="Caminho_14586" data-name="Caminho 14586" d="M129.6,109.11h-7.39c-.43,0-.8-.118-.818-.258l-.323-2.453c0-.151.3-.269.721-.269h7.078c.42,0,.785.118.818.258l.635,2.453C130.311,108.991,129.988,109.11,129.6,109.11Z" transform="translate(9.169 11.529)" fill="#929496"/>
        <path id="Caminho_14587" data-name="Caminho 14587" d="M139.779,109.11H132.4c-.43,0-.818-.118-.861-.269l-.7-2.453c0-.14.269-.258.678-.258H138.6c.42,0,.807.118.861.258l1,2.453C140.522,109,140.22,109.11,139.779,109.11Z" transform="translate(9.909 11.529)" fill="#929496"/>
        <path id="Caminho_14588" data-name="Caminho 14588" d="M149.541,109.12h-7.4c-.441,0-.839-.118-.9-.269l-1.076-2.453c-.065-.14.226-.258.645-.258h7.078c.409,0,.818.118.893.269l1.366,2.453C150.262,109,149.971,109.12,149.541,109.12Z" transform="translate(10.615 11.53)" fill="#929496"/>
        <path id="Caminho_14589" data-name="Caminho 14589" d="M159.3,109.129h-7.39a1.366,1.366,0,0,1-.936-.258l-1.409-2.453c-.086-.14.183-.258.6-.258h7.078a1.345,1.345,0,0,1,.936.269l1.721,2.453C160,109.011,159.716,109.129,159.3,109.129Z" transform="translate(11.326 11.532)" fill="#929496"/>
        <path id="Caminho_14590" data-name="Caminho 14590" d="M169.044,109.14h-7.38a1.549,1.549,0,0,1-.979-.258l-1.764-2.453c-.108-.151.151-.269.559-.269h7.057a1.624,1.624,0,0,1,.979.258l2.076,2.453C169.765,109.022,169.485,109.14,169.044,109.14Z" transform="translate(12.034 11.532)" fill="#929496"/>
        <path id="Caminho_14591" data-name="Caminho 14591" d="M185.012,109.15H171.425a1.668,1.668,0,0,1-1.011-.258l-2.151-2.463c-.129-.14.108-.258.527-.258h13.016a1.872,1.872,0,0,1,1.076.258l2.646,2.463C185.668,109.032,185.442,109.15,185.012,109.15Z" transform="translate(12.741 11.533)" fill="#929496"/>
        <path id="Caminho_14592" data-name="Caminho 14592" d="M43.352,118.629H29.916c-.506,0-.775-.118-.613-.258l2.679-2.453a2.238,2.238,0,0,1,1.151-.258H46.042c.473,0,.753.118.624.258l-2.227,2.453a1.99,1.99,0,0,1-1.086.258Z" transform="translate(2.216 13.127)" fill="#929496"/>
        <path id="Caminho_14593" data-name="Caminho 14593" d="M54.024,118.64H45.579c-.506,0-.8-.118-.667-.269l2.151-2.442a1.818,1.818,0,0,1,1.076-.269h8.143c.473,0,.775.118.667.258l-1.883,2.453a1.829,1.829,0,0,1-1.043.269Z" transform="translate(3.4 13.127)" fill="#929496"/>
        <path id="Caminho_14594" data-name="Caminho 14594" d="M65.156,118.65H56.7c-.495,0-.807-.108-.7-.258l1.829-2.453a1.721,1.721,0,0,1,1.076-.258h8.143c.473,0,.8.118.71.258l-1.528,2.453a1.624,1.624,0,0,1-1.076.258Z" transform="translate(4.24 13.128)" fill="#929496"/>
        <path id="Caminho_14595" data-name="Caminho 14595" d="M76.278,118.66H67.833c-.495,0-.828-.118-.742-.258l1.463-2.453a1.571,1.571,0,0,1,1.076-.258h8.122c.484,0,.818.118.742.258L77.332,118.4A1.628,1.628,0,0,1,76.278,118.66Z" transform="translate(5.08 13.129)" fill="#929496"/>
        <path id="Caminho_14596" data-name="Caminho 14596" d="M142.266,118.709H79.2c-.506,0-.85-.118-.785-.258L79.486,116c.065-.14.495-.258.979-.258h60.79c.473,0,.9.118.957.269l.828,2.453C143.127,118.591,142.761,118.709,142.266,118.709Z" transform="translate(5.938 13.133)" fill="#929496"/>
        <path id="Caminho_14597" data-name="Caminho 14597" d="M149.637,118.719h-8.444c-.495,0-.936-.118-.99-.258l-.893-2.453c-.054-.151.29-.258.775-.258h8.143c.473,0,.925.118.99.258l1.194,2.463C150.487,118.6,150.143,118.719,149.637,118.719Z" transform="translate(10.55 13.134)" fill="#929496"/>
        <path id="Caminho_14598" data-name="Caminho 14598" d="M160.753,118.731h-8.445a1.776,1.776,0,0,1-1.076-.258l-1.162-2.453c-.075-.151.258-.269.732-.269h8.143a1.571,1.571,0,0,1,1.076.258l1.549,2.453C161.624,118.612,161.291,118.731,160.753,118.731Z" transform="translate(11.365 13.133)" fill="#929496"/>
        <path id="Caminho_14599" data-name="Caminho 14599" d="M171.954,118.729H163.51a1.7,1.7,0,0,1-1.076-.258l-1.6-2.453c-.1-.14.215-.258.7-.258h8.143a1.764,1.764,0,0,1,1.076.258l1.915,2.453C172.761,118.622,172.449,118.74,171.954,118.729Z" transform="translate(12.179 13.134)" fill="#929496"/>
        <path id="Caminho_14600" data-name="Caminho 14600" d="M183.113,118.74h-8.455a1.807,1.807,0,0,1-1.076-.269l-1.99-2.453c-.118-.14.183-.258.656-.258h8.143a2,2,0,0,1,1.076.258l2.27,2.453C183.866,118.632,183.608,118.74,183.113,118.74Z" transform="translate(12.994 13.135)" fill="#929496"/>
        <path id="Caminho_14601" data-name="Caminho 14601" d="M194.291,118.751h-8.445a1.947,1.947,0,0,1-1.14-.269l-2.324-2.463c-.14-.14.14-.258.613-.258h8.143a2.152,2.152,0,0,1,1.151.258l2.592,2.474C195.065,118.632,194.8,118.751,194.291,118.751Z" transform="translate(13.81 13.135)" fill="#929496"/>
        <path id="Caminho_14602" data-name="Caminho 14602" d="M55.34,112.21H36.891c-.463,0-.7-.118-.538-.269l2.689-2.442a1.882,1.882,0,0,1,1.076-.269H57.857c.43,0,.688.118.57.258l-2.012,2.463a1.71,1.71,0,0,1-1.076.258Z" transform="translate(2.75 12.64)" fill="#929496"/>
        <path id="Caminho_14603" data-name="Caminho 14603" d="M64.88,112.209H57.145c-.463,0-.731-.118-.613-.258L58.5,109.5a1.646,1.646,0,0,1,1-.258h7.433c.441,0,.71.118.613.269l-1.667,2.453A1.549,1.549,0,0,1,64.88,112.209Z" transform="translate(4.28 12.641)" fill="#929496"/>
        <path id="Caminho_14604" data-name="Caminho 14604" d="M75.072,112.21H67.327c-.452,0-.742-.118-.645-.258l1.614-2.453a1.409,1.409,0,0,1,.968-.258h7.444c.43,0,.721.118.645.269l-1.312,2.442C75.954,112.113,75.524,112.21,75.072,112.21Z" transform="translate(5.049 12.641)" fill="#929496"/>
        <path id="Caminho_14605" data-name="Caminho 14605" d="M85.3,112.21H77.57c-.463,0-.764-.118-.7-.258L78.14,109.5c.065-.151.484-.269.914-.269h7.433c.441,0,.742.118.688.258l-.947,2.453C86.165,112.124,85.756,112.21,85.3,112.21Z" transform="translate(5.822 12.64)" fill="#929496"/>
        <path id="Caminho_14606" data-name="Caminho 14606" d="M95.486,112.21H87.751c-.452,0-.775-.118-.721-.269l.9-2.453c0-.14.441-.258.882-.258h7.433c.43,0,.753.118.721.258l-.592,2.453C96.346,112.124,95.948,112.21,95.486,112.21Z" transform="translate(6.591 12.64)" fill="#929496"/>
        <path id="Caminho_14607" data-name="Caminho 14607" d="M105.678,112.209H97.944c-.452,0-.8-.108-.764-.258l.549-2.453c0-.14.409-.258.839-.258H106c.441,0,.785.108.764.258l-.237,2.453C106.517,112.134,106.141,112.209,105.678,112.209Z" transform="translate(7.36 12.641)" fill="#929496"/>
        <path id="Caminho_14608" data-name="Caminho 14608" d="M115.871,112.259h-7.735c-.452,0-.818-.118-.807-.258l.194-2.453c0-.14.366-.258.807-.258h7.433c.43,0,.8.118.8.269l.118,2.453C116.657,112.141,116.323,112.259,115.871,112.259Z" transform="translate(8.129 12.645)" fill="#929496"/>
        <path id="Caminho_14609" data-name="Caminho 14609" d="M126.076,112.269h-7.734c-.452,0-.828-.118-.839-.258l-.172-2.453c0-.151.333-.258.764-.258h7.487c.441,0,.818.118.839.258l.484,2.453C126.872,112.2,126.527,112.269,126.076,112.269Z" transform="translate(8.886 12.646)" fill="#929496"/>
        <path id="Caminho_14610" data-name="Caminho 14610" d="M136.294,112.27h-7.734c-.463,0-.85-.118-.882-.258l-.527-2.453c0-.151.29-.269.731-.269h7.433c.43,0,.828.118.871.258l.839,2.453C137.079,112.205,136.746,112.27,136.294,112.27Z" transform="translate(9.63 12.645)" fill="#929496"/>
        <path id="Caminho_14611" data-name="Caminho 14611" d="M146.512,112.28h-7.734c-.463,0-.871-.118-.925-.269l-.882-2.453c-.054-.14.258-.258.688-.258h7.433c.441,0,.85.118.914.258l1.194,2.453C147.276,112.2,146.964,112.28,146.512,112.28Z" transform="translate(10.373 12.646)" fill="#929496"/>
        <path id="Caminho_14612" data-name="Caminho 14612" d="M156.7,112.289h-7.745c-.452,0-.882-.118-.947-.258l-1.248-2.453c-.075-.14.215-.258.656-.258h7.433a1.334,1.334,0,0,1,.947.269l1.56,2.453C157.475,112.2,157.185,112.289,156.7,112.289Z" transform="translate(11.114 12.647)" fill="#929496"/>
        <path id="Caminho_14613" data-name="Caminho 14613" d="M166.94,112.3h-7.756a1.517,1.517,0,0,1-.99-.258l-1.6-2.453c-.1-.151.183-.258.613-.258h7.433a1.56,1.56,0,0,1,.99.258l1.915,2.463C167.671,112.2,167.4,112.3,166.94,112.3Z" transform="translate(11.858 12.648)" fill="#929496"/>
        <path id="Caminho_14614" data-name="Caminho 14614" d="M177.16,112.31h-7.734a1.71,1.71,0,0,1-1.076-.258l-1.958-2.453c-.118-.151.14-.269.581-.269h7.433a1.754,1.754,0,0,1,1.076.258l2.27,2.453C177.881,112.2,177.612,112.31,177.16,112.31Z" transform="translate(12.6 12.647)" fill="#929496"/>
        <path id="Caminho_14615" data-name="Caminho 14615" d="M187.417,112.31h-7.734a1.764,1.764,0,0,1-1.076-.269l-2.324-2.453c-.14-.14.108-.258.538-.258h7.433a2.011,2.011,0,0,1,1.076.258l2.625,2.453C188.116,112.2,187.868,112.31,187.417,112.31Z" transform="translate(13.348 12.648)" fill="#929496"/>
        <path id="Caminho_14616" data-name="Caminho 14616" d="M59.362,115.439H33.394c-.484,0-.742-.118-.581-.258l2.689-2.453a2.033,2.033,0,0,1,1.076-.258H61.611c.452,0,.742.118.635.269l-1.829,2.453A1.7,1.7,0,0,1,59.362,115.439Z" transform="translate(2.482 12.886)" fill="#929496"/>
        <path id="Caminho_14617" data-name="Caminho 14617" d="M68.759,115.449h-8.1c-.473,0-.775-.118-.667-.258l1.775-2.453a1.592,1.592,0,0,1,1.011-.258h7.788c.463,0,.764.118.678.269l-1.474,2.442A1.524,1.524,0,0,1,68.759,115.449Z" transform="translate(4.542 12.886)" fill="#929496"/>
        <path id="Caminho_14618" data-name="Caminho 14618" d="M79.46,115.449h-8.09c-.473,0-.8-.118-.71-.258l1.441-2.453c.086-.151.527-.258.979-.258H80.87c.452,0,.775.118.71.258L80.5,115.191A1.657,1.657,0,0,1,79.46,115.449Z" transform="translate(5.351 12.886)" fill="#929496"/>
        <path id="Caminho_14619" data-name="Caminho 14619" d="M90.122,115.46H82.054c-.484,0-.818-.118-.753-.269l1.076-2.442c.065-.151.484-.269.947-.269H91.1c.463,0,.8.118.753.258l-.753,2.453C91.014,115.352,90.595,115.46,90.122,115.46Z" transform="translate(6.157 12.886)" fill="#929496"/>
        <path id="Caminho_14620" data-name="Caminho 14620" d="M100.786,115.47H92.7c-.484,0-.828-.118-.8-.269l.7-2.453c0-.14.452-.258.9-.258h7.788c.463,0,.807.118.785.258l-.387,2.442C101.689,115.351,101.259,115.47,100.786,115.47Z" transform="translate(6.96 12.887)" fill="#929496"/>
        <path id="Caminho_14621" data-name="Caminho 14621" d="M111.448,115.479h-8.089c-.484,0-.85-.118-.828-.258l.333-2.453c0-.14.409-.258.871-.258h7.788c.452,0,.818.108.818.258v2.453C112.308,115.361,111.921,115.479,111.448,115.479Z" transform="translate(7.765 12.889)" fill="#929496"/>
        <path id="Caminho_14622" data-name="Caminho 14622" d="M122.107,115.489h-8.046c-.473,0-.861-.118-.861-.258v-2.453c0-.14.377-.258.828-.258h7.788c.463,0,.85.118.861.269l.333,2.453C122.946,115.371,122.58,115.489,122.107,115.489Z" transform="translate(8.573 12.889)" fill="#929496"/>
        <path id="Caminho_14623" data-name="Caminho 14623" d="M132.8,115.5h-8.1c-.473,0-.871-.118-.893-.258l-.376-2.453c0-.151.323-.258.785-.258H132c.452,0,.861.118.893.258l.688,2.453C133.628,115.381,133.273,115.5,132.8,115.5Z" transform="translate(9.348 12.89)" fill="#929496"/>
        <path id="Caminho_14624" data-name="Caminho 14624" d="M143.488,115.5h-8.1c-.473,0-.893-.118-.936-.258l-.731-2.453c0-.151.29-.269.742-.269h7.788c.463,0,.882.118.947.258l1.076,2.453C144.294,115.392,143.961,115.511,143.488,115.5Z" transform="translate(10.127 12.889)" fill="#929496"/>
        <path id="Caminho_14625" data-name="Caminho 14625" d="M154.165,115.51h-8.089c-.473,0-.914-.118-.979-.269l-1.076-2.453c-.065-.14.247-.258.71-.258h7.788a1.463,1.463,0,0,1,.979.258l1.4,2.453C154.961,115.4,154.649,115.51,154.165,115.51Z" transform="translate(10.907 12.89)" fill="#929496"/>
        <path id="Caminho_14626" data-name="Caminho 14626" d="M164.854,115.521h-8.09c-.473,0-.925-.118-1.011-.269L154.3,112.8c-.086-.14.215-.258.678-.258h7.778a1.56,1.56,0,0,1,1.076.258l1.753,2.453C165.639,115.4,165.338,115.521,164.854,115.521Z" transform="translate(11.685 12.89)" fill="#929496"/>
        <path id="Caminho_14627" data-name="Caminho 14627" d="M175.544,115.529h-8.09a1.721,1.721,0,0,1-1.076-.258l-1.807-2.453c-.108-.14.183-.258.635-.258h7.788a1.711,1.711,0,0,1,1.076.269l2.151,2.453C176.308,115.411,176.017,115.529,175.544,115.529Z" transform="translate(12.462 12.892)" fill="#929496"/>
        <path id="Caminho_14628" data-name="Caminho 14628" d="M191.192,115.539H178.229a1.893,1.893,0,0,1-1.076-.258L175,112.828c-.118-.151.14-.258.6-.258h12.521a2.044,2.044,0,0,1,1.076.269l2.625,2.453C191.934,115.421,191.665,115.539,191.192,115.539Z" transform="translate(13.252 12.893)" fill="#929496"/>
        <path id="Caminho_14629" data-name="Caminho 14629" d="M240.179,130.365c-.613.559-2.571.925-5.379.925L5.529,131.064c-2.765,0-4.712-.366-5.325-.914-.925.957,1.355,1.71,5.325,1.721l229.3.269C238.812,132.14,241.1,131.333,240.179,130.365Z" transform="translate(0.001 14.225)" fill="#f1f2f2"/>
        <path id="Caminho_14630" data-name="Caminho 14630" d="M198.456,6.519a6.454,6.454,0,0,0-6.39-6.4L42.485,0A6.325,6.325,0,0,0,39,1.076L198.38,102.958Z" transform="translate(2.954 0)" fill="#fff" opacity="0.03"/>
      </g>
    </g>
    <g id="Grupo_3381" data-name="Grupo 3381" transform="translate(-1989.162 -4034.012)">
      <g id="Grupo_3380" data-name="Grupo 3380" transform="translate(0 0)">
        <path id="Caminho_14540" data-name="Caminho 14540" d="M18.751,37.987l14.136-5.692a.932.932,0,0,0,.529-1.18l-.2-.552a.273.273,0,0,1,.042-.255c2.839-3.716.9-8.666.9-8.666l-2.848-7.286L31.3,14.32c-.054-.25-.851-3.715-3.435-3.715a3.268,3.268,0,0,0-2.76,1.229.276.276,0,0,1-.487-.091c-.179-.747-.768-1.692-2.577-1.9a2.693,2.693,0,0,0-3.124,1.718.273.273,0,0,1-.5.024c-.649-1.346-2.033-2.908-3.78-2.325a3.156,3.156,0,0,0-2,1.76.274.274,0,0,1-.51,0L9.221,3.556S7.823-.931,4.909.176,3.569,5.129,3.569,5.129l6.71,17.727a.274.274,0,0,1-.4.325l-3.2-1.925-.034-.024c-.231-.2-3.617-3.085-5.755-.833s.214,4.7.4,4.883l.029.024L17.2,36.841l.088.106.266.568A.932.932,0,0,0,18.751,37.987Z" transform="matrix(0.999, 0.035, -0.035, 0.999, 9.932, 13.866)" fill="#183456"/>
        <path id="Caminho_14541" data-name="Caminho 14541" d="M20.791,7.791,17.606.622A1.049,1.049,0,0,0,16.257.076L.657,6.357A1.047,1.047,0,0,0,.1,7.768L3.344,14.8a1.047,1.047,0,0,0,1.336.536L20.225,9.19a1.047,1.047,0,0,0,.567-1.4Z" transform="matrix(0.999, 0.035, -0.035, 0.999, 26.514, 47.504)" fill="#183456"/>
        <path id="Caminho_14542" data-name="Caminho 14542" d="M2.057,7.55A1.865,1.865,0,1,0,5.538,6.209L3.589,1.152A1.865,1.865,0,0,0,.108,2.491Z" transform="matrix(0.999, 0.035, -0.035, 0.999, 8.522, 0)" fill="#183456"/>
        <path id="Caminho_14543" data-name="Caminho 14543" d="M1.109,3.57l4.953,2.2A1.865,1.865,0,0,0,7.577,2.361L2.622.161a1.865,1.865,0,1,0-1.513,3.41Z" transform="matrix(0.999, 0.035, -0.035, 0.999, 0.785, 6.824)" fill="#183456"/>
        <path id="Caminho_14544" data-name="Caminho 14544" d="M7.577,2.369,2.622.161a1.865,1.865,0,1,0-1.513,3.41L6.061,5.778A1.865,1.865,0,1,0,7.576,2.369Z" transform="matrix(0.999, 0.035, -0.035, 0.999, 20.218, 16.228)" fill="#183456"/>
        <path id="Caminho_14545" data-name="Caminho 14545" d="M8.715,1.2A1.864,1.864,0,0,0,6.3.127L1.24,2.075A1.865,1.865,0,1,0,2.58,5.556L7.638,3.608A1.864,1.864,0,0,0,8.715,1.2Z" transform="matrix(0.999, 0.035, -0.035, 0.999, 0.199, 15.194)" fill="#183456"/>
        <path id="Caminho_14546" data-name="Caminho 14546" d="M.126,4.485a1.864,1.864,0,0,0,2.411,1.07L7.6,3.607A1.866,1.866,0,0,0,6.248.126L1.189,2.075A1.865,1.865,0,0,0,.126,4.485Z" transform="matrix(0.999, 0.035, -0.035, 0.999, 20.639, 8.103)" fill="#183456"/>
        <path id="Caminho_14547" data-name="Caminho 14547" d="M3.572,7.576l2.2-4.953A1.865,1.865,0,1,0,2.361,1.108L.161,6.063a1.865,1.865,0,1,0,3.41,1.513Z" transform="matrix(0.999, 0.035, -0.035, 0.999, 7.222, 19.914)" fill="#183456"/>
        <path id="Caminho_14548" data-name="Caminho 14548" d="M1.107,8.525a1.846,1.846,0,0,0,.757.162,1.865,1.865,0,0,0,1.7-1.108l2.2-4.955A1.865,1.865,0,1,0,2.359,1.108L.16,6.065A1.865,1.865,0,0,0,1.107,8.525Z" transform="matrix(0.999, 0.035, -0.035, 0.999, 16.628, 0.481)" fill="#183456"/>
      </g>
    </g>
  </g>
</svg>
