<svg xmlns="http://www.w3.org/2000/svg" width="507.133" height="523.511" viewBox="0 0 507.133 523.511">
  <g id="export" transform="translate(0)">
    <g id="Camada_2" data-name="Camada 2" transform="translate(0 0)">
      <g id="Layer_1" data-name="Layer 1" transform="translate(0)">
        <path id="Caminho_10895" data-name="Caminho 10895" d="M484.8,1603.762c84.5,0,129.265,16.066,45.958,20.117-64.451,3.135-125.5,19.237-56.086,22.71s-43.856,37.951-164.847,16.743c-100.039-17.535-58.977-8.467-121.273-6.994-96.442,2.286-172.668-45.938-34.769-49.042C359.958,1602.662,484.8,1603.762,484.8,1603.762Z" transform="translate(-78.445 -1146.672)" fill="#1f6565"/>
        <path id="Caminho_10896" data-name="Caminho 10896" d="M490.192,389.769c-44.757,36.254-117.678,34.81-187.909-1.547-59.605,38.964-132.971,39.8-183.267,3.094-4.871-3.556-54.744-41.221-58-105.942-.22-4.334-2.287-63.888,40.984-106.712,72.762-72.025,182.6-6.539,240.258-76.117,29.845-36.016,30.5-89.852,59.724-92.552,10.853-1.01,20.04,5.57,26.988,11.408,27.655,23.22,141.486,136.863,106.073,282.534C528.21,332.029,520.058,365.57,490.192,389.769Z" transform="translate(-60.941 47.085)" fill="#206668" opacity="0.2"/>
        <circle id="Elipse_1257" data-name="Elipse 1257" cx="42.234" cy="42.234" r="42.234" transform="translate(359.971 197.702) rotate(-135)" fill="#1f6565"/>
        <ellipse id="Elipse_1258" data-name="Elipse 1258" cx="35.073" cy="35.073" rx="35.073" ry="35.073" transform="translate(55.626 106.027) rotate(-99.12)" fill="#1f6565"/>
        <ellipse id="Elipse_1259" data-name="Elipse 1259" cx="17.203" cy="17.203" rx="17.203" ry="17.203" transform="translate(86.12 154.288) rotate(-99.17)" fill="#1f6565"/>
        <ellipse id="Elipse_1260" data-name="Elipse 1260" cx="12.362" cy="12.362" rx="12.362" ry="12.362" transform="translate(27.075 28.376) rotate(-99.25)" fill="#1f6565"/>
        <path id="Caminho_10897" data-name="Caminho 10897" d="M685.659,652.63H350.352a3.531,3.531,0,0,0-3.542,3.518V874.307H689.193V656.148a3.531,3.531,0,0,0-3.534-3.518Z" transform="translate(-273.317 -443.9)" fill="#cce9f1"/>
        <rect id="Retângulo_546" data-name="Retângulo 546" width="306.3" height="188.446" rx="6.5" transform="translate(91.538 227.386)" fill="#a8cfef"/>
        <path id="Caminho_10898" data-name="Caminho 10898" d="M244,1495.14H640.48a42.627,42.627,0,0,1-42.627,42.627H286.63A42.627,42.627,0,0,1,244,1495.14Z" transform="translate(-197.552 -1064.72)" fill="#a8d9e5"/>
        <path id="Caminho_10899" data-name="Caminho 10899" d="M824.919,1514.759h61.836a19.619,19.619,0,0,0,19.619-19.619H805.31A19.619,19.619,0,0,0,824.919,1514.759Z" transform="translate(-611.143 -1064.719)" fill="#85c8d3"/>
        <path id="Caminho_10900" data-name="Caminho 10900" d="M968.37,673.937a5.6,5.6,0,1,0,5.6-5.6,5.6,5.6,0,0,0-5.6,5.6Z" transform="translate(-727.244 -455.476)" fill="#e6e9f8"/>
        <path id="Caminho_10901" data-name="Caminho 10901" d="M286.42,1495.128a42.6,42.6,0,0,0,42.627,42.614H640.273a42.579,42.579,0,0,0,30.15-12.464c.45-.448.9-.895,1.316-1.379a49.25,49.25,0,0,0-11.233-1.053q-147.38-.113-294.8-.187c-11.23,0-23.024-.15-32.949-5.449-5.671-3.021-11.493-8.844-13.1-15.3a10.443,10.443,0,0,1,.374-6.791Z" transform="translate(-239.972 -1064.705)" opacity="0.1"/>
        <path id="Caminho_10902" data-name="Caminho 10902" d="M1097.58,1092v48.25a10.833,10.833,0,0,0,10.844,10.846h97.024a10.831,10.831,0,0,0,10.825-10.846v-62.22a10.831,10.831,0,0,0-10.825-10.846h-25.861a10.819,10.819,0,0,0-9.88,6.4l-.545,1.2a10.818,10.818,0,0,1-9.881,6.4h-50.853a10.4,10.4,0,0,0-4.047.79A10.788,10.788,0,0,0,1097.58,1092Z" transform="translate(-997.948 -749.369)" fill="#183456"/>
        <path id="Caminho_10903" data-name="Caminho 10903" d="M1402.073,798.9H1265.542a8.462,8.462,0,0,0-8.462,8.462v88.9a8.46,8.46,0,0,0,8.462,8.446h136.531a8.46,8.46,0,0,0,8.46-8.46V807.36A8.46,8.46,0,0,0,1402.073,798.9Z" transform="translate(-1234.177 -551.682)" fill="#216c4b"/>
        <path id="Caminho_10904" data-name="Caminho 10904" d="M1257.07,1010.272v13.212a8.507,8.507,0,0,0,8.46,8.462H1402.06a8.509,8.509,0,0,0,8.462-8.462v-22.947l-46.361-28.976-34.191,24.919-30.018-17.385Z" transform="translate(-1234.164 -678.909)" fill="#fff"/>
        <ellipse id="Elipse_1261" data-name="Elipse 1261" cx="14.246" cy="14.246" rx="14.246" ry="14.246" transform="translate(50.552 287.467) rotate(-152.96)" fill="#fff"/>
        <path id="Caminho_10905" data-name="Caminho 10905" d="M1081.68,1102.366v48.248a10.833,10.833,0,0,0,10.846,10.846h97.021a10.828,10.828,0,0,0,10.826-10.846v-62.22a10.826,10.826,0,0,0-10.826-10.844h-25.865a10.818,10.818,0,0,0-9.881,6.4l-.545,1.2a10.82,10.82,0,0,1-9.88,6.4h-50.85a10.423,10.423,0,0,0-4.05.789A10.789,10.789,0,0,0,1081.68,1102.366Z" transform="translate(-977.864 -757.01)" fill="#4c929b"/>
        <path id="Caminho_10906" data-name="Caminho 10906" d="M512.34,618.3V802.374H648.1V618.3a3.683,3.683,0,0,0-3.468-3.865H515.811A3.682,3.682,0,0,0,512.34,618.3Z" transform="translate(-275.782 -415.751)" fill="#f2f2f2"/>
        <rect id="Retângulo_547" data-name="Retângulo 547" width="46.256" height="12.67" transform="translate(308.945 229.376)" fill="#206668"/>
        <rect id="Retângulo_548" data-name="Retângulo 548" width="96.459" height="12.67" transform="translate(258.742 253.655)" fill="#206668"/>
        <rect id="Retângulo_549" data-name="Retângulo 549" width="79.589" height="12.67" transform="translate(275.612 274.81)" fill="#206668"/>
        <rect id="Retângulo_550" data-name="Retângulo 550" width="49.64" height="39.862" transform="translate(263.821 296.708)" fill="#206668"/>
        <path id="Caminho_10907" data-name="Caminho 10907" d="M578.683,1193.662a16.064,16.064,0,0,1-31.344,4.971,15.564,15.564,0,0,1-.789-4.971,16.07,16.07,0,0,1,16.075-16.072,15.825,15.825,0,0,1,6.547,1.41A16.072,16.072,0,0,1,578.683,1193.662Z" transform="translate(-215.365 -830.727)" fill="#e4e4e4"/>
        <path id="Caminho_10908" data-name="Caminho 10908" d="M583.485,1221.093a9.764,9.764,0,1,1,0-19.528,10,10,0,0,1,4.721,1.211l-1.668,3.1a6.455,6.455,0,0,0-3.052-.789,6.246,6.246,0,1,0,0,12.492,6.459,6.459,0,0,0,3.052-.791l1.668,3.1A9.974,9.974,0,0,1,583.485,1221.093Z" transform="translate(-235.386 -848.393)" fill="#fff"/>
        <path id="Caminho_10909" data-name="Caminho 10909" d="M13.864,1009.7a13.862,13.862,0,0,1,13.862,13.862v7H0v-6.994A13.862,13.862,0,0,1,13.864,1009.7Z" transform="translate(479.406 -707.014)" fill="#1f6565"/>
        <path id="Caminho_10910" data-name="Caminho 10910" d="M185.773,1412.35h52.495v6.994a13.862,13.862,0,0,0,13.862,13.862H171.912a13.86,13.86,0,0,1-13.862-13.864v-6.991Z" transform="translate(213.415 -1003.714)" fill="#1f6565"/>
        <path id="Caminho_10911" data-name="Caminho 10911" d="M105.175,1122.622v-6.994H52.68v-92.1a13.862,13.862,0,0,1,13.862-13.862h80.221a13.862,13.862,0,0,0-13.864,13.864v99.079a13.862,13.862,0,0,1-27.723,0Z" transform="translate(346.508 -706.992)" fill="#4c929b"/>
        <path id="Caminho_10912" data-name="Caminho 10912" d="M151.657,1108.994a3.771,3.771,0,0,1-1.11,2.91,4.468,4.468,0,0,1-3.158,1.026h-.863v3.729H143.5V1105.42h3.889a4.762,4.762,0,0,1,3.2.929A3.315,3.315,0,0,1,151.657,1108.994Zm-5.131,1.458h.553a1.51,1.51,0,0,0,1.089-.384,1.4,1.4,0,0,0,.4-1.052q0-1.137-1.26-1.137h-.789Z" transform="translate(265.722 -777.547)" fill="#33464d"/>
        <path id="Caminho_10913" data-name="Caminho 10913" d="M184.8,1116.516l-.553-2.1h-3.652l-.568,2.1H176.69l3.668-11.286H184.4l3.715,11.286Zm-1.184-4.6-.484-1.842q-.168-.616-.41-1.592c-.161-.652-.263-1.118-.318-1.4-.047.263-.137.692-.263,1.292s-.437,1.781-.9,3.544Z" transform="translate(241.265 -777.407)" fill="#33464d"/>
        <path id="Caminho_10914" data-name="Caminho 10914" d="M227.411,1116.648h-3.036v-8.757H221.63v-2.481h8.518v2.481h-2.737Z" transform="translate(208.15 -777.539)" fill="#33464d"/>
        <path id="Caminho_10915" data-name="Caminho 10915" d="M266.783,1116.648H260.11V1105.41h6.673v2.437h-3.637v1.768h3.366v2.437h-3.366v2.121h3.637Z" transform="translate(179.795 -777.539)" fill="#33464d"/>
        <path id="Caminho_10916" data-name="Caminho 10916" d="M303.688,1116.626H299.7l-4.1-7.925h-.068q.147,1.868.145,2.852v5.065H293V1105.38h3.947l4.092,7.81h.045q-.105-1.7-.108-2.729v-5.081h2.708Z" transform="translate(155.56 -777.517)" fill="#33464d"/>
        <path id="Caminho_10917" data-name="Caminho 10917" d="M345.5,1116.648h-3.039v-8.757H339.72v-2.481h8.52v2.481H345.5Z" transform="translate(121.133 -777.539)" fill="#33464d"/>
        <rect id="Retângulo_551" data-name="Retângulo 551" width="60.152" height="3.115" transform="translate(409.222 347.845)" fill="#33464d"/>
        <rect id="Retângulo_552" data-name="Retângulo 552" width="60.152" height="3.115" transform="translate(409.222 357.039)" fill="#33464d"/>
        <rect id="Retângulo_553" data-name="Retângulo 553" width="60.152" height="3.115" transform="translate(409.222 366.23)" fill="#33464d"/>
        <rect id="Retângulo_554" data-name="Retângulo 554" width="60.152" height="3.115" transform="translate(409.222 375.424)" fill="#33464d"/>
        <path id="Caminho_10918" data-name="Caminho 10918" d="M143.49,1339.234a8.844,8.844,0,1,0,8.843-8.844,8.844,8.844,0,0,0-8.843,8.844Z" transform="translate(308.198 -943.32)" fill="#183456"/>
        <path id="Caminho_10919" data-name="Caminho 10919" d="M163.937,1393.779a8.794,8.794,0,0,0,4.7-1.379v8.933l-4.7-3.647-4.707,3.647V1392.4A8.791,8.791,0,0,0,163.937,1393.779Z" transform="translate(296.592 -989.013)" fill="#f9c001"/>
        <path id="Caminho_10920" data-name="Caminho 10920" d="M155.39,1348a5.713,5.713,0,1,0,5.71-5.713A5.713,5.713,0,0,0,155.39,1348Z" transform="translate(299.43 -952.089)" fill="#f9c001"/>
        <path id="Caminho_10921" data-name="Caminho 10921" d="M169.351,1027.739H89.13A13.856,13.856,0,0,1,91.7,1024.4h80.221a13.846,13.846,0,0,0-2.571,3.339Z" transform="translate(311.758 -717.846)" fill="#fff7db"/>
        <path id="Caminho_10922" data-name="Caminho 10922" d="M183.888,1052.764v4.963H103.67v-4.963a13.8,13.8,0,0,1,.447-3.434h80.218A13.8,13.8,0,0,0,183.888,1052.764Z" transform="translate(295.518 -736.216)" fill="#fff7db"/>
        <path id="Caminho_10923" data-name="Caminho 10923" d="M238.231,1467.93a13.846,13.846,0,0,0,11.578,6.231H169.578A13.843,13.843,0,0,1,158,1467.93Z" transform="translate(215.749 -1044.67)" fill="#05111f" opacity="0.33"/>
        <path id="Caminho_10924" data-name="Caminho 10924" d="M0,1011.584a13.849,13.849,0,0,1,20.816,11.98v7H6.91v-6.994A13.843,13.843,0,0,0,0,1011.584Z" transform="translate(486.316 -707.016)" fill="#16494e" opacity="0.69"/>
        <path id="Caminho_10925" data-name="Caminho 10925" d="M1137.534,1132.9v4.963h-3.684v-13.62h4.473q5.549,0,5.552,4.023a4.022,4.022,0,0,1-2.31,3.663l3.968,5.934h-4.173l-2.895-4.955Zm0-2.768h.69q1.929,0,1.929-1.705,0-1.4-1.892-1.405h-.726Z" transform="translate(-936.752 -791.415)" fill="#183456"/>
        <path id="Caminho_10926" data-name="Caminho 10926" d="M1137.564,1138.984h.931l2.894,4.955h4.173l-3.968-5.933a4.029,4.029,0,0,0,2.31-3.663,4.124,4.124,0,0,0-.392-1.842l-9.623,9.623v1.823h3.684Z" transform="translate(-936.781 -797.501)" fill="#183456"/>
        <path id="Caminho_10927" data-name="Caminho 10927" d="M1491.536,916.411a48.323,48.323,0,1,0-93.648,16.782h0l.024.05a48.21,48.21,0,0,0,3.018,6.555l18.259,34.707h48.287C1473,964.819,1485.5,939.8,1485.5,939.8a48.191,48.191,0,0,0,3.018-6.552l.024-.053h0A48.226,48.226,0,0,0,1491.536,916.411Z" transform="translate(-1351.442 -602.665)" fill="#f9c001"/>
        <path id="Caminho_10928" data-name="Caminho 10928" d="M1534.451,1372.026a3.7,3.7,0,0,0-5.494-1.45c-8.568,6.089-31.152,9.446-39.136,10.23a3.461,3.461,0,0,0-2.1.976,1.392,1.392,0,0,0,0,2.008,3.563,3.563,0,0,0,2.45.979h21.206c8.049-1.813,16.556-4.442,21.766-8.11A3.766,3.766,0,0,0,1534.451,1372.026Z" transform="translate(-1418.994 -972.428)" fill="#33464d"/>
        <path id="Caminho_10929" data-name="Caminho 10929" d="M1491.086,1359.9a3.688,3.688,0,1,1-.358-7.368c7.983-.789,30.568-4.142,39.136-10.23a3.7,3.7,0,0,1,4.281,6.026c-11.923,8.475-41.446,11.441-42.7,11.562A3.294,3.294,0,0,1,1491.086,1359.9Z" transform="translate(-1419.9 -951.597)" fill="#27353b"/>
        <path id="Caminho_10930" data-name="Caminho 10930" d="M1490.188,1331.7a3.688,3.688,0,0,1-.358-7.368c7.981-.789,30.568-4.142,39.133-10.231a3.7,3.7,0,0,1,4.284,6.026c-11.922,8.475-41.446,11.441-42.7,11.562C1490.417,1331.695,1490.306,1331.7,1490.188,1331.7Z" transform="translate(-1418.766 -930.816)" fill="#33464d"/>
        <path id="Caminho_10931" data-name="Caminho 10931" d="M1490.135,1303.255a3.688,3.688,0,1,1-.358-7.368c7.983-.789,30.568-4.142,39.135-10.231a3.7,3.7,0,1,1,4.281,6.026c-11.92,8.475-41.446,11.441-42.7,11.562C1490.377,1303.247,1490.254,1303.255,1490.135,1303.255Z" transform="translate(-1418.7 -909.854)" fill="#27353b"/>
        <path id="Caminho_10932" data-name="Caminho 10932" d="M1538.176,1462.171h-.608c-5.878,0-11.083-3.1-12.872-7.686l-1.516-3.865h29.384l-1.513,3.865C1549.259,1459.066,1544.054,1462.171,1538.176,1462.171Z" transform="translate(-1446.227 -1031.914)" fill="#006577"/>
        <g id="Grupo_3148" data-name="Grupo 3148" transform="translate(89.257 418.706)">
          <path id="Caminho_10933" data-name="Caminho 10933" d="M1523.18,1462.035a16.545,16.545,0,0,0,2.084.137h.608c5.878,0,11.083-3.1,12.875-7.683l1.513-3.868h-10.028C1529.834,1454.667,1528.2,1459.464,1523.18,1462.035Z" transform="translate(-1523.18 -1450.62)" fill="#bdd4cf"/>
        </g>
        <path id="Caminho_10934" data-name="Caminho 10934" d="M1501.27,1426.44l2.221,4.349a3.7,3.7,0,0,0,3.289,2.013h29.9a3.683,3.683,0,0,0,3.286-2.013l2.221-4.349Z" transform="translate(-1430.082 -1014.096)" fill="#27353b"/>
        <path id="Caminho_10935" data-name="Caminho 10935" d="M.637,14.03H47.666a.639.639,0,0,0,.639-.639V0H0V13.391a.639.639,0,0,0,.637.639Z" transform="translate(67.743 371.837)" fill="#33464d"/>
        <path id="Caminho_10936" data-name="Caminho 10936" d="M1507.424,1398.71c-5.262,3.244-13.08,5.623-20.524,7.3h19.708a3.684,3.684,0,0,0,.813-7.3Z" transform="translate(-1394.509 -993.663)" fill="#27353b"/>
        <path id="Caminho_10947" data-name="Caminho 10947" d="M1451.934,916.411c0-26.687-20.878-48.321-46.633-48.321a45.063,45.063,0,0,0-10.411,1.224c20.743,4.9,36.227,24.118,36.227,47.1a49.782,49.782,0,0,1-2.892,16.782h0l-.023.053a48.654,48.654,0,0,1-2.913,6.552s-12.056,25.021-17.391,34.707h20.8c5.333-9.686,17.393-34.707,17.393-34.707a48.97,48.97,0,0,0,2.913-6.552l.023-.053h0A49.789,49.789,0,0,0,1451.934,916.411Z" transform="translate(-1311.84 -602.665)" fill="rgba(63,48,0,0.39)" opacity="0.46"/>
        <path id="Caminho_10937" data-name="Caminho 10937" d="M1469.62,1067.458V1049.51h4.873v17.948Z" transform="translate(-1406.511 -736.348)" fill="#fff"/>
        <path id="Caminho_10938" data-name="Caminho 10938" d="M1473.344,1066.712h-4.873a.411.411,0,0,1-.411-.411v-17.948a.413.413,0,0,1,.411-.413h4.873a.413.413,0,0,1,.41.413V1066.3A.411.411,0,0,1,1473.344,1066.712Zm-4.473-.821h4.052v-17.127h-4.052Z" transform="translate(-1405.361 -735.191)" fill="#fff"/>
        <path id="Caminho_10939" data-name="Caminho 10939" d="M1518.116,1058.1q0,4.491-2.474,6.923a9.5,9.5,0,0,1-6.954,2.432h-5.807V1049.51h6.212a9.374,9.374,0,0,1,6.673,2.21A8.329,8.329,0,0,1,1518.116,1058.1Zm-5.034.171a5.7,5.7,0,0,0-.976-3.657,3.6,3.6,0,0,0-2.963-1.192h-1.413v10.054h1.082a3.9,3.9,0,0,0,3.239-1.284A6.218,6.218,0,0,0,1513.082,1058.275Z" transform="translate(-1431.019 -736.348)" fill="#fff"/>
        <path id="Caminho_10940" data-name="Caminho 10940" d="M1507.588,1066.712h-5.807a.411.411,0,0,1-.411-.411v-17.948a.413.413,0,0,1,.411-.413h6.213a9.829,9.829,0,0,1,6.952,2.323,8.769,8.769,0,0,1,2.481,6.681,9.7,9.7,0,0,1-2.6,7.218A9.956,9.956,0,0,1,1507.588,1066.712Zm-5.4-.821h5.4a9.18,9.18,0,0,0,6.665-2.315,8.909,8.909,0,0,0,2.352-6.631,7.981,7.981,0,0,0-2.221-6.081,9.054,9.054,0,0,0-6.391-2.105H1502.2Zm5.525-3.157h-1.081a.41.41,0,0,1-.411-.41v-10.054a.411.411,0,0,1,.411-.411h1.413a4.011,4.011,0,0,1,3.281,1.342,6.04,6.04,0,0,1,1.068,3.918,6.609,6.609,0,0,1-1.121,4.178,4.411,4.411,0,0,1-3.579,1.437Zm-.671-.821h.671a3.5,3.5,0,0,0,2.921-1.129,5.908,5.908,0,0,0,.939-3.666,5.337,5.337,0,0,0-.884-3.4,3.16,3.16,0,0,0-2.631-1.052h-1Z" transform="translate(-1429.906 -735.191)" fill="#fff"/>
        <path id="Caminho_10941" data-name="Caminho 10941" d="M1581.264,1067.458H1570.61V1049.51h10.654v3.892h-5.815v2.815h5.378v3.892h-5.378v3.386h5.807Z" transform="translate(-1480.927 -736.348)" fill="#fff"/>
        <path id="Caminho_10942" data-name="Caminho 10942" d="M1580.114,1066.712H1569.46a.411.411,0,0,1-.41-.411v-17.948a.413.413,0,0,1,.41-.413h10.654a.413.413,0,0,1,.411.413v3.889a.413.413,0,0,1-.411.413h-5.394v2h4.965a.413.413,0,0,1,.4.405v3.892a.411.411,0,0,1-.411.41h-4.957v2.571h5.394a.411.411,0,0,1,.411.41v3.947a.41.41,0,0,1-.411.421Zm-10.244-.821h9.833v-3.131h-5.4a.413.413,0,0,1-.413-.41v-3.392a.413.413,0,0,1,.413-.411h4.965v-3.068H1574.3a.416.416,0,0,1-.413-.413v-2.823a.416.416,0,0,1,.413-.41h5.394v-3.068h-9.833Z" transform="translate(-1479.777 -735.191)" fill="#fff"/>
        <path id="Caminho_10943" data-name="Caminho 10943" d="M1631.021,1067.252l-.884-3.365h-5.831l-.908,3.365h-5.328l5.857-18.021h6.468l5.931,18.021Zm-1.89-7.341-.774-2.947q-.263-.982-.658-2.542t-.508-2.234c-.074.418-.221,1.1-.437,2.063s-.7,2.844-1.442,5.66Z" transform="translate(-1515.899 -736.142)" fill="#fff"/>
        <path id="Caminho_10944" data-name="Caminho 10944" d="M1635.21,1066.535h-5.3a.413.413,0,0,1-.4-.308l-.789-3.058h-5.2l-.829,3.063a.408.408,0,0,1-.395.3h-5.328a.41.41,0,0,1-.389-.526l5.855-18.025a.413.413,0,0,1,.389-.284h6.47a.411.411,0,0,1,.39.284l5.931,18.022a.413.413,0,0,1-.39.526Zm-5-.821h4.421l-5.66-17.2H1623.1l-5.589,17.2h4.447l.829-3.063a.41.41,0,0,1,.395-.3h5.831a.416.416,0,0,1,.4.308Zm-2.2-6.523H1624.2a.411.411,0,0,1-.326-.161.405.405,0,0,1-.071-.353c.753-2.852,1.224-4.7,1.437-5.647s.36-1.629.434-2.042a.408.408,0,0,1,.4-.339h0a.408.408,0,0,1,.4.337c.082.442.263,1.187.505,2.21s.474,1.879.653,2.531l.776,2.95a.413.413,0,0,1-.395.513Zm-3.287-.821h2.752l-.637-2.428q-.263-.979-.658-2.547l-.1-.4-.047.219c-.192.9-.621,2.589-1.3,5.157Z" transform="translate(-1514.783 -735.015)" fill="#fff"/>
        <path id="Caminho_10945" data-name="Caminho 10945" d="M1648.228,1157.7a.41.41,0,0,1-.411-.411v-18.1a11.967,11.967,0,0,0-2.326-7.1l-11.194-15.261a.411.411,0,1,1,.661-.484l11.194,15.262a12.766,12.766,0,0,1,2.486,7.6v18.1A.41.41,0,0,1,1648.228,1157.7Z" transform="translate(-1571.514 -785.454)" fill="#fff"/>
        <path id="Caminho_10946" data-name="Caminho 10946" d="M1468.41,1157.682a.41.41,0,0,1-.411-.411v-18.1a12.752,12.752,0,0,1,2.489-7.6l11.193-15.262a.411.411,0,1,1,.66.484l-11.194,15.262a11.949,11.949,0,0,0-2.328,7.1v18.1a.41.41,0,0,1-.411.418Z" transform="translate(-1361.584 -785.432)" fill="#fff"/>
        <path id="Caminho_10948" data-name="Caminho 10948" d="M1489.326,1272.51v10.962a3.068,3.068,0,0,1-3.066,3.068h13.351a4.141,4.141,0,0,0,4.142-4.144v-9.886Z" transform="translate(-1387.702 -900.67)" fill="#bdd4cf"/>
        <path id="Caminho_10949" data-name="Caminho 10949" d="M1640.621,1140.61c-20.3,0-36.751,6.542-36.751,14.609V1184.6a45.5,45.5,0,0,0,18.97,36.97l16.26,11.678a2.608,2.608,0,0,0,3.042,0l16.267-11.681a45.508,45.508,0,0,0,18.964-36.967v-29.379C1677.373,1147.151,1660.919,1140.61,1640.621,1140.61Z" transform="translate(-1592.268 -803.477)" fill="#006577"/>
        <path id="Caminho_10950" data-name="Caminho 10950" d="M1603.87,1229.694v2.529c7.407-1.168,21.377-1.942,36.752-1.942s29.344.774,36.751,1.942v-2.529c-7.668-1.179-21.353-1.934-36.751-1.934S1611.54,1228.515,1603.87,1229.694Z" transform="translate(-1592.268 -867.695)" fill="#f0e2b1"/>
        <path id="Caminho_10951" data-name="Caminho 10951" d="M1606.86,1334.4c.131.708.289,1.41.455,2.1,5.589-1.053,19.735-1.774,35.507-1.774s29.921.727,35.507,1.774c.166-.7.324-1.4.458-2.1-5.852-1.1-19.877-1.842-35.965-1.842S1612.7,1333.3,1606.86,1334.4Z" transform="translate(-1594.469 -944.919)" fill="#f0e2b1"/>
        <path id="Caminho_10952" data-name="Caminho 10952" d="M1603.94,1141.86c3.839.987,13.738,4.531,13.738,14.869v43.235s1.445,15.122-11.686,28.252l7.981-5.731a45.49,45.49,0,0,0,12.893-14.275h0a45.521,45.521,0,0,0,6.052-22.693V1156.14C1632.937,1149.13,1620.513,1143.276,1603.94,1141.86Z" transform="translate(-1547.833 -804.398)" fill="#bdd4cf" opacity="0.4"/>
        <path id="Caminho_10953" data-name="Caminho 10953" d="M1840.926,1166.772a.353.353,0,0,0-.421-.5c-6.486,2.271-10.157,5.263-10.157,7.841V1202.6a43.955,43.955,0,0,0,5.578,21.869,42.284,42.284,0,0,0,4.076,5.9.347.347,0,0,0,.595-.324,36.949,36.949,0,0,1-1.579-12.243v-43.1a16.572,16.572,0,0,1,1.908-7.931Z" transform="translate(-1815.457 -822.372)" fill="#9cafab" opacity="0.46"/>
        <rect id="Retângulo_555" data-name="Retângulo 555" width="84.623" height="115.138" rx="8.5" transform="translate(130.095 135.462)" fill="#1f6565"/>
        <path id="Caminho_10954" data-name="Caminho 10954" d="M1237.7,422.69h-30.923a2.336,2.336,0,0,0-2.337,2.337v1.224a2.339,2.339,0,0,0,2.339,2.339H1237.7a2.339,2.339,0,0,0,2.339-2.339v-1.224a2.337,2.337,0,0,0-2.339-2.337Z" transform="translate(-1049.832 -274.464)" fill="#f0e2b1"/>
        <rect id="Retângulo_556" data-name="Retângulo 556" width="49.221" height="5.899" rx="2.95" transform="translate(147.796 158.296)" fill="#f0e2b1"/>
        <path id="Caminho_10955" data-name="Caminho 10955" d="M1132.159,584.743v.263h41.285a2.239,2.239,0,0,0,2.237-2.237v-67.3a5.507,5.507,0,0,0-2.7,4.752v21.314a1.4,1.4,0,0,1-1.4,1.4h0a1.4,1.4,0,0,1-1.4-1.4V515.616a5.356,5.356,0,0,0-4.691-5.4,5.207,5.207,0,0,0-5.718,5.181v26.132a1.4,1.4,0,0,1-1.4,1.4h0a1.4,1.4,0,0,1-1.4-1.4V509.482a5.356,5.356,0,0,0-4.691-5.4,5.21,5.21,0,0,0-5.729,5.181v32.27a1.4,1.4,0,0,1-1.4,1.4h0a1.4,1.4,0,0,1-1.4-1.4V515.4a5.2,5.2,0,0,0-5.2-5.2h0a5.205,5.205,0,0,0-5.2,5.2v35.786a1.634,1.634,0,0,1-2.947.976l-9.807-13.175a5.382,5.382,0,0,0-4.087-1.858,5.223,5.223,0,0,0-5.21,5.065,5.157,5.157,0,0,0,1.013,3.076l16.685,22.466a82.671,82.671,0,0,1,8.249,14.23h-2.313a2.769,2.769,0,0,0-2.766,2.779Z" transform="translate(-960.963 -334.417)" fill="#9cafab"/>
        <rect id="Retângulo_557" data-name="Retângulo 557" width="51.229" height="15.856" rx="7.928" transform="translate(173.027 245.727)" fill="#206668"/>
        <path id="Caminho_10956" data-name="Caminho 10956" d="M1141.413,507.865a5.36,5.36,0,0,0-4.694,5.4v21.313a1.4,1.4,0,0,1-1.4,1.4h0a1.4,1.4,0,0,1-1.4-1.4V508.671a5.356,5.356,0,0,0-4.694-5.4,5.207,5.207,0,0,0-5.715,5.181v26.132a1.4,1.4,0,0,1-1.4,1.4h0a1.4,1.4,0,0,1-1.4-1.4V502.532a5.353,5.353,0,0,0-4.694-5.4,5.2,5.2,0,0,0-5.715,5.178v32.27a1.4,1.4,0,0,1-1.4,1.4h0a1.4,1.4,0,0,1-1.4-1.4V508.447a5.2,5.2,0,0,0-5.2-5.2h0a5.207,5.207,0,0,0-5.2,5.2v35.786a1.634,1.634,0,0,1-2.947.976l-9.807-13.172a5.392,5.392,0,0,0-4.087-1.86,5.229,5.229,0,0,0-5.21,5.076,5.15,5.15,0,0,0,1.016,3.076l16.682,22.469a82.436,82.436,0,0,1,8.249,14.227h42.167c1.874-5.468,3.973-12.467,3.973-17.414V513.052a5.2,5.2,0,0,0-5.715-5.186Z" transform="translate(-922.871 -329.298)" fill="#f0e2b1"/>
        <ellipse id="Elipse_1262" data-name="Elipse 1262" cx="2.823" cy="2.823" rx="2.823" ry="2.823" transform="translate(215.226 250.831)" fill="#f9c001"/>
      </g>
    </g>
  </g>
</svg>
