<svg xmlns="http://www.w3.org/2000/svg" xmlns:xlink="http://www.w3.org/1999/xlink" width="11.232" height="11.232" viewBox="0 0 11.232 11.232"><defs><style>.a{fill:url(#a);}.b{fill:#fff;}</style><radialGradient id="a" cx="0.133" cy="1.005" r="1.305" gradientTransform="translate(0)" gradientUnits="objectBoundingBox"><stop offset="0.09" stop-color="#fa8f21"/><stop offset="0.78" stop-color="#d82d7e"/></radialGradient></defs><path class="a" d="M3.744,5.616A1.872,1.872,0,1,1,5.616,7.488,1.872,1.872,0,0,1,3.744,5.616m-1.012,0A2.884,2.884,0,1,0,5.616,2.732,2.884,2.884,0,0,0,2.732,5.616m5.208-3a.674.674,0,1,0,.674-.674h0a.674.674,0,0,0-.674.674m-4.593,7.57A3.1,3.1,0,0,1,2.3,9.994a1.745,1.745,0,0,1-.646-.42,1.733,1.733,0,0,1-.42-.646,3.1,3.1,0,0,1-.193-1.043c-.027-.592-.033-.77-.033-2.27s.006-1.677.033-2.27A3.124,3.124,0,0,1,1.238,2.3a1.745,1.745,0,0,1,.42-.646,1.731,1.731,0,0,1,.646-.42,3.1,3.1,0,0,1,1.043-.193c.592-.027.77-.033,2.269-.033s1.677.006,2.27.033a3.124,3.124,0,0,1,1.043.193,1.74,1.74,0,0,1,.646.42,1.74,1.74,0,0,1,.42.646,3.1,3.1,0,0,1,.193,1.043c.027.592.033.77.033,2.27s-.005,1.677-.033,2.27a3.116,3.116,0,0,1-.193,1.043A1.86,1.86,0,0,1,8.929,9.994a3.1,3.1,0,0,1-1.043.193c-.592.027-.77.033-2.27.033s-1.677-.005-2.269-.033M3.3.034A4.118,4.118,0,0,0,1.938.295,2.755,2.755,0,0,0,.943.943a2.744,2.744,0,0,0-.648.995A4.119,4.119,0,0,0,.034,3.3C.006,3.9,0,4.091,0,5.616S.006,7.333.034,7.932A4.119,4.119,0,0,0,.295,9.295a2.745,2.745,0,0,0,.648.995,2.761,2.761,0,0,0,.995.648A4.122,4.122,0,0,0,3.3,11.2c.6.027.79.034,2.315.034s1.717-.006,2.315-.034a4.119,4.119,0,0,0,1.363-.261,2.871,2.871,0,0,0,1.643-1.643A4.108,4.108,0,0,0,11.2,7.932c.027-.6.034-.79.034-2.315S11.226,3.9,11.2,3.3a4.118,4.118,0,0,0-.261-1.363A2.762,2.762,0,0,0,10.29.943,2.748,2.748,0,0,0,9.3.295,4.113,4.113,0,0,0,7.932.034C7.333.007,7.142,0,5.617,0S3.9.006,3.3.034" transform="translate(0 0)"/><path class="b" d="M3.744,5.616A1.872,1.872,0,1,1,5.616,7.488,1.872,1.872,0,0,1,3.744,5.616m-1.012,0A2.884,2.884,0,1,0,5.616,2.732,2.884,2.884,0,0,0,2.732,5.616m5.208-3a.674.674,0,1,0,.674-.674h0a.674.674,0,0,0-.674.674m-4.593,7.57A3.1,3.1,0,0,1,2.3,9.994a1.745,1.745,0,0,1-.646-.42,1.733,1.733,0,0,1-.42-.646,3.1,3.1,0,0,1-.193-1.043c-.027-.592-.033-.77-.033-2.27s.006-1.677.033-2.27A3.124,3.124,0,0,1,1.238,2.3a1.745,1.745,0,0,1,.42-.646,1.731,1.731,0,0,1,.646-.42,3.1,3.1,0,0,1,1.043-.193c.592-.027.77-.033,2.269-.033s1.677.006,2.27.033a3.124,3.124,0,0,1,1.043.193,1.74,1.74,0,0,1,.646.42,1.74,1.74,0,0,1,.42.646,3.1,3.1,0,0,1,.193,1.043c.027.592.033.77.033,2.27s-.005,1.677-.033,2.27a3.116,3.116,0,0,1-.193,1.043A1.86,1.86,0,0,1,8.929,9.994a3.1,3.1,0,0,1-1.043.193c-.592.027-.77.033-2.27.033s-1.677-.005-2.269-.033M3.3.034A4.118,4.118,0,0,0,1.938.295,2.755,2.755,0,0,0,.943.943a2.744,2.744,0,0,0-.648.995A4.119,4.119,0,0,0,.034,3.3C.006,3.9,0,4.091,0,5.616S.006,7.333.034,7.932A4.119,4.119,0,0,0,.295,9.295a2.745,2.745,0,0,0,.648.995,2.761,2.761,0,0,0,.995.648A4.122,4.122,0,0,0,3.3,11.2c.6.027.79.034,2.315.034s1.717-.006,2.315-.034a4.119,4.119,0,0,0,1.363-.261,2.871,2.871,0,0,0,1.643-1.643A4.108,4.108,0,0,0,11.2,7.932c.027-.6.034-.79.034-2.315S11.226,3.9,11.2,3.3a4.118,4.118,0,0,0-.261-1.363A2.762,2.762,0,0,0,10.29.943,2.748,2.748,0,0,0,9.3.295,4.113,4.113,0,0,0,7.932.034C7.333.007,7.142,0,5.617,0S3.9.006,3.3.034" transform="translate(0 0)"/></svg>