<svg id="invento" xmlns="http://www.w3.org/2000/svg" width="299.832" height="311.576" viewBox="0 0 299.832 311.576">
  <g id="Camada_2" data-name="Camada 2">
    <g id="OBJECTS">
      <path id="Caminho_15680" data-name="Caminho 15680" d="M13.569,0A13.569,13.569,0,1,1,0,13.569,13.569,13.569,0,0,1,13.569,0Z" transform="translate(164.116 254.427)" fill="#246868"/>
      <path id="Caminho_15557" data-name="Caminho 15557" d="M196.92,378.075v-8.237a13.061,13.061,0,0,1,12.934-13.188h16.973a13.069,13.069,0,0,1,12.942,13.188v8.237" transform="translate(-40.66 -73.641)" fill="#246868"/>
      <path id="Caminho_15558" data-name="Caminho 15558" d="M217.62,347.873v11.189c0,6.451,10,6.451,10,0V347.873C227.618,341.429,217.62,341.429,217.62,347.873Z" transform="translate(-44.934 -70.83)" fill="#246868"/>
      <circle id="Elipse_1469" data-name="Elipse 1469" cx="13.569" cy="13.569" r="13.569" transform="translate(121.266 254.427)" fill="#246868"/>
      <path id="Caminho_15559" data-name="Caminho 15559" d="M142.92,378.075v-8.237a13.061,13.061,0,0,1,12.934-13.188h16.973a13.069,13.069,0,0,1,12.942,13.188v8.237" transform="translate(-29.51 -73.641)" fill="#246868"/>
      <path id="Caminho_15560" data-name="Caminho 15560" d="M163.62,347.873v11.189c0,6.451,10,6.451,10,0V347.873C173.618,341.429,163.62,341.429,163.62,347.873Z" transform="translate(-33.784 -70.83)" fill="#246868"/>
      <circle id="Elipse_1470" data-name="Elipse 1470" cx="13.569" cy="13.569" r="13.569" transform="translate(142.691 261.568)" fill="#183456"/>
      <path id="Caminho_15561" data-name="Caminho 15561" d="M169.92,387.075v-8.237a13.061,13.061,0,0,1,12.934-13.188h16.973a13.069,13.069,0,0,1,12.942,13.188v8.237" transform="translate(-35.085 -75.499)" fill="#183456"/>
      <path id="Caminho_15562" data-name="Caminho 15562" d="M190.62,356.873v11.189c0,6.451,10,6.451,10,0V356.873C200.618,350.429,190.62,350.429,190.62,356.873Z" transform="translate(-39.359 -72.689)" fill="#183456"/>
      <rect id="Retângulo_2974" data-name="Retângulo 2974" width="55.308" height="38.391" rx="10.66" transform="translate(153.411)" fill="#183456"/>
      <path id="Caminho_15563" data-name="Caminho 15563" d="M216.091,46.525l-9.506,9.1-.9-10.736" transform="translate(-42.469 -9.269)" fill="#183456"/>
      <path id="Caminho_15564" data-name="Caminho 15564" d="M204.206,14.892h37.772a.746.746,0,1,0,0-1.492H204.206a.746.746,0,0,0,0,1.492Z" transform="translate(-42.01 -2.767)" fill="#fff"/>
      <path id="Caminho_15565" data-name="Caminho 15565" d="M204.206,21.46h37.772a.746.746,0,0,0,0-1.46H204.206a.746.746,0,0,0,0,1.492Z" transform="translate(-42.01 -4.13)" fill="#fff"/>
      <path id="Caminho_15566" data-name="Caminho 15566" d="M204.206,28.012h37.772a.746.746,0,0,0,0-1.492H204.206a.746.746,0,0,0,0,1.492Z" transform="translate(-42.01 -5.476)" fill="#fff"/>
      <path id="Caminho_15567" data-name="Caminho 15567" d="M204.206,34.612h30.582a.746.746,0,1,0,0-1.492H204.206a.746.746,0,0,0,0,1.492Z" transform="translate(-42.01 -6.839)" fill="#fff"/>
      <rect id="Retângulo_2975" data-name="Retângulo 2975" width="55.308" height="38.391" rx="19.195" transform="translate(103.793 11.236)" fill="#f9c001"/>
      <path id="Caminho_15568" data-name="Caminho 15568" d="M173.65,59.247l9.506,9.11.9-10.736" transform="translate(-35.855 -11.897)" fill="#f9c001"/>
      <path id="Caminho_15569" data-name="Caminho 15569" d="M141.731,27.84h37.74a.794.794,0,0,0,0-1.5h-37.74a.794.794,0,0,0,0,1.5Z" transform="translate(-29.154 -5.439)" fill="#fff"/>
      <path id="Caminho_15570" data-name="Caminho 15570" d="M141.676,33.372h37.74a.746.746,0,0,0,0-1.492h-37.74a.746.746,0,0,0,0,1.492Z" transform="translate(-29.099 -6.583)" fill="#fff"/>
      <path id="Caminho_15571" data-name="Caminho 15571" d="M141.731,38.91h37.74a.794.794,0,0,0,0-1.5h-37.74a.794.794,0,0,0,0,1.5Z" transform="translate(-29.154 -7.724)" fill="#fff"/>
      <path id="Caminho_15572" data-name="Caminho 15572" d="M141.676,44.442h37.74a.746.746,0,0,0,0-1.492h-37.74a.746.746,0,0,0,0,1.492Z" transform="translate(-29.099 -8.868)" fill="#fff"/>
      <path id="Caminho_15573" data-name="Caminho 15573" d="M141.731,49.98h30.582a.794.794,0,0,0,0-1.5H141.731a.794.794,0,0,0,0,1.5Z" transform="translate(-29.154 -10.01)" fill="#fff"/>
      <path id="Caminho_15574" data-name="Caminho 15574" d="M279,264.9a18.251,18.251,0,1,0,14.006,6.539A18.251,18.251,0,0,0,279,264.9Z" transform="translate(-53.841 -54.696)" fill="#2b517e"/>
      <path id="Caminho_15575" data-name="Caminho 15575" d="M261.581,293.378a2.381,2.381,0,0,0,.27-.333l19.044-28.932c-1.444-.254-2.9-.436-4.356-.6L259.7,289.093a13.491,13.491,0,0,0,1.881,4.285Z" transform="translate(-53.623 -54.409)" fill="#7bd4f0"/>
      <path id="Caminho_15576" data-name="Caminho 15576" d="M287.474,306.027l15.077-22.869a18.94,18.94,0,0,0-1.5-4.928L282.8,306A19.045,19.045,0,0,0,287.474,306.027Z" transform="translate(-58.392 -57.449)" fill="#7bd4f0"/>
      <path id="Caminho_15577" data-name="Caminho 15577" d="M292.421,268.846a16.909,16.909,0,0,0-5.174-3.007c-.421-.159-.849-.294-1.278-.429a4.618,4.618,0,0,0-.317.428l-19.838,30.154a3.824,3.824,0,0,0-.444.881,23.989,23.989,0,0,0,6.261,4.214,4.174,4.174,0,0,0,1.04-1.1l19.838-30.154a4.481,4.481,0,0,0,.325-.6C292.7,269.108,292.564,268.965,292.421,268.846Z" transform="translate(-54.793 -54.802)" fill="#7bd4f0"/>
      <path id="Caminho_15578" data-name="Caminho 15578" d="M278,304.286a22.219,22.219,0,1,1,14.212-5.166A22.218,22.218,0,0,1,278,304.286Zm0-39.5a17.371,17.371,0,1,1-.032,0Z" transform="translate(-52.807 -53.653)" fill="#183456"/>
      <path id="Caminho_15579" data-name="Caminho 15579" d="M325.275,329.95a3.642,3.642,0,0,1-.444,5.134l-2.1,1.762a3.658,3.658,0,0,1-5.142-.46l-19.838-24.647c-1.3-1.539-1.587-3.452,0-4.761l2.1-1.762c1.539-1.293,3.372-.69,4.666.849Z" transform="translate(-61.254 -62.875)" fill="#183456"/>
      <rect id="Retângulo_2976" data-name="Retângulo 2976" width="58.403" height="43.461" rx="1.38" transform="translate(1.095 131.526)" fill="#fff"/>
      <path id="Caminho_15580" data-name="Caminho 15580" d="M58.4,166.56v41.263H2.19V166.56H58.4m0-2.19H2.19A2.19,2.19,0,0,0,0,166.56v41.263a2.19,2.19,0,0,0,2.19,2.19H58.4a2.19,2.19,0,0,0,2.19-2.19V166.56A2.19,2.19,0,0,0,58.4,164.37Z" transform="translate(0 -33.939)" fill="#236868"/>
      <path id="Caminho_15581" data-name="Caminho 15581" d="M58.973,213.534,39.119,191.99l-16.013.23L2.76,213.534" transform="translate(-0.57 -39.642)" fill="#fff" stroke="#246868" stroke-linecap="round" stroke-linejoin="round" stroke-width="2.76"/>
      <path id="Caminho_15582" data-name="Caminho 15582" d="M58.973,167.13,31.041,194.871,2.76,167.13" transform="translate(-0.57 -34.509)" fill="#fff" stroke="#246868" stroke-linecap="round" stroke-linejoin="round" stroke-width="2.76"/>
      <path id="Caminho_15583" data-name="Caminho 15583" d="M59.384,61.018A24.274,24.274,0,1,1,35.118,85.286,24.274,24.274,0,0,1,59.384,61.018m0-5.888A30.154,30.154,0,1,0,89.538,85.284,30.154,30.154,0,0,0,59.384,55.13Z" transform="translate(-6.035 -11.383)" fill="#f9c001"/>
      <path id="Caminho_15584" data-name="Caminho 15584" d="M66.714,90.014A1.976,1.976,0,0,1,64.73,88.03V70.414a1.984,1.984,0,0,1,3.968,0V88.03a1.976,1.976,0,0,1-1.984,1.984Z" transform="translate(-13.365 -14.129)" fill="#183456"/>
      <path id="Caminho_15585" data-name="Caminho 15585" d="M77.641,105.422a1.968,1.968,0,0,1-1.389-.571L65.318,94.027a1.986,1.986,0,1,1,2.8-2.817l10.927,10.824a1.984,1.984,0,0,1-1.4,3.388Z" transform="translate(-13.366 -18.714)" fill="#183456"/>
      <path id="Caminho_15586" data-name="Caminho 15586" d="M70.752,91.891a4.761,4.761,0,1,1-4.761-4.761A4.761,4.761,0,0,1,70.752,91.891Z" transform="translate(-12.643 -17.99)" fill="#061529"/>
      <path id="Caminho_15587" data-name="Caminho 15587" d="M94.688,260.62v16.561a19.965,19.965,0,0,1-19.965,19.965h0A19.965,19.965,0,0,1,54.75,277.181V260.62" transform="translate(-11.305 -53.813)" fill="#7bd4f0"/>
      <path id="Caminho_15588" data-name="Caminho 15588" d="M94.688,340.146V323.585A19.965,19.965,0,0,0,74.723,303.62h0A19.965,19.965,0,0,0,54.75,323.585v16.561" transform="translate(-11.305 -62.691)" fill="#7bd4f0"/>
      <path id="Caminho_15589" data-name="Caminho 15589" d="M90.525,278.06v3.968a14.371,14.371,0,0,1-14.371,14.379h0A14.379,14.379,0,0,1,61.8,282.051v-3.968" transform="translate(-12.76 -57.413)" fill="#49c0f0"/>
      <path id="Caminho_15590" data-name="Caminho 15590" d="M90.525,334.436v-3.968A14.371,14.371,0,0,0,76.155,316.09h0A14.379,14.379,0,0,0,61.8,330.445v3.968" transform="translate(-12.76 -65.266)" fill="#49c0f0"/>
      <path id="Caminho_15591" data-name="Caminho 15591" d="M61.8,336.18v8.729H90.525V336.18" transform="translate(-12.76 -69.414)" fill="#49c0f0"/>
      <path id="Caminho_15592" data-name="Caminho 15592" d="M76.17,296.053v27.329c0,3.833,5.951,3.833,5.951,0V296.053C82.121,292.228,76.17,292.22,76.17,296.053Z" transform="translate(-15.727 -60.536)" fill="#49c0f0"/>
      <path id="Caminho_15593" data-name="Caminho 15593" d="M53.011,263.451H94.52c3.833,0,3.841-5.951,0-5.951H53.011C49.179,257.5,49.171,263.451,53.011,263.451Z" transform="translate(-10.352 -53.168)" fill="#183456"/>
      <path id="Caminho_15594" data-name="Caminho 15594" d="M53.011,351.231H94.52c3.833,0,3.841-5.951,0-5.951H53.011C49.179,345.28,49.171,351.231,53.011,351.231Z" transform="translate(-10.352 -71.293)" fill="#183456"/>
      <path id="Caminho_15595" data-name="Caminho 15595" d="M324.664,91.27v10.165c0,.794.063.794.794.794h4.587a2.777,2.777,0,0,1,2.769,1.746,3.174,3.174,0,0,1-.46,3.46,2.563,2.563,0,0,1-1.968.952c-1.587.056-3.119.04-4.682.056h-.3c-.635,0-.794.119-.794.746v10.2H314.523v-5.205a3.848,3.848,0,0,0-3.555-3.833,4.055,4.055,0,0,0-4.348,2.9,4.144,4.144,0,0,0-.087.944v5.205H296.446v-10c0-.794,0-.865-.794-.9a19.192,19.192,0,0,0-2.436,0,3.023,3.023,0,0,1-3.174-2.738,3.089,3.089,0,0,1,2.285-3.444,19.165,19.165,0,0,1,2.944-.048c.913,0,1.174-.214,1.174-1.111V91.3h10.125v5.237a3.825,3.825,0,0,0,3.309,3.8,4.2,4.2,0,0,0,4.46-2.381,5.094,5.094,0,0,0,.206-2.262V91.27Z" transform="translate(-59.882 -18.845)" fill="#183456" fill-rule="evenodd"/>
      <path id="Caminho_15596" data-name="Caminho 15596" d="M362.464,117.733H352.339c-.667,0-.794.1-.794.794v2.452a2.825,2.825,0,0,1-1.865,2.936,3.087,3.087,0,0,1-3.476-.587,2.38,2.38,0,0,1-.881-1.968v-2.547c0-.849-.294-1.063-1.055-1.063H334.8V107.655h3.349a17.922,17.922,0,0,0,1.849-.048,3.674,3.674,0,0,0,3.174-2.627,4.031,4.031,0,0,0-.889-4.174,3.5,3.5,0,0,0-2.888-1.182c-1.532.056-3.063,0-4.626,0V89.476h9.808c.627,0,.714-.087.714-.722V86.111a2.722,2.722,0,0,1,1.69-2.7,3.174,3.174,0,0,1,3.468.421,3.071,3.071,0,0,1,1.04,2.492v2.381c0,.794,0,.794.794.794h10.094V99.681h-5.293a3.809,3.809,0,0,0-3.737,3.246,4.1,4.1,0,0,0,2.468,4.531,3.8,3.8,0,0,0,1.27.206h5.277Z" transform="translate(-69.123 -17.154)" fill="#246868" fill-rule="evenodd"/>
      <path id="Caminho_15597" data-name="Caminho 15597" d="M314.709,41.764V51.921h-4.983a3.769,3.769,0,0,0-3.666,3.491,4.031,4.031,0,0,0,2.452,4.261,7.094,7.094,0,0,0,2.016.246c1.357.04,2.722,0,4.126,0v10.07H305c-.682,0-.794.079-.794.794v2.793a3.087,3.087,0,0,1-3.1,2.912,3.174,3.174,0,0,1-3.095-2.46c-.087-.96,0-1.928,0-2.888s-.294-1.151-1.174-1.151H287.42V59.943h.659c1.587,0,3.174.063,4.761-.1a3.745,3.745,0,0,0,3.277-3.968,3.864,3.864,0,0,0-3.571-3.968c-1.42-.056-2.857,0-4.285,0h-.841V41.764h9.824c.682,0,.746-.063.754-.73,0-1.032,0-2.071.071-3.095a2.873,2.873,0,0,1,3.079-2.571,2.9,2.9,0,0,1,3,2.634c.087,1.008.056,2.023.079,3.039,0,.643.071.714.722.714h9.792Z" transform="translate(-59.346 -7.301)" fill="#f9c001" fill-rule="evenodd"/>
      <path id="Caminho_15598" data-name="Caminho 15598" d="M350.61,83.868V81.146a3.785,3.785,0,0,0-3.174-3.785,4.079,4.079,0,0,0-4.507,2.158,4.7,4.7,0,0,0-.341,1.587c-.056.913,0,1.825,0,2.777h-10.1V76.178c0-.587-.1-.7-.69-.706h-2.444a2.865,2.865,0,0,1-3.095-2.071,3.174,3.174,0,0,1,1.079-3.666,2.452,2.452,0,0,1,1.587-.508h2.539c.849,0,1.024-.3,1.024-1.04V60.316h10.078V60.9c0,1.024,0,2.063.071,3.087a3.833,3.833,0,0,0,3.968,3.349,3.968,3.968,0,0,0,3.968-3.515c.056-.992,0-1.992,0-2.992V60.3h10.157v8.165c0,.69.1.794.794.794H364.1a2.841,2.841,0,0,1,3.015,2.761,2.88,2.88,0,0,1-2.595,3.349c-1.016.119-2.055.071-3.087.1-.6,0-.69.1-.69.7v7.705Z" transform="translate(-67.323 -12.451)" fill="#f9c001" fill-rule="evenodd"/>
      <text id="_" data-name="?" transform="translate(213.973 193.663)" fill="#b7a6ff" font-size="32" font-family="SegoeUI-Bold, Segoe UI" font-weight="700"><tspan x="0" y="0">?</tspan></text>
      <text id="_2" data-name="?" transform="translate(96.246 77.952)" fill="#b7a6ff" font-size="32" font-family="SegoeUI-Bold, Segoe UI" font-weight="700"><tspan x="0" y="0">?</tspan></text>
      <path id="Caminho_15599" data-name="Caminho 15599" d="M120.61,237.041v9.522c0,2.547,3.968,2.555,3.968,0v-9.522C124.578,234.485,120.61,234.478,120.61,237.041Z" transform="translate(-24.903 -48.548)" fill="#b7a6ff"/>
      <path id="Caminho_15600" data-name="Caminho 15600" d="M116.611,244.968h9.522c2.555,0,2.555-3.968,0-3.968h-9.522C114.056,241,114.056,244.968,116.611,244.968Z" transform="translate(-23.682 -49.761)" fill="#b7a6ff"/>
      <path id="Caminho_15601" data-name="Caminho 15601" d="M306.26,138.5v9.522c0,2.555,3.968,2.563,3.968,0V138.5C310.228,135.955,306.26,135.947,306.26,138.5Z" transform="translate(-63.236 -28.203)" fill="#b7a6ff"/>
      <path id="Caminho_15602" data-name="Caminho 15602" d="M302.262,146.418h9.522c2.555,0,2.563-3.968,0-3.968h-9.522C299.715,142.45,299.707,146.418,302.262,146.418Z" transform="translate(-62.016 -29.413)" fill="#b7a6ff"/>
      <path id="Caminho_15603" data-name="Caminho 15603" d="M136.249,302.577a8.729,8.729,0,1,1,8.729-8.729A8.729,8.729,0,0,1,136.249,302.577Zm0-13.268a4.539,4.539,0,1,0,4.539,4.539A4.539,4.539,0,0,0,136.249,289.31Z" transform="translate(-26.33 -58.871)" fill="#b7a6ff"/>
      <rect id="Retângulo_2977" data-name="Retângulo 2977" width="4.19" height="4.888" transform="translate(107.824 223.63)" fill="#b7a6ff"/>
      <rect id="Retângulo_2978" data-name="Retângulo 2978" width="4.19" height="4.888" transform="translate(107.824 241.437)" fill="#b7a6ff"/>
      <rect id="Retângulo_2979" data-name="Retângulo 2979" width="4.888" height="4.19" transform="translate(98.571 232.883)" fill="#b7a6ff"/>
      <rect id="Retângulo_2980" data-name="Retângulo 2980" width="4.888" height="4.19" transform="translate(116.378 232.883)" fill="#b7a6ff"/>
      <rect id="Retângulo_2981" data-name="Retângulo 2981" width="4.19" height="4.888" transform="translate(100.414 228.436) rotate(-45)" fill="#b7a6ff"/>
      <rect id="Retângulo_2982" data-name="Retângulo 2982" width="4.19" height="4.888" transform="translate(113.002 241.011) rotate(-45.01)" fill="#b7a6ff"/>
      <rect id="Retângulo_2983" data-name="Retângulo 2983" width="4.888" height="4.19" transform="translate(100.409 241.519) rotate(-45)" fill="#b7a6ff"/>
      <rect id="Retângulo_2984" data-name="Retângulo 2984" width="4.888" height="4.19" transform="translate(113 228.939) rotate(-44.99)" fill="#b7a6ff"/>
      <path id="Caminho_15604" data-name="Caminho 15604" d="M255.549,90.457a8.729,8.729,0,1,1,8.729-8.729A8.729,8.729,0,0,1,255.549,90.457Zm0-13.268a4.523,4.523,0,1,1,0,.032Z" transform="translate(-50.963 -15.073)" fill="#b7a6ff"/>
      <rect id="Retângulo_2985" data-name="Retângulo 2985" width="4.19" height="4.888" transform="translate(202.491 55.34)" fill="#b7a6ff"/>
      <rect id="Retângulo_2986" data-name="Retângulo 2986" width="4.19" height="4.888" transform="translate(202.491 73.147)" fill="#b7a6ff"/>
      <rect id="Retângulo_2987" data-name="Retângulo 2987" width="4.888" height="4.19" transform="translate(193.238 64.593)" fill="#b7a6ff"/>
      <rect id="Retângulo_2988" data-name="Retângulo 2988" width="4.888" height="4.19" transform="translate(211.045 64.593)" fill="#b7a6ff"/>
      <rect id="Retângulo_2989" data-name="Retângulo 2989" width="4.19" height="4.888" transform="translate(195.073 60.134) rotate(-45.01)" fill="#b7a6ff"/>
      <rect id="Retângulo_2990" data-name="Retângulo 2990" width="4.19" height="4.888" transform="translate(207.669 72.724) rotate(-45.01)" fill="#b7a6ff"/>
      <rect id="Retângulo_2991" data-name="Retângulo 2991" width="4.888" height="4.19" transform="translate(195.086 73.23) rotate(-45)" fill="#b7a6ff"/>
      <rect id="Retângulo_2992" data-name="Retângulo 2992" width="4.888" height="4.19" transform="translate(207.68 60.644) rotate(-44.99)" fill="#b7a6ff"/>
      <path id="Caminho_15605" data-name="Caminho 15605" d="M92.537,151.164a5.237,5.237,0,1,1,5.237-5.237A5.237,5.237,0,0,1,92.537,151.164Zm0-7.935a1.133,1.133,0,1,0,0-.032Z" transform="translate(-18.026 -29.05)" fill="#b7a6ff"/>
      <rect id="Retângulo_2993" data-name="Retângulo 2993" width="2.515" height="2.936" transform="translate(73.25 110.069)" fill="#b7a6ff"/>
      <rect id="Retângulo_2994" data-name="Retângulo 2994" width="2.515" height="2.936" transform="translate(73.25 120.75)" fill="#b7a6ff"/>
      <rect id="Retângulo_2995" data-name="Retângulo 2995" width="2.936" height="2.515" transform="translate(67.703 115.616)" fill="#b7a6ff"/>
      <rect id="Retângulo_2996" data-name="Retângulo 2996" width="2.936" height="2.515" transform="translate(78.384 115.616)" fill="#b7a6ff"/>
      <rect id="Retângulo_2997" data-name="Retângulo 2997" width="2.515" height="2.936" transform="translate(68.806 112.95) rotate(-45.01)" fill="#b7a6ff"/>
      <rect id="Retângulo_2998" data-name="Retângulo 2998" width="2.515" height="2.936" transform="translate(76.358 120.511) rotate(-45)" fill="#b7a6ff"/>
      <rect id="Retângulo_2999" data-name="Retângulo 2999" width="2.936" height="2.515" transform="translate(68.803 120.788) rotate(-44.99)" fill="#b7a6ff"/>
      <rect id="Retângulo_3000" data-name="Retângulo 3000" width="2.936" height="2.515" transform="translate(76.36 113.231) rotate(-44.99)" fill="#b7a6ff"/>
      <path id="Caminho_15606" data-name="Caminho 15606" d="M323.367,259.365a5.237,5.237,0,1,1,5.237-5.237A5.237,5.237,0,0,1,323.367,259.365Zm0-7.935a1.129,1.129,0,1,0,0-.024Z" transform="translate(-65.687 -51.391)" fill="#b7a6ff"/>
      <rect id="Retângulo_3001" data-name="Retângulo 3001" width="2.515" height="2.936" transform="translate(256.426 195.928)" fill="#b7a6ff"/>
      <rect id="Retângulo_3002" data-name="Retângulo 3002" width="2.515" height="2.936" transform="translate(256.426 206.617)" fill="#b7a6ff"/>
      <rect id="Retângulo_3003" data-name="Retângulo 3003" width="2.936" height="2.515" transform="translate(250.872 201.483)" fill="#b7a6ff"/>
      <rect id="Retângulo_3004" data-name="Retângulo 3004" width="2.936" height="2.515" transform="translate(261.552 201.483)" fill="#b7a6ff"/>
      <rect id="Retângulo_3005" data-name="Retângulo 3005" width="2.515" height="2.936" transform="translate(251.981 198.821) rotate(-45.01)" fill="#b7a6ff"/>
      <rect id="Retângulo_3006" data-name="Retângulo 3006" width="2.515" height="2.936" transform="translate(259.539 206.376) rotate(-45)" fill="#b7a6ff"/>
      <rect id="Retângulo_3007" data-name="Retângulo 3007" width="2.936" height="2.515" transform="matrix(0.707, -0.707, 0.707, 0.707, 251.979, 206.693)" fill="#b7a6ff"/>
      <rect id="Retângulo_3008" data-name="Retângulo 3008" width="2.936" height="2.515" transform="translate(259.53 199.088) rotate(-44.99)" fill="#b7a6ff"/>
      <path id="Caminho_15607" data-name="Caminho 15607" d="M227.48,290.8v9.618a2.008,2.008,0,0,0,3.388,1.4c3.547-3.579,6.88-7.372,10.689-10.689,1.928-1.674-.889-4.475-2.809-2.8-3.809,3.309-7.142,7.142-10.689,10.681l3.388,1.4V290.8C231.448,288.249,227.48,288.249,227.48,290.8Z" transform="translate(-46.97 -59.429)" fill="#b7a6ff"/>
      <path id="Caminho_15608" data-name="Caminho 15608" d="M90.58,194.915v9.617a2.008,2.008,0,0,0,3.388,1.4c3.547-3.571,6.88-7.372,10.681-10.681,1.928-1.682-.889-4.475-2.809-2.809-3.8,3.317-7.142,7.142-10.681,10.689l3.388,1.4v-9.617c0-2.547-3.968-2.555-3.968,0Z" transform="translate(-18.703 -39.631)" fill="#b7a6ff"/>
      <path id="Caminho_15609" data-name="Caminho 15609" d="M210.753,81.543c7.657,0,7.673-11.9,0-11.9S203.079,81.543,210.753,81.543Z" transform="translate(-42.328 -14.379)" fill="#b7a6ff"/>
      <path id="Caminho_15610" data-name="Caminho 15610" d="M252.5,327.671c3.825,0,3.833-5.951,0-5.951S248.661,327.671,252.5,327.671Z" transform="translate(-51.542 -66.428)" fill="#b7a6ff"/>
      <path id="Caminho_15611" data-name="Caminho 15611" d="M67.582,244.735c5.11,0,5.118-7.935,0-7.935S62.472,244.735,67.582,244.735Z" transform="translate(-13.162 -48.894)" fill="#b7a6ff"/>
      <path id="Caminho_15612" data-name="Caminho 15612" d="M235.353,155.739a45.54,45.54,0,0,1-6.1,22.838c-6.9,11.958-13.49,24.083-19.489,36.5l-3.38,7.015H172.816l-4.944-10.2c-5.459-11.292-11.474-22.29-17.807-33.122A45.77,45.77,0,0,1,188.48,110H189.8a45.754,45.754,0,0,1,45.548,45.739Z" transform="translate(-29.704 -22.713)" fill="#313854" opacity="0.2"/>
      <path id="Caminho_15613" data-name="Caminho 15613" d="M212.509,206.974a.714.714,0,0,1-.627-.381l-1.508-2.888-1.508,2.888a.706.706,0,0,1-.627.381.714.714,0,0,1-.627-.381l-1.508-2.888-1.5,2.888a.714.714,0,0,1-.627.381h0a.722.722,0,0,1-.635-.381l-1.5-2.888-1.5,2.888a.722.722,0,0,1-.635.381h0a.714.714,0,0,1-.627-.381l-1.5-2.888-1.508,2.888a.714.714,0,0,1-.627.381.706.706,0,0,1-.627-.381l-1.508-2.888-1.436,2.888a.722.722,0,0,1-.635.381h0a.714.714,0,0,1-.627-.381l-1.5-2.888-1.508,2.888a.706.706,0,0,1-1.254,0l-1.508-2.888-1.5,2.888a.722.722,0,0,1-.635.381h0a.722.722,0,0,1-.627-.381l-2.127-4.095a.708.708,0,0,1,1.254-.659l1.508,2.888,1.5-2.888a.714.714,0,0,1,.627-.381.706.706,0,0,1,.627.381l1.508,2.888,1.5-2.888a.722.722,0,0,1,.635-.381.714.714,0,0,1,.627.381l1.5,2.888,1.508-2.888a.706.706,0,0,1,1.254,0l1.508,2.888,1.5-2.888a.714.714,0,0,1,1.262,0l1.5,2.888,1.508-2.888a.714.714,0,0,1,.627-.381h0a.714.714,0,0,1,.627.381l1.508,2.888,1.5-2.888a.714.714,0,0,1,1.262,0l1.5,2.888,1.508-2.888a.706.706,0,0,1,1.254,0l1.508,2.888,1.508-2.888a.7.7,0,0,1,.952-.3.714.714,0,0,1,.3.96l-2.135,4.095A.714.714,0,0,1,212.509,206.974Z" transform="translate(-37.141 -41.596)" fill="#313854" opacity="0.5"/>
      <path id="Caminho_15614" data-name="Caminho 15614" d="M189.471,240.694h-1.444l-6.785-34.518h0l-1.143-5.816a3.171,3.171,0,0,1,.6-.238,3.1,3.1,0,0,1,.54-.111h.246l1.111,5.65.063.294Z" transform="translate(-37.187 -41.298)" fill="#313854"/>
      <path id="Caminho_15615" data-name="Caminho 15615" d="M184.219,203.077a3.087,3.087,0,0,1-1.42,2.6,3.056,3.056,0,0,1-.579.294,3.11,3.11,0,0,1-.794.182H181.1a2.072,2.072,0,0,1-.317,0,3.095,3.095,0,0,1-1.143-5.816,3.175,3.175,0,0,1,.6-.238,3.1,3.1,0,0,1,.54-.111h.325a3.309,3.309,0,0,1,.563.056A3.1,3.1,0,0,1,184.219,203.077Z" transform="translate(-36.751 -41.294)" fill="#313854"/>
      <path id="Caminho_15616" data-name="Caminho 15616" d="M225.589,203.075a3.1,3.1,0,0,1-3.055,3.095h-.047a3.174,3.174,0,0,1-1.341-.3,3.1,3.1,0,0,1,1.159-5.888h.182a3.071,3.071,0,0,1,1.214.246A3.1,3.1,0,0,1,225.589,203.075Z" transform="translate(-45.301 -41.292)" fill="#313854"/>
      <path id="Caminho_15617" data-name="Caminho 15617" d="M222.379,200.218l-1.167,5.951-6.777,34.5H213l6.832-34.8,1.159-5.888h.182a3.071,3.071,0,0,1,1.206.238Z" transform="translate(-43.98 -41.292)" fill="#313854"/>
      <path id="Caminho_15618" data-name="Caminho 15618" d="M179.841,251.28h32.8a2.309,2.309,0,0,1,2.309,2.309v4.944a2.309,2.309,0,0,1-2.309,2.309h-32.8a2.3,2.3,0,0,1-2.3-2.3V253.6a2.3,2.3,0,0,1,2.3-2.317Z" transform="translate(-36.658 -51.884)" fill="#313854"/>
      <path id="Caminho_15619" data-name="Caminho 15619" d="M214.947,256.73v2.92a2.3,2.3,0,0,1-2.3,2.309h-32.8a2.3,2.3,0,0,1-2.3-2.309v-2.92Z" transform="translate(-36.658 -53.009)" fill="#1c1c32"/>
      <path id="Caminho_15620" data-name="Caminho 15620" d="M214.947,265.621v4.944a2.3,2.3,0,0,1-1.92,2.277,2,2,0,0,1-.381,0h-32.8a2.051,2.051,0,0,1-.381,0,2.3,2.3,0,0,1-1.92-2.277v-4.944a2.3,2.3,0,0,1,2.3-2.3h32.8a2.3,2.3,0,0,1,2.3,2.3Z" transform="translate(-36.658 -54.37)" fill="#313854"/>
      <path id="Caminho_15621" data-name="Caminho 15621" d="M214.955,268.73v2.952a2.3,2.3,0,0,1-1.92,2.277H179.5a2.3,2.3,0,0,1-1.92-2.277V268.73Z" transform="translate(-36.666 -55.487)" fill="#1c1c32"/>
      <path id="Caminho_15622" data-name="Caminho 15622" d="M214.947,277.661V282.6a2.309,2.309,0,0,1-1.928,2.277,2.834,2.834,0,0,1-.373,0h-32.8a2.838,2.838,0,0,1-.373,0,2.309,2.309,0,0,1-1.928-2.277v-4.944a2.3,2.3,0,0,1,2.3-2.3h32.8a2.3,2.3,0,0,1,2.3,2.3Z" transform="translate(-36.658 -56.856)" fill="#313854"/>
      <path id="Caminho_15623" data-name="Caminho 15623" d="M214.953,280.77v2.952A2.309,2.309,0,0,1,213.025,286H179.5a2.309,2.309,0,0,1-1.928-2.277V280.77Z" transform="translate(-36.664 -57.973)" fill="#1c1c32"/>
      <path id="Caminho_15624" data-name="Caminho 15624" d="M189.84,287.4a9.189,9.189,0,0,0,18.37,0Z" transform="translate(-39.198 -59.342)" fill="#1c1c32"/>
      <path id="Caminho_15625" data-name="Caminho 15625" d="M207.677,184.7s-.444,2.809,1.341,3.595a5.555,5.555,0,0,0,3.682.127s2.809,2.3,8.514.413,9.189-7.864,9.189-7.864l-4.642-.309Z" transform="translate(-42.871 -37.302)" fill="#b9293c"/>
      <path id="Caminho_15626" data-name="Caminho 15626" d="M229.7,153.286a24.6,24.6,0,0,1-.278,3.674c-.111.722-.246,1.4-.4,2.039-.119.452-.238.889-.373,1.3a15.992,15.992,0,0,1-.794,1.912,9.444,9.444,0,0,1-.6,1.1c-4.277,7.086-12.641,4.761-12.641,4.761l-7.626,1.7h0l-3.285.738h0l-18.187,4.055h0a19.282,19.282,0,0,1-4.944.4h0a14.458,14.458,0,0,1-7.277-2.2c-3.595-2.381-4.325-7.745-3.087-10.371a3.173,3.173,0,0,1,.571-.849H168.4a16.029,16.029,0,0,1-14-8.308,15.585,15.585,0,0,1-1.468-11.593c.111-.4.238-.794.381-1.206a.212.212,0,0,1,.056-.175c.079-.214.159-.421.246-.627,2.142-5.134,4.341-7.237,5.674-8.086a4.182,4.182,0,0,1,1.119-.532h.151s1.69-3.317,6.808-6.388h0a28.841,28.841,0,0,1,2.73-1.444,35,35,0,0,1,5.785-2.071c.548-.143,1.119-.286,1.706-.421h.151a50.459,50.459,0,0,1,15.791-.865c.452.04.881.1,1.3.143a43.59,43.59,0,0,1,5.079.944c1.182.286,1.825.516,1.825.516a2.767,2.767,0,0,1,.294,0h0a22.147,22.147,0,0,1,12.577,4.523c.452.373.9.794,1.333,1.19a17.965,17.965,0,0,1,3.111,4.134c.254.46.492.936.714,1.436l.373.325a31.621,31.621,0,0,1,6.959,9.332c.3.627.6,1.285.857,1.968s.452,1.206.651,1.841h0a24.6,24.6,0,0,1,1.039,5.634C229.677,152.27,229.693,152.778,229.7,153.286Z" transform="translate(-31.471 -24.688)" fill="#dd4f5a"/>
      <path id="Caminho_15627" data-name="Caminho 15627" d="M171.326,137.8a.619.619,0,0,1-.873-.079,4.071,4.071,0,0,0-.857-.794,3.174,3.174,0,0,0-2.452-.4l-.373.056a7.539,7.539,0,0,1-2.841,0l-.413-.1h0a4.332,4.332,0,0,1-1.674-.857,2.888,2.888,0,0,1-.794-1.079,4.182,4.182,0,0,1,1.119-.532c.151.4.6,1.055,2.016,1.365a5.634,5.634,0,0,0,2.063,0h.325c.333-.048.675-.1,1.016-.127a4.1,4.1,0,0,1,2.325.444h0l.1.063a5.165,5.165,0,0,1,1.357,1.182A.619.619,0,0,1,171.326,137.8Z" transform="translate(-33.253 -27.67)" fill="#b9293c"/>
      <path id="Caminho_15628" data-name="Caminho 15628" d="M172.7,146.058a.619.619,0,0,1-.611-.508,1.428,1.428,0,0,0-.619-.992c-.881-.6-2.46-.381-3.317-.206a3.119,3.119,0,0,1-2.817-.865,3.507,3.507,0,0,1-.794-3.309c.6-2.69,5.174-3.968,5.7-4.11a.627.627,0,0,1,.317,1.206c-1.214.317-4.436,1.516-4.809,3.174a2.269,2.269,0,0,0,.476,2.166,1.889,1.889,0,0,0,1.69.524c1.278-.262,3.063-.413,4.253.389a2.666,2.666,0,0,1,1.151,1.793.627.627,0,0,1-.492.73Z" transform="translate(-33.949 -28.094)" fill="#b9293c"/>
      <path id="Caminho_15629" data-name="Caminho 15629" d="M162.531,136.154a.6.6,0,0,1-.548.659h-.135c-.659.1-3.484.611-3.809,2.658a7.34,7.34,0,0,1-2.968,4.967,3.325,3.325,0,0,1-1.777.548h-.254c.111-.4.238-.794.381-1.206a2.182,2.182,0,0,0,1.008-.357,6.2,6.2,0,0,0,2.381-4.134,4.462,4.462,0,0,1,3.341-3.317,8.292,8.292,0,0,1,1.7-.373.611.611,0,0,1,.682.555Z" transform="translate(-31.6 -27.997)" fill="#b9293c"/>
      <path id="Caminho_15630" data-name="Caminho 15630" d="M168.128,135.394h-.071a.619.619,0,0,1-.548-.682,6.65,6.65,0,0,1,4.15-5.063,13.839,13.839,0,0,1,5.555-1.349.62.62,0,0,1-.079,1.238,13,13,0,0,0-4.991,1.254,5.428,5.428,0,0,0-3.4,4.063A.611.611,0,0,1,168.128,135.394Z" transform="translate(-34.586 -26.491)" fill="#b9293c"/>
      <path id="Caminho_15631" data-name="Caminho 15631" d="M171.951,128.925a4.509,4.509,0,0,0,.222.651.619.619,0,0,1-.23.794h-.1a.532.532,0,0,1-.246.056.611.611,0,0,1-.563-.381c-.071-.167-.135-.325-.19-.492a5.237,5.237,0,0,1,.27-4.007,28.857,28.857,0,0,1,2.73-1.444C173.133,124.687,171.285,126.449,171.951,128.925Z" transform="translate(-35.219 -25.624)" fill="#b9293c"/>
      <path id="Caminho_15632" data-name="Caminho 15632" d="M201.354,122.959h0c-.968.976-1.492,1.373-4.761,1.436a1.262,1.262,0,0,0-.9.278c-.317.349-.246,1.206-.183,2.039a5.483,5.483,0,0,1-.389,3.174,2.277,2.277,0,0,1-1.96,1.23,1.808,1.808,0,0,1-.357,0A3.968,3.968,0,0,1,189.959,128c-.373-1.666-3.071-1.7-3.222-1.7h0a.611.611,0,0,1-.627-.611.619.619,0,0,1,.611-.627c.159,0,3.857,0,4.46,2.666a2.738,2.738,0,0,0,1.833,2.166,1.008,1.008,0,0,0,1.055-.611,4.523,4.523,0,0,0,.214-2.476c-.087-1.1-.175-2.23.5-2.976a2.325,2.325,0,0,1,1.793-.682c2.865-.056,3.119-.309,3.872-1.071h.04c.309-.317.222-1.357,0-2.238.452.04.881.1,1.3.143C201.972,120.959,202.052,122.252,201.354,122.959Z" transform="translate(-38.428 -24.744)" fill="#b9293c"/>
      <path id="Caminho_15633" data-name="Caminho 15633" d="M190.812,125.584a.619.619,0,0,1-.325.1.6.6,0,0,1-.524-.294c-1.135-1.785-3.968-1.651-5.809-1.587a6.736,6.736,0,0,1-1.762,0,1.111,1.111,0,0,1-.794-.714,2.381,2.381,0,0,1,.3-1.674c.548-.143,1.119-.286,1.706-.421a5.007,5.007,0,0,0-.794,1.587,8.3,8.3,0,0,0,1.317,0c2.023-.1,5.4-.262,6.919,2.143a.619.619,0,0,1-.238.865Z" transform="translate(-37.488 -24.982)" fill="#b9293c"/>
      <path id="Caminho_15634" data-name="Caminho 15634" d="M209.641,121.74a.643.643,0,0,1-.246.119c-.063,0-3.587.9-3.253,2.888a5.087,5.087,0,0,1,.087,2.6,2.356,2.356,0,0,1-1.587,1.071l-.19.056-.317.1c-4.817,1.531-7.007,3.174-6.5,4.856.246.794.484,1.468.674,1.984.357.976.579,1.587.278,2.095a2.023,2.023,0,0,1-1.531.794c-1.174.23-7.023,1.69-6.467,8.451a.635.635,0,0,1-.571.675h-.048a.619.619,0,0,1-.619-.571,8.6,8.6,0,0,1,2.754-7.491,10.458,10.458,0,0,1,4.721-2.277,3.412,3.412,0,0,0,.659-.175,6.163,6.163,0,0,0-.341-1.055c-.2-.532-.436-1.19-.7-2.063-1.111-3.714,5.229-5.729,7.308-6.388l.317-.1.19-.063c.428-.143.794-.246.794-.357a5.944,5.944,0,0,0-.159-1.928c-.325-1.944,1.286-3.111,2.6-3.73,1.182.286,1.825.516,1.825.516a2.77,2.77,0,0,1,.317-.016Z" transform="translate(-39.082 -25.034)" fill="#b9293c"/>
      <path id="Caminho_15635" data-name="Caminho 15635" d="M185.774,139.524a2.9,2.9,0,0,1-1.889-.794c-2.317-1.976-1.1-8.586-.952-9.332a.623.623,0,1,1,1.222.238c-.5,2.547-.794,7.015.54,8.149a1.587,1.587,0,0,0,1.278.468,2.73,2.73,0,0,0,1.508-1.159.619.619,0,0,1,.849-.206.611.611,0,0,1,.206.849,3.864,3.864,0,0,1-2.381,1.738A2.231,2.231,0,0,1,185.774,139.524Z" transform="translate(-37.679 -26.614)" fill="#b9293c"/>
      <path id="Caminho_15636" data-name="Caminho 15636" d="M179.626,143.322a3.074,3.074,0,0,1-.381,0c-2.3-.286-3.539-3.571-3.674-3.968a.622.622,0,1,1,1.174-.413c.294.794,1.341,2.96,2.65,3.126s3.111-1.246,3.666-1.809a.623.623,0,0,1,.889.873C183.839,141.219,181.76,143.322,179.626,143.322Z" transform="translate(-36.244 -28.603)" fill="#b9293c"/>
      <path id="Caminho_15637" data-name="Caminho 15637" d="M177.516,151.462c-.841,2.309-5.047,3.245-8.419,3.968a28.719,28.719,0,0,0-2.873.722,2.15,2.15,0,0,0-.849.548,6.277,6.277,0,0,0-1.047,1.809c-.587,1.317-1.254,2.817-3.174,3.245a7.885,7.885,0,0,1-1.587.159,12.426,12.426,0,0,1-3.5-.563,15.8,15.8,0,0,1-1.087-1.7c1.119.452,3.745,1.373,5.936.889,1.325-.294,1.793-1.333,2.325-2.539.119-.27.246-.555.389-.833a5.269,5.269,0,0,1,.992-1.42,3.388,3.388,0,0,1,1.246-.794,30.16,30.16,0,0,1,3.007-.794c2.754-.611,6.92-1.531,7.523-3.174a.627.627,0,0,1,.794-.365.611.611,0,0,1,.325.841Z" transform="translate(-32 -31.093)" fill="#b9293c"/>
      <path id="Caminho_15638" data-name="Caminho 15638" d="M164.212,157.2a4.61,4.61,0,0,1-2.285-.627,3.325,3.325,0,0,1-1.746-2.936,1.65,1.65,0,0,0-.46-1.27,2.254,2.254,0,0,0-1.46-.492.62.62,0,1,1-.063-1.238,3.531,3.531,0,0,1,2.381.833,2.873,2.873,0,0,1,.841,2.166,2.127,2.127,0,0,0,1.143,1.873,2.944,2.944,0,0,0,2.619.238.62.62,0,1,1,.6,1.087A3.222,3.222,0,0,1,164.212,157.2Z" transform="translate(-32.543 -31.104)" fill="#b9293c"/>
      <path id="Caminho_15639" data-name="Caminho 15639" d="M155.14,157.693a.864.864,0,0,1-.2,0,.619.619,0,0,1-.381-.794c.064-.175,1.516-4.293,5.229-4.761a.613.613,0,0,1,.167,1.214c-2.968.389-4.229,3.968-4.237,3.968a.611.611,0,0,1-.579.373Z" transform="translate(-31.906 -31.412)" fill="#b9293c"/>
      <path id="Caminho_15640" data-name="Caminho 15640" d="M229.279,128.319h0a8.138,8.138,0,0,1-1.079.056,16.212,16.212,0,0,1-5.229-.9c-1.92-.659-3.349-1.024-4.055-.651-.2.1-.484.333-.682,1.1a.62.62,0,1,1-1.2-.317,2.738,2.738,0,0,1,1.3-1.873c1.111-.587,2.682-.238,5.039.571a14.767,14.767,0,0,0,4.579.794C228.4,127.47,228.842,127.89,229.279,128.319Z" transform="translate(-44.809 -25.899)" fill="#b9293c"/>
      <path id="Caminho_15641" data-name="Caminho 15641" d="M234.714,149a.611.611,0,0,1-.73.484.984.984,0,0,0-.651,0c-.341.254-.436,1.587-.555,3.341v.468c-.159,2.206-2.262,3.8-4.174,4.563a8.561,8.561,0,0,1-3.118.627,5.023,5.023,0,0,1-3.436-1.174,3.761,3.761,0,0,1-1.182-2.047,7.626,7.626,0,0,1,.143-3.031c.111-.54.254-1.087.4-1.651a15.459,15.459,0,0,0,.706-5.19,4.216,4.216,0,0,0-.071-.794c-.246-2.706-.413-4.491.532-5.634a3.968,3.968,0,0,1,2.833-1.166,3.27,3.27,0,0,0,1.238-.309,1.587,1.587,0,0,0,.73-1.1.356.356,0,0,1,.056-.23,2.928,2.928,0,0,1,1.587-2.2,5.34,5.34,0,0,1,4.2.182c.254.46.492.936.714,1.436l.373.325a.6.6,0,0,1-.476-.079s-2.547-1.587-4.277-.794c-.579.286-.714.7-.9,1.4a3.578,3.578,0,0,1-.651,1.484l-.063.071h0a3.444,3.444,0,0,1-2.381.984,2.785,2.785,0,0,0-1.992.73c-.619.738-.468,2.325-.246,4.721a4.562,4.562,0,0,0,.071.794,16.7,16.7,0,0,1-.746,5.61c-.667,2.634-1.008,4.309.286,5.507,1.1,1.016,3.174,1.135,5.253.3,1.968-.794,3.3-2.15,3.4-3.492v-.468c.167-2.428.254-3.642,1.04-4.245a2.024,2.024,0,0,1,1.658-.238.619.619,0,0,1,.444.8Z" transform="translate(-45.586 -27.589)" fill="#b9293c"/>
      <path id="Caminho_15642" data-name="Caminho 15642" d="M243.811,148.787c-.4,1.333-1.222,2.627-2.706,2.627h-.159c-1.762-.111-2.095-2.079-2.381-3.809-.071-.4-.143-.794-.23-1.214a4.1,4.1,0,0,0-.746-1.825h0c-1.912-2.174-4.436-2.619-7.515-1.325a.62.62,0,1,1-.484-1.143c3.579-1.5,6.666-.928,8.935,1.651a7.448,7.448,0,0,1,1.262,3.642c.278,1.651.516,2.738,1.246,2.785h.071c1.508,0,1.793-3.087,1.793-3.119a.6.6,0,0,1,.071-.238C243.256,147.446,243.55,148.1,243.811,148.787Z" transform="translate(-47.328 -29.171)" fill="#b9293c"/>
      <path id="Caminho_15643" data-name="Caminho 15643" d="M229.988,152.364a2.381,2.381,0,0,1-1.992-.889c-.984-1.309-.373-3.507-.294-3.753a.619.619,0,0,1,1.182.357c-.135.468-.413,1.968.1,2.65a1.174,1.174,0,0,0,1.032.389c1.4,0,1.96-1.127,2.658-2.825a6.142,6.142,0,0,1,1.2-2.127c1.436-1.373,3.277-1.293,5.039.222a.619.619,0,0,1,.071.873.627.627,0,0,1-.881.063c-1.92-1.651-3.015-.6-3.372-.262a5.428,5.428,0,0,0-.9,1.706c-.627,1.5-1.476,3.563-3.793,3.595Z" transform="translate(-46.962 -29.979)" fill="#b9293c"/>
      <path id="Caminho_15644" data-name="Caminho 15644" d="M204.472,155.521a14.735,14.735,0,0,1-2.381-.222c-3.547-.587-3.5-5.88-3.492-6.1a.611.611,0,0,1,.627-.611.619.619,0,0,1,.611.635c0,.063,0,4.444,2.46,4.856,1.587.254,3.507.428,4.674-.484a3.793,3.793,0,0,0,1.214-2.857c.079-1.055.119-1.96.151-2.769.1-2.6.167-4.174,1.643-5.039a.621.621,0,1,1,.627,1.071c-.857.5-.928,1.531-1.032,4.015,0,.794-.064,1.738-.151,2.817a5.015,5.015,0,0,1-1.682,3.737A5.3,5.3,0,0,1,204.472,155.521Z" transform="translate(-41.006 -29.494)" fill="#b9293c"/>
      <path id="Caminho_15645" data-name="Caminho 15645" d="M196.544,157.772l-.373.079c-2.277.524-3.563,2.016-5.039,3.738a24.465,24.465,0,0,1-2.571,2.674c-2.079,1.777-3.753,1.23-5.38.69a7.665,7.665,0,0,0-3.23-.54c-3.039.278-4.761,5.134-4.761,5.19a.619.619,0,0,1-.508.4,3.174,3.174,0,0,1,.571-.849H174c.182-.54,2.095-5.642,5.8-5.983a8.792,8.792,0,0,1,3.737.6c1.531.508,2.642.865,4.19-.46a22.72,22.72,0,0,0,2.428-2.539c1.373-1.587,2.682-3.111,4.761-3.872a8.37,8.37,0,0,1,1.349-.357h.071a.611.611,0,0,1,.555.286.555.555,0,0,1,.1.222A.627.627,0,0,1,196.544,157.772Z" transform="translate(-35.927 -32.324)" fill="#b9293c"/>
      <path id="Caminho_15646" data-name="Caminho 15646" d="M202.386,150.709a.611.611,0,0,1-.611-.516,4.823,4.823,0,0,0-1.936-3.523,3.357,3.357,0,0,0-2.555-.317.619.619,0,0,1-.794-.4.611.611,0,0,1,.4-.794,4.65,4.65,0,0,1,3.579.444,6.007,6.007,0,0,1,2.515,4.372.619.619,0,0,1-.508.714Z" transform="translate(-40.564 -29.935)" fill="#b9293c"/>
      <path id="Caminho_15647" data-name="Caminho 15647" d="M202.618,145.15a.611.611,0,0,1-.532-.928c.254-.444,6.428-11.022,12.7-11.649a9.61,9.61,0,0,1,9.308,4.5.627.627,0,0,1-.238.849.619.619,0,0,1-.841-.238h0a8.364,8.364,0,0,0-8.1-3.872c-5.658.563-11.7,10.927-11.76,11.03A.627.627,0,0,1,202.618,145.15Z" transform="translate(-41.708 -27.36)" fill="#b9293c"/>
      <path id="Caminho_15648" data-name="Caminho 15648" d="M198.768,168.207a.619.619,0,0,1-.381-1.111c1.754-1.365,3.7-1.587,5.943-1.841a26.1,26.1,0,0,0,5.325-1.032c4.444-1.444,6.642-7.213,6.666-7.269a.619.619,0,0,1,1.159.428c-.1.262-2.381,6.348-7.443,8.023a27.107,27.107,0,0,1-5.555,1.079c-2.15.246-3.849.436-5.325,1.587A.635.635,0,0,1,198.768,168.207Z" transform="translate(-40.912 -32.332)" fill="#b9293c"/>
      <path id="Caminho_15649" data-name="Caminho 15649" d="M209.6,172.484a.611.611,0,0,1-.6-.5.619.619,0,0,1,.484-.73s3.793-.794,5.213-2.269c.873-.92,2.515-.659,4.42-.341,2.436.4,5.206.841,7.142-.794a.619.619,0,0,1,.873.056.627.627,0,0,1-.056.881c-2.381,2.047-5.555,1.524-8.126,1.1-1.428-.238-2.9-.476-3.325,0-1.69,1.777-5.7,2.595-5.864,2.635Z" transform="translate(-43.151 -34.626)" fill="#b9293c"/>
      <path id="Caminho_15650" data-name="Caminho 15650" d="M216.421,169.378a.349.349,0,0,1-.127,0,.619.619,0,0,1-.476-.738,4.9,4.9,0,0,0-.54-3.174.627.627,0,0,1,.214-.849.619.619,0,0,1,.849.214,6.07,6.07,0,0,1,.69,4.055A.627.627,0,0,1,216.421,169.378Z" transform="translate(-44.433 -33.972)" fill="#b9293c"/>
      <path id="Caminho_15651" data-name="Caminho 15651" d="M247.63,161.661a6.436,6.436,0,0,1-3.341.794,13.776,13.776,0,0,1-4.706-.96.627.627,0,0,1,.484-1.151,12.586,12.586,0,0,0,4.237.865,4.7,4.7,0,0,0,3.269-1.079C247.606,160.646,247.622,161.154,247.63,161.661Z" transform="translate(-49.401 -33.063)" fill="#b9293c"/>
      <path id="Caminho_15652" data-name="Caminho 15652" d="M191.262,185.012h0a19.282,19.282,0,0,1-4.944.4h0a9.521,9.521,0,0,1-2.968-1.865,10.315,10.315,0,0,1-2.381-3.277.428.428,0,0,1,0-.087h0a10.316,10.316,0,0,1-.794-2.642,8.008,8.008,0,0,1,2.833-7.142.619.619,0,0,1,.873.1.611.611,0,0,1-.1.865,6.777,6.777,0,0,0-2.381,5.983,8.728,8.728,0,0,0,.333,1.381,8.874,8.874,0,0,0,.516,1.285,8.657,8.657,0,0,0,8.594,4.864A.643.643,0,0,1,191.262,185.012Z" transform="translate(-37.184 -35.155)" fill="#b9293c"/>
      <path id="Caminho_15653" data-name="Caminho 15653" d="M214.314,182.143l-3.285.738h0a4.023,4.023,0,0,1-1.032-.643,7.073,7.073,0,0,0-1.349-.881c-2.127-1.1-4.61-.294-6.221.833s-3.269.428-4.491-.071a4.08,4.08,0,0,0-1.285-.389,3.889,3.889,0,0,0-1.309.794c-.992.794-2.341,1.833-3.626.928-1.111-.794-3.007.389-3.023.4a.643.643,0,0,1-.333.1.6.6,0,0,1-.524-.286.611.611,0,0,1,.183-.849c.1-.071,2.6-1.651,4.412-.381.492.349,1.166-.127,2.143-.889a3.968,3.968,0,0,1,2.008-1.079,4.491,4.491,0,0,1,1.817.476c1.127.46,2.285.928,3.325.206a7.359,7.359,0,0,1,7.5-.92,8.845,8.845,0,0,1,1.547,1.008c.667.524.921.722,2.888.476A.611.611,0,0,1,214.314,182.143Z" transform="translate(-38.763 -37.079)" fill="#b9293c"/>
      <path id="Caminho_15654" data-name="Caminho 15654" d="M207.782,177.217c-4.229,0-7.5-3.444-7.65-3.611a.611.611,0,0,1,0-.873.619.619,0,0,1,.873,0h0c.04.048,3.833,4.023,8.134,3.063a26.642,26.642,0,0,0,4.658-1.587c2.277-.952,4.245-1.777,6.61-1.246a.622.622,0,0,1-.27,1.214c-1.984-.452-3.7.27-5.864,1.174a27.726,27.726,0,0,1-4.864,1.674,7.53,7.53,0,0,1-1.627.19Z" transform="translate(-41.285 -35.629)" fill="#b9293c"/>
      <path id="Caminho_15655" data-name="Caminho 15655" d="M221.405,177.454a.627.627,0,0,1-.468-.222,4.507,4.507,0,0,0-3.134-1.484.619.619,0,0,1-.048-1.238,5.714,5.714,0,0,1,4.126,1.92.619.619,0,0,1-.087.849A.658.658,0,0,1,221.405,177.454Z" transform="translate(-44.839 -36.033)" fill="#b9293c"/>
      <path id="Caminho_15656" data-name="Caminho 15656" d="M229.953,174.313a.572.572,0,0,1-.23-.048c-1.912-.794-2.571-3.968-2.634-4.317a.619.619,0,0,1,1.214-.23c.143.738.794,2.952,1.889,3.4a.619.619,0,0,1,.341.794A.635.635,0,0,1,229.953,174.313Z" transform="translate(-46.888 -34.947)" fill="#b9293c"/>
      <path id="Caminho_15657" data-name="Caminho 15657" d="M244.237,173.2a9.444,9.444,0,0,1-.6,1.1,4.761,4.761,0,0,0-4.364.548h0c-.492.357-.936.674-1.373.96h0a6.293,6.293,0,0,1-3.626,1.262,8.268,8.268,0,0,1-2.2-.333.621.621,0,0,1,.325-1.2,4.967,4.967,0,0,0,3.571-.071,8.174,8.174,0,0,0,1.389-.794c.357-.246.746-.524,1.182-.841h0A6.11,6.11,0,0,1,244.237,173.2Z" transform="translate(-47.825 -35.674)" fill="#b9293c"/>
      <path id="Caminho_15658" data-name="Caminho 15658" d="M238.021,175.7c-1.873,0-2.754-2.111-2.984-3.412a.62.62,0,0,1,1.222-.214s.476,2.539,1.912,2.381a.623.623,0,1,1,.135,1.238Z" transform="translate(-48.528 -35.424)" fill="#b9293c"/>
      <path id="Caminho_15659" data-name="Caminho 15659" d="M246.947,168.561c-.119.452-.238.889-.373,1.3a8.417,8.417,0,0,1-.881.048,8.9,8.9,0,0,1-6.491-3.023.611.611,0,0,1,.087-.873.627.627,0,0,1,.873.087,7.483,7.483,0,0,0,6.785,2.46Z" transform="translate(-49.36 -34.25)" fill="#b9293c"/>
      <path id="Caminho_15660" data-name="Caminho 15660" d="M181.751,182.059A.564.564,0,0,1,181.5,182a.619.619,0,0,1-.31-.794c.048-.111,1.262-2.706,6.943-3.793a.611.611,0,0,1,.73.492.619.619,0,0,1-.492.722c-4.975.952-6.047,3.063-6.055,3.079A.619.619,0,0,1,181.751,182.059Z" transform="translate(-37.402 -36.63)" fill="#b9293c"/>
      <path id="Caminho_15661" data-name="Caminho 15661" d="M229.7,154.6a24.6,24.6,0,0,1-.278,3.674c-.111.722-.246,1.4-.4,2.039-.119.452-.238.889-.373,1.3a15.993,15.993,0,0,1-.794,1.912,9.444,9.444,0,0,1-.6,1.1c-4.277,7.086-12.641,4.761-12.641,4.761l-7.626,1.7h0l-3.285.738h0l-18.187,4.055h0a19.282,19.282,0,0,1-4.944.4h0a14.458,14.458,0,0,1-7.277-2.2c-3.595-2.381-4.325-7.745-3.087-10.371a3.173,3.173,0,0,1,.571-.849H168.4a16.029,16.029,0,0,1-14-8.308,15.585,15.585,0,0,1-1.468-11.593c.111-.4.238-.794.381-1.206a.212.212,0,0,1,.056-.175c.079-.214.159-.421.246-.627,2.142-5.134,4.341-7.237,5.674-8.086a4.181,4.181,0,0,1,1.119-.532h.151s1.69-3.317,6.808-6.388c-.119.159-10.482,14.283-2.976,23.544s18.029,5.206,18.029,5.206-.69,11.252,10.181,13.371,37.343-5.959,36-20.632a24.6,24.6,0,0,1,1.04,5.634C229.677,153.588,229.693,154.1,229.7,154.6Z" transform="translate(-31.471 -26.006)" fill="#b9293c" opacity="0.5"/>
      <path id="Caminho_15662" data-name="Caminho 15662" d="M243.748,155.739a45.54,45.54,0,0,1-6.1,22.838c-6.9,11.958-13.49,24.083-19.489,36.5l-3.38,7.015H184.52c19.5-1.96,41.414-37.415,38.287-71.147-3.214-34.645-24.417-40.62-25.932-40.946H198.2A45.754,45.754,0,0,1,243.748,155.739Z" transform="translate(-38.099 -22.713)" fill="#313854" opacity="0.2"/>
      <g id="Grupo_3501" data-name="Grupo 3501" transform="translate(117.185 89.693)" opacity="0.5">
        <path id="Caminho_15663" data-name="Caminho 15663" d="M153.678,172.941a4.2,4.2,0,0,1-4.856-3c-.175-.627-4.142-15.537,3.793-33.2,8.126-18.1,26.734-23.345,27.519-23.56a4.207,4.207,0,0,1,2.214,8.118c-.143,0-15.593,4.491-22.06,18.886-6.642,14.783-3.388,27.408-3.357,27.535a4.206,4.206,0,0,1-2.96,5.15Z" transform="translate(-147.677 -113.032)" fill="#fff"/>
      </g>
      <path id="Caminho_15664" data-name="Caminho 15664" d="M239.917,129.1c-1.071-2.627-3.65-4.475-7.642-5.507a43.135,43.135,0,0,0-13.958-.7q-1.079.087-2.19.214c.833.69,1.643,1.4,2.42,2.158,1.809-.151,3.515-.23,5.1-.23a29.107,29.107,0,0,1,9.427,1.278c2.381.794,3.968,2.079,4.642,3.69,1.373,3.365-1.254,8.411-7.277,14.117q-1.412,1.341-3.087,2.73c-8.641,7.2-21.147,14.331-35.216,20.1s-28,9.451-39.2,10.379a55.122,55.122,0,0,1-7.562.167c-6.348-.333-10.467-2.023-11.641-4.9-1.389-3.4,1.309-8.507,7.451-14.283a28.9,28.9,0,0,1,.127-3.325,40.468,40.468,0,0,0-8.2,9.2c-2.127,3.539-2.658,6.666-1.587,9.292s3.65,4.483,7.65,5.555a33.224,33.224,0,0,0,7.412.913h1.214q2.5,0,5.332-.23c11.435-.96,25.607-4.706,39.9-10.562s26.98-13.125,35.843-20.465c.794-.674,1.587-1.349,2.317-2.008a38.717,38.717,0,0,0,7.142-8.284,12.823,12.823,0,0,0,2.119-6.483A7.26,7.26,0,0,0,239.917,129.1Z" transform="translate(-27.047 -25.327)" fill="#246868"/>
      <path id="Caminho_15665" data-name="Caminho 15665" d="M241.421,164.2a40.47,40.47,0,0,0-8.221-9.213c.087,1.1.127,2.206.127,3.317,6.158,5.785,8.864,10.9,7.467,14.283-1.174,2.88-5.3,4.579-11.657,4.9-.794,0-1.587.063-2.381.063-1.587,0-3.317-.071-5.134-.23-11.2-.928-25.131-4.618-39.2-10.379-12.7-5.213-24.147-11.538-32.606-18.013-.9-.69-1.777-1.389-2.619-2.087q-1.666-1.381-3.079-2.738c-4.975-4.706-7.634-8.967-7.634-12.2a5.023,5.023,0,0,1,.357-1.9c1.317-3.23,6.348-4.967,14.061-4.967q2.381,0,5.134.23h0l.548-.516.063-.056.46-.413c.254-.238.516-.46.794-.682s.341-.294.516-.436h0c-.754-.079-1.492-.159-2.222-.214a43.15,43.15,0,0,0-13.958.7c-3.968,1.032-6.57,2.88-7.65,5.507s-.54,5.753,1.587,9.292a38.406,38.406,0,0,0,7.142,8.276c.738.667,1.508,1.333,2.317,2.016.682.563,1.389,1.127,2.111,1.69,8.689,6.769,20.544,13.379,33.733,18.775,14.283,5.856,28.464,9.6,39.906,10.562q2.825.222,5.332.23h1.19a33.258,33.258,0,0,0,7.427-.913c3.968-1.032,6.578-2.888,7.65-5.555S243.516,167.759,241.421,164.2Z" transform="translate(-27.678 -25.338)" fill="#246868"/>
      <path id="Caminho_15666" data-name="Caminho 15666" d="M142.463,190.371a3.761,3.761,0,1,1-3.761-3.761A3.761,3.761,0,0,1,142.463,190.371Z" transform="translate(-27.862 -38.531)" fill="#f9c001"/>
      <circle id="Elipse_1471" data-name="Elipse 1471" cx="3.761" cy="3.761" r="3.761" transform="translate(198.222 95.77)" fill="#f9c001"/>
      <circle id="Elipse_1472" data-name="Elipse 1472" cx="3.761" cy="3.761" r="3.761" transform="translate(205.03 148.515)" fill="#f9c001"/>
      <path id="Caminho_15667" data-name="Caminho 15667" d="M155.193,123.141a3.761,3.761,0,1,1-3.753-3.761,3.761,3.761,0,0,1,3.753,3.761Z" transform="translate(-30.491 -24.649)" fill="#f9c001"/>
      <path id="Caminho_15668" data-name="Caminho 15668" d="M315.68,219.823a1.175,1.175,0,0,0,.214.079,89.783,89.783,0,0,0,11.578,2.333,66.83,66.83,0,0,0,8.348.794c4.388.079,6.713-1.809,7.7-5.682,1.206-4.761.23-9.76-.151-14.506-.071-.889-.111-8.522-.936-8.689,2.69.54,4.087-2.23,6.808-1.881.524.064,1.071.159,1.651.262a5.634,5.634,0,0,1,1.42-3.079c2.333-2.73,6.134-6.158,4.817-9.856-.643-.524-1.286-1.039-1.9-1.587a24.368,24.368,0,0,1-5.428-6.658,16.505,16.505,0,0,0-1.508-2.246,17.457,17.457,0,0,0-3.571-3.428,2.6,2.6,0,0,1-.468,1.841,3.587,3.587,0,0,1-4.047,1.055l-.2-.1c-.547-.286-.3-.5.1-.659s.928-.349,1.079-.833c.4-1.254-3.047-1.539-3.682-1.587-6.182-.833-10.689,6.959-12.236,8.538,0,0,.452,2.8-.6,3.912a2.088,2.088,0,0,0-.452.659,4.4,4.4,0,0,1,.54,1.278h0c2.143.587-.151,3.134,1.206,4.293.516.436,1.222.6,1.77,1a.706.706,0,0,1,.246.286.524.524,0,0,1-.159.555,2.563,2.563,0,0,1-2.381.46,10.99,10.99,0,0,1-3.515,7.681c.23,2.166.794,5.491,3.412,6.031a4.229,4.229,0,0,1,1.1.309c1.682.881-.341,3.063-1.452,3.317a15.131,15.131,0,0,1-5.317-.246h0c-.4-.056-.611.508.349,1.349,2.555,2.23,5.324,5.475,4.452,9.157a7.632,7.632,0,0,1-5.4,5.285A13,13,0,0,1,315.68,219.823Z" transform="translate(-65.181 -34.14)" fill="#fff"/>
      <path id="Caminho_15669" data-name="Caminho 15669" d="M360.546,192.671c2.42-2.841,6.015-6.348,4.65-10.181,1.976,1.587,4.245,3.261,5.134,5.658a6.134,6.134,0,0,1-2.381,7.451c-2.515,1.492-5.951.928-8.879.413a6.348,6.348,0,0,1,1.476-3.341Z" transform="translate(-74.14 -37.68)" fill="#f9c001"/>
      <path id="Caminho_15670" data-name="Caminho 15670" d="M371.172,191.7a1,1,0,0,0-.873-1.135,1.047,1.047,0,0,0-1.182.857,1,1,0,0,0,.873,1.143,1.048,1.048,0,0,0,1.182-.865Z" transform="translate(-76.213 -39.346)"/>
      <path id="Caminho_15671" data-name="Caminho 15671" d="M351.3,158.6a28.485,28.485,0,0,0,5.293,5.92c-.794,1.968-1.341,3.293-1.341,3.293a17.457,17.457,0,0,0-3.571-3.428,4.76,4.76,0,0,0-1.7-3.047,3.875,3.875,0,0,0-.555-.389C349.962,160.274,350.6,159.473,351.3,158.6Z" transform="translate(-72.15 -32.748)" fill="#020e25"/>
      <path id="Caminho_15672" data-name="Caminho 15672" d="M360.63,147.621c1.547-1.587,2.793-2.682,3.285-2.563s.1,2.381-.794,5.269A14.641,14.641,0,0,1,360.63,147.621Z" transform="translate(-74.462 -29.95)" fill="#2683c4"/>
      <path id="Caminho_15673" data-name="Caminho 15673" d="M360.048,148.29A14.638,14.638,0,0,0,362.516,151c-.365,1.182-.794,2.468-1.285,3.785a14.538,14.538,0,0,1-3.42-4.039C358.588,149.853,359.349,149.02,360.048,148.29Z" transform="translate(-73.88 -30.619)" fill="#0e578a"/>
      <path id="Caminho_15674" data-name="Caminho 15674" d="M357.135,151.38a14.539,14.539,0,0,0,3.42,4.039c-.444,1.254-.92,2.523-1.389,3.73a23.266,23.266,0,0,1-4.626-4.714C355.4,153.4,356.278,152.364,357.135,151.38Z" transform="translate(-73.205 -31.257)" fill="#102f73"/>
      <path id="Caminho_15675" data-name="Caminho 15675" d="M353.972,155.23a23.266,23.266,0,0,0,4.626,4.714c-.54,1.42-1.063,2.754-1.516,3.88a28.486,28.486,0,0,1-5.293-5.92C352.465,157.063,353.21,156.15,353.972,155.23Z" transform="translate(-72.637 -32.052)" fill="#0a1f49"/>
      <path id="Caminho_15676" data-name="Caminho 15676" d="M303.147,184.451a.619.619,0,0,1,.429-.452.9.9,0,0,1,.682.23c.984.659,2.071,1.793,3.372,1.293s2.111-2.325,2.333-3.666c.428-2.492.119-4.444,1.508-6.61.587-.913,2.095-2.3,3.69-2.166-1.1-.1,0-5.3.325-6.023,1.111-2.809,4.031-4.872,6.658-6.221,5.4-2.785,12.371-3.031,17.584.119a5.808,5.808,0,0,1,.555.4,4.761,4.761,0,0,1,1.7,3.047,2.6,2.6,0,0,1-.468,1.841,3.587,3.587,0,0,1-4.047,1.055l-.2-.1c-.548-.286-.3-.5.1-.659s.928-.349,1.079-.833c.4-1.254-3.047-1.539-3.682-1.587-4.7-.627-8.435,3.722-10.633,6.539a10.683,10.683,0,0,0-1.079,9.919,5.938,5.938,0,0,0,2.46,2.88.912.912,0,0,1,.286.381.865.865,0,0,1-.206.794,2.754,2.754,0,0,1-2.873.714h-.071a12.054,12.054,0,0,1-3.46,7.848c.254,2.158.913,5.221,3.365,5.737a4.332,4.332,0,0,1,1.079.413c1.682.873-.31,2.857-1.42,3.111a15.185,15.185,0,0,1-5.325-.246l-.254-.063a1.658,1.658,0,0,0,.667,1.008c2.555,2.23,5.317,5.721,4.452,9.4A7.78,7.78,0,0,1,316.3,217.9a13.219,13.219,0,0,1-3.357.635,11.736,11.736,0,0,1-7.142-1.738,7.277,7.277,0,0,1-3.238-3.825,2.571,2.571,0,0,1-.064-1.341c.151-.524.635-.793.976-.167a3.087,3.087,0,0,0,2.269,1.587c2.063.389,3.841-1.1,3.174-3.214a4.762,4.762,0,0,0-.667-1.293c-.944-1.46-2.309-2.738-3.087-4.293a8.2,8.2,0,0,1-.889-4.634c.286-2.15,1.587-4.682,4.007-5.166h.119a11.286,11.286,0,0,1-.3-4.761c-1.785.1-3.849-1.587-4.579-3.071A3.341,3.341,0,0,1,303.147,184.451Z" transform="translate(-62.448 -32.762)" fill="#f9c001"/>
      <path id="Caminho_15677" data-name="Caminho 15677" d="M334.848,169.641c1.143-.063,3.523-2.254,3.285-3.341-.579-2.682-3.126-6.483-2.881-8.078.349-2.222-3.825-1.627-3.714,2.754s0,8.356,1.96,8.618a7.14,7.14,0,0,0,1.349.048Z" transform="translate(-68.455 -32.409)" fill="#246868"/>
      <path id="Caminho_15678" data-name="Caminho 15678" d="M350.6,181.894a1.587,1.587,0,0,0,1.4,1.841,1.69,1.69,0,0,0,1.9-1.4,1.587,1.587,0,0,0-1.4-1.833A1.7,1.7,0,0,0,350.6,181.894Z" transform="translate(-72.388 -37.267)"/>
      <path id="Caminho_15679" data-name="Caminho 15679" d="M333.484,169.713c-1.92-.262-1.857-4.229-1.96-8.618a4.079,4.079,0,0,1,1.436-3.555c0,.048-1.024,10.411,2.92,11.816l-.413.222a1.7,1.7,0,0,1-.635.183A7.139,7.139,0,0,1,333.484,169.713Z" transform="translate(-68.448 -32.529)" fill="#183456"/>
    </g>
  </g>
</svg>
