<svg width="1386.861" height="389.407" xmlns="http://www.w3.org/2000/svg">
 <defs>
  <clipPath id="clip-path">
   <path fill="none" d="m-10.81408,-428.04883l1401.976,0l0,289l-1401.976,0l0,-289z" id="Caminho_15084"/>
  </clipPath>
 </defs>
 <g>
  <title>background</title>
  <rect fill="none" id="canvas_background" height="391.407" width="1388.861" y="-1" x="-1"/>
 </g>
 <g>
  <title>Layer 1</title>
  <g stroke="null" id="Grupo_3666">
   <g stroke="null" id="Grupo_3024">
    <path stroke="null" fill="#f9c001" d="m725.52098,368.00217l-128.66473,-107.209c-21.57878,-0.028 -39.04981,-12.2 -39.04981,-27.212l0,-197.574c32.21138,-14.269 101.52861,-13.53 154.58448,-8.607c29.33339,3.825 36.66618,30.6 27.49991,48.456c-20.16601,40.805 -94.41566,65.352 -79.74897,115.084c3.66695,11.476 17.41635,21.359 32.08305,25.185c27.49991,6.376 53.16635,-2.55 71.49888,-16.577c28.78323,-23.833 23.76935,-12.5 70.11624,-38.263s68.74141,-21.234 105.34398,-23.6c0.07142,-0.006 1.68729,0.032 2.08345,0c35.18422,-2.806 69.63416,-20.757 85.77611,-10.457c32.87201,20.977 -28.60245,89.922 -28.60245,89.922c0,7.227 87.96111,145.746 80.60712,150.852s-343.13682,0.017 -353.52726,0z" id="Caminho_9210"/>
    <path stroke="null" fill="#f9c001" d="m443.41447,353.83617l-245.20821,-24.885c-21.28417,-0.042 -263.22158,39.858 -263.21154,24.885l0,-246.7s38.90585,39.926 91.72961,64.871s155.56985,-15.288 163.2218,-18.36c17.09273,-6.864 21.20271,-7.2 26.36166,-8.392c73.42833,-17.017 76.71586,13.9 120.15017,24.088c39.81534,8.912 84.15355,0.637 91.84121,-34.374c-1.68059,-23.051 0.08035,-29.248 40.10436,-53.423c6.93998,-36.4 125.43857,-77.263 141.05381,-79.732l189.26207,367.807c0,15.015 -333.96944,-15.774 -355.31275,-15.789l0.00781,0.004z" id="Caminho_9212"/>
    <path stroke="null" fill="#f9c001" d="m1434.36211,367.96918l-328.53039,0c-37.09693,-0.028 -167.9779,-121.215 -167.96004,-136.438l0,-112.377c35.47325,-3 80.02795,-3 115.77795,-2.285c39.83877,0.8 148.10873,80.572 186.61508,85.744c105.79036,14.138 203.47123,-38.249 203.47123,-38.249l0,99.2c0.01674,15.249 -9.37383,104.405 -9.37383,104.405z" id="Caminho_9214"/>
   </g>
   <g stroke="null" id="Grupo_351">
    <g stroke="null" id="Camada_2">
     <g stroke="null" id="OBJECTS">
      <path stroke="null" fill-rule="evenodd" fill="#fff" d="m-9.65392,344.06315l0,42.712l1428.39298,0l0,-124.148c-97.66191,27.872 -293.58163,74.3 -526.27354,78.306c-269.97855,4.628 -624.80364,-48 -897.4448,1.651c-1.82455,0.332 -2.48741,1.065 -4.67464,1.479z" id="Caminho_270"/>
     </g>
    </g>
    <g stroke="null" id="Camada_2-2">
     <g stroke="null" id="OBJECTS-2">
      <path stroke="null" fill-rule="evenodd" fill="#206666" d="m904.92714,362.22215c-263.1602,-0.818 -590.35594,-54.749 -872.73361,-25.664c268.85927,-48.369 616.30917,3.4 882.22461,-1.2c230.16544,-3.988 423.92025,-50.425 520.62023,-78.306l0,42.814c-116.69524,27.219 -311.84051,62.985 -530.11123,62.356z" id="Caminho_271"/>
     </g>
    </g>
   </g>
   <g stroke="null" clip-path="url(#clip-path)" transform="matrix(-1.0991930374726604,0.174,-0.194172171086541,-0.985,1224.2329613903398,790.298) " id="Grupo_de_máscara_11">
    <path stroke="#f9c001" stroke-width="3" stroke-miterlimit="10" fill="none" d="m1137.18614,615.16825c-44.817,15.164 -96.165,18.914 -128.9,18.973c-61.891,0.111 -109.355,-13.481 -143.992,-30.1c-27.36,-13.134 -53.354,-26.578 -76.83,-40.6c-57.815,-34.307 -105.876,-37.652 -129.522,-40.944c-68.7,-9.494 -209.02,1.292 -309.454,-15.245c-187.852,-30.93 -144.872,-78.646 -374.113,-75.284c-14.407,0.211 -215.032,15.818 -231.35,16.428" id="Caminho_15083"/>
   </g>
  </g>
 </g>
</svg>