<svg xmlns="http://www.w3.org/2000/svg" xmlns:xlink="http://www.w3.org/1999/xlink" width="532.284" height="390.996" viewBox="0 0 532.284 390.996">
  <defs>
    <linearGradient id="linear-gradient" y1="0.5" x2="1" y2="0.5" gradientUnits="objectBoundingBox">
      <stop offset="0" stop-color="#fcab72"/>
      <stop offset="0.03" stop-color="#f8a367"/>
      <stop offset="0.11" stop-color="#ee8c48"/>
      <stop offset="0.16" stop-color="#ea833d"/>
      <stop offset="0.82" stop-color="#ea833d"/>
      <stop offset="0.88" stop-color="#e77d35"/>
      <stop offset="0.98" stop-color="#de6c1f"/>
      <stop offset="1" stop-color="#db6719"/>
    </linearGradient>
    <linearGradient id="linear-gradient-2" y1="0.5" x2="1" y2="0.5" gradientUnits="objectBoundingBox">
      <stop offset="0" stop-color="#fdfeff"/>
      <stop offset="0.16" stop-color="#f2f6fe"/>
      <stop offset="0.82" stop-color="#f2f6fe"/>
      <stop offset="0.89" stop-color="#eaf0fb"/>
      <stop offset="0.99" stop-color="#d4dff1"/>
      <stop offset="1" stop-color="#d1ddf0"/>
    </linearGradient>
    <linearGradient id="linear-gradient-3" x1="0.001" y1="0.5" x2="1.001" y2="0.5" gradientUnits="objectBoundingBox">
      <stop offset="0" stop-color="#3b6ecc"/>
      <stop offset="0.09" stop-color="#3460b8"/>
      <stop offset="0.16" stop-color="#3058ad"/>
      <stop offset="0.82" stop-color="#3058ad"/>
      <stop offset="0.89" stop-color="#2852a5"/>
      <stop offset="1" stop-color="#14408f"/>
      <stop offset="1" stop-color="#133f8e"/>
    </linearGradient>
    <linearGradient id="linear-gradient-4" x1="0" y1="0.5" x2="1" y2="0.5" xlink:href="#linear-gradient-3"/>
    <linearGradient id="linear-gradient-5" x1="0.001" y1="0.5" x2="1" y2="0.5" xlink:href="#linear-gradient"/>
    <linearGradient id="linear-gradient-6" x1="0.001" y1="0.5" x2="1" y2="0.5" xlink:href="#linear-gradient"/>
    <linearGradient id="linear-gradient-7" x1="0" y1="0.5" x2="1" y2="0.5" xlink:href="#linear-gradient"/>
    <linearGradient id="linear-gradient-10" x1="0" y1="0.5" x2="1" y2="0.5" xlink:href="#linear-gradient-3"/>
    <linearGradient id="linear-gradient-11" x1="0" y1="0.5" x2="1" y2="0.5" xlink:href="#linear-gradient-3"/>
    <linearGradient id="linear-gradient-12" x1="0" y1="0.5" x2="1" y2="0.5" xlink:href="#linear-gradient"/>
    <linearGradient id="linear-gradient-19" x1="0.5" y1="0.879" x2="0.5" y2="-0.027" xlink:href="#linear-gradient"/>
    <linearGradient id="linear-gradient-20" x1="0.5" y1="-0.02" x2="0.5" y2="1.066" xlink:href="#linear-gradient"/>
  </defs>
  <g id="Camada_2" data-name="Camada 2" transform="translate(19.112 97.004)">
    <g id="OBJECT" transform="translate(-19.112 -97.004)">
      <circle id="Elipse_1459" data-name="Elipse 1459" cx="25.66" cy="25.66" r="25.66" transform="translate(0 38.022) rotate(-45)" fill="#183456" opacity="0.6"/>
      <circle id="Elipse_1460" data-name="Elipse 1460" cx="12.772" cy="12.772" r="12.772" transform="translate(171.403 18.063) rotate(-45)" fill="#183456" opacity="0.8"/>
      <path id="Caminho_15510" data-name="Caminho 15510" d="M742.848,195.86a83.565,83.565,0,0,0,10.591-40.692c.049-47.915-40.87-87.167-91.34-87.6-51.3-.44-93.039,38.91-93.039,87.514v.177a9.107,9.107,0,0,1-4.6,7.87,10.145,10.145,0,0,1-9.472.381,144.524,144.524,0,0,0-61.144-14.02c-77.446-.684-140.593,56.839-140.7,130.384-.085,55.965,69.747,84.744,69.747,84.744s32.253-10.545,39.039-10.474c25,.264,34.288,0,48.561,0,39.058,0,56.4,44.273,81.67,19.682,20.491,25.365,52.743,41.719,89.015,41.719,59.427,0,64.742-31.47,68.492-87.109.15-2.229,11.254-29.962,11.247-32.374-.1-34.175,15.2-51.815-11.247-71.221C740.317,217.977,737.334,205.778,742.848,195.86Z" transform="translate(-352.354 -66.044)" fill="#183456" opacity="0.15"/>
      <path id="Caminho_15511" data-name="Caminho 15511" d="M1912.774,976.109c2.206.385,5.39-.9,5.778-3.1s-2.17-4.5-4.376-4.885a52.712,52.712,0,0,0-12.184.159c.494-.344.989-.687,1.466-1.047l10.965-8.048c1.466,2.246,11.385,5.518,13.394,5.866,2.206.388,5.39-.9,5.778-3.1s-2.17-4.5-4.376-4.883a52.858,52.858,0,0,0-12.11.144l4.881-3.582-.01-.015c2.514-2.206,6.439-10.227,7.013-12.006.687-2.13-.145-5.461-2.275-6.15s-4.753,1.529-5.447,3.66c-.58,1.8-2.12,10.774-1.307,13.947l-10.034,7.365a53.272,53.272,0,0,0,.8-11.748c-.254-2.225-2.388-4.917-4.609-4.663s-3.7,3.352-3.446,5.581c.209,1.812,2.363,10.093,4.359,12.959l-4.552,3.352a67.164,67.164,0,0,1-8.459,5.289,50.683,50.683,0,0,0,2.7-12.445c.042-2.239-1.716-5.189-3.955-5.237s-4.108,2.839-4.152,5.076c-.036,1.921,1.125,11.23,2.87,13.862a66.166,66.166,0,0,1-14.7,4.933c1.523-3.222,2.436-11.522,2.38-13.319-.071-2.239-1.978-5.095-4.215-5.028s-3.959,3.04-3.89,5.277c.058,1.885,1.611,10.719,3.429,13.508a66.883,66.883,0,0,1-8.924.947l-6.274.239c1.925-3.264,3.936-10.568,4.156-12.261.287-2.219-1.138-5.344-3.352-5.631s-4.4,2.367-4.684,4.588c-.228,1.772-.132,10.009,1.047,13.407l-9.106.346a48.81,48.81,0,0,0-5.851.589c2.514-2.753,5.933-9.808,6.465-11.463.689-2.131-.142-5.463-2.273-6.151s-4.753,1.529-5.446,3.66c-.612,1.885-2.286,11.744-1.154,14.4a48.423,48.423,0,0,0-16.044,6.569,57.127,57.127,0,0,0,4.651-9.008c.687-2.131-.145-5.461-2.275-6.151s-4.753,1.529-5.447,3.66c-.628,1.919-2.332,12.008-1.11,14.5a48.64,48.64,0,0,0-7.872,7.919l-.142.18a46.474,46.474,0,0,0,1.6-8.076c.061-2.277-2-5.3-4.655-5.369s-4.875,2.834-4.936,5.111c-.055,1.969,1.3,11.595,3.377,14.2l-11.974,15.234,1.3,1.02,4.671-5.939c2.11,2.114,11.555,4.609,13.506,4.847,2.224.258,5.329-1.209,5.589-3.431s-2.428-4.363-4.653-4.623a50.6,50.6,0,0,0-12.705,1l6.232-7.921a4.4,4.4,0,0,0,.557-.708L1812.3,999c.5-.629,1.01-1.242,1.533-1.844,1.221,2.956,8.128,9.165,9.716,10.225,1.862,1.257,5.294,1.357,6.538-.5s-.17-4.99-2.03-6.234c-1.529-1.022-9.341-4.774-12.778-5.055a46.82,46.82,0,0,1,14.794-10.439c-.277,2.575,5.976,11.207,7.416,12.684,1.561,1.6,4.9,2.428,6.494.865s.872-4.917-.691-6.521c-1.313-1.349-8.482-6.873-11.683-7.667a46.924,46.924,0,0,1,15.806-3.377l1.584-.059c.419,3.037,6.048,10.795,7.405,12.188,1.56,1.6,4.9,2.426,6.494.865s.871-4.917-.691-6.521a53.885,53.885,0,0,0-9.339-6.68l12.762-.484c.507-.021,1.012-.057,1.516-.086-.582,2.206,7.657,10.328,9.4,11.6,1.808,1.322,5.237,1.58,6.555-.226s.042-4.994-1.764-6.316a52.008,52.008,0,0,0-11.182-5.3,68.038,68.038,0,0,0,14.538-3.142s0,0,0,.015c-.972,2.017,9.28,8.962,11.3,9.932s5.432.6,6.4-1.418-.869-4.917-2.886-5.889c-1.623-.779-9.584-3.306-13.145-3.218a68.132,68.132,0,0,0,12.929-6.3C1900.345,972.339,1910.712,975.751,1912.774,976.109Z" transform="translate(-1401.35 -687.462)" fill="#206666"/>
      <path id="Caminho_15512" data-name="Caminho 15512" d="M1837.507,585.576c.364-2.281,2.686-4.956,4.967-4.592s3.658,3.628,3.3,5.91a54.385,54.385,0,0,1-4.25,11.834c.5-.367,1-.735,1.515-1.091l11.536-7.992c-1.7-2.179-1.557-12.961-1.226-15.039.365-2.281,2.688-4.956,4.969-4.592s3.657,3.628,3.293,5.91a54.471,54.471,0,0,1-4.213,11.765l5.136-3.561.01.017c3-1.718,12.14-2.845,14.067-2.807,2.3.044,5.281,1.975,5.237,4.284s-3.088,4.125-5.4,4.079c-1.95-.038-11.224-1.552-14.048-3.411l-10.556,7.313a55.5,55.5,0,0,1,11.731,3.169c2.095,1,3.993,3.98,3,6.075s-4.51,2.474-6.6,1.479c-1.7-.811-9.052-5.7-11.176-8.606L1844,599.035a69.048,69.048,0,0,0-8,6.473c3.957-.287,11.4,1.022,13.047,1.552,2.2.712,4.483,3.419,3.771,5.618s-4.148,3.054-6.345,2.342c-1.885-.61-10.579-4.871-12.559-7.458a68.322,68.322,0,0,0-9.751,12.678c3.655-.4,12.058,1.5,13.795,2.156,2.158.821,4.3,3.641,3.484,5.8s-4.3,2.843-6.456,2.021c-1.81-.687-9.915-5.174-12.022-7.885a69.4,69.4,0,0,0-3.926,8.379l-2.342,6.039c3.834-.781,11.635-.287,13.359.067,2.262.465,4.831,2.906,4.366,5.168s-3.788,3.492-6.05,3.027c-1.806-.371-9.81-3.234-12.734-5.526l-3.4,8.767a50.146,50.146,0,0,1-2.545,5.524c3.526-1.517,11.562-2.491,13.355-2.455,2.3.044,5.281,1.975,5.237,4.286s-3.09,4.116-5.394,4.07c-2.053-.04-12.225-1.718-14.431-3.712a50.039,50.039,0,0,1-11.8,13.445,57.208,57.208,0,0,1,10.359-1.506c2.3.044,5.281,1.975,5.237,4.286s-3.088,4.123-5.4,4.079c-2.08-.042-12.5-1.764-14.519-3.792a50.242,50.242,0,0,1-10.37,5.028l-.224.078a48.37,48.37,0,0,1,8.415,1.156c2.241.706,4.493,3.737,3.672,6.345s-4.4,3.8-6.645,3.1c-1.938-.612-10.877-5.164-12.718-8.069l-18.885,6.574-.561-1.609,7.363-2.562c-1.353-2.767-.629-12.823-.189-14.8.494-2.258,2.968-4.793,5.224-4.3s3.442,3.834,2.948,6.092c-.371,1.676-3,8.8-5.25,12.058l9.823-3.419a4.494,4.494,0,0,1,.876-.306l5.589-1.944c.783-.272,1.554-.568,2.317-.878-2.474-2.183-6.209-11.008-6.7-12.913-.589-2.235.457-5.62,2.69-6.209s4.818,1.843,5.4,4.077c.482,1.835,1.517,10.717.629,14.165a48.339,48.339,0,0,0,15.156-10.935c-2.6-.595-8.922-9.6-9.879-11.5-1.047-2.063-.723-5.591,1.341-6.632s5.088.8,6.129,2.866c.874,1.735,3.855,10.583,3.561,13.975a48.389,48.389,0,0,0,8.618-14.272l.593-1.527c-2.828-1.42-8.5-9.527-9.4-11.312-1.047-2.063-.723-5.591,1.341-6.632s5.089.8,6.13,2.866a56,56,0,0,1,3.377,11.356l4.74-12.288c.189-.488.394-.968.593-1.452-2.35-.174-7.5-10.937-8.16-13.063-.683-2.208.21-5.635,2.422-6.318s4.885,1.636,5.568,3.844a53.569,53.569,0,0,1,1.416,12.688,70.233,70.233,0,0,1,7.96-13.124h-.017c-2.294.268-5.625-12.064-5.893-14.36s1.242-5.5,3.536-5.767,4.5,2.5,4.774,4.8c.209,1.846,0,10.46-1.28,13.9a70.2,70.2,0,0,1,10.5-10.493C1837.023,598.97,1837.167,587.706,1837.507,585.576Z" transform="translate(-1370.33 -398.648)" fill="#206666"/>
      <path id="Caminho_15513" data-name="Caminho 15513" d="M1798.405,200.578c2.068-1.466,3.576-5.028,2.116-7.1s-5.333-1.843-7.4-.383a60.091,60.091,0,0,0-9.58,9.89c.12-.668.239-1.339.341-2.013l2.284-15.2c2.964.628,13.491-4.73,15.374-6.058,2.066-1.466,3.574-5.028,2.114-7.1s-5.331-1.843-7.4-.383a59.559,59.559,0,0,0-9.53,9.823l1.016-6.766h-.021c.241-3.771-3.067-13.306-4.035-15.183-1.161-2.25-4.493-4.236-6.741-3.077s-2.562,5.028-1.4,7.277c.978,1.9,6.947,10.281,10.137,12.15l-2.095,13.91a60.262,60.262,0,0,0-8.78-10c-1.986-1.569-5.841-2-7.409-.017s-.258,5.635,1.728,7.2c1.617,1.278,9.972,6.146,13.857,6.829l-.947,6.31a75.943,75.943,0,0,1-2.5,10.992c-1.63-4.03-6.513-10.717-7.828-12.075-1.762-1.816-5.526-2.755-7.332-1s-1,5.553.763,7.37c1.51,1.561,9.9,8.046,13.394,8.742a74.821,74.821,0,0,1-7.751,15.711c-1.37-3.785-7.294-11.128-8.781-12.517-1.85-1.726-5.656-2.472-7.382-.628s-.719,5.6,1.131,7.332c1.55,1.445,9.875,7.246,13.556,8.011a75.533,75.533,0,0,1-6.347,7.912l-4.818,5.212c-1.083-4.144-5.338-11.574-6.517-13.1-1.55-2-5.189-3.352-7.19-1.8s-1.6,5.409-.052,7.407c1.238,1.6,7.917,8.08,11.582,9.846l-6.976,7.575a54.988,54.988,0,0,0-4.19,5.157c-.21-4.2-3.142-12.569-4.037-14.314-1.158-2.248-4.491-4.236-6.741-3.075s-2.56,5.028-1.4,7.275c1.031,2,7.594,11.186,10.621,12.393a54.76,54.76,0,0,0-7.514,18.1,62.771,62.771,0,0,0-3.524-10.91c-1.161-2.25-4.493-4.236-6.741-3.077s-2.562,5.028-1.4,7.275c1.047,2.026,7.768,11.434,10.738,12.441a55.035,55.035,0,0,0,.075,12.617l.032.258a52.365,52.365,0,0,0-5.2-7.713c-1.774-1.862-5.843-2.612-8.011-.547s-1.611,6.167.165,8.027c1.536,1.613,10.328,8.2,14.071,8.606l2.662,21.738,1.85-.226-1.047-8.476c3.375,0,12.906-5.581,14.643-6.963,1.977-1.577,3.276-5.237,1.7-7.213s-5.43-1.529-7.409.046c-1.479,1.179-7.19,7.2-9.318,10.983l-1.383-11.312a4.891,4.891,0,0,0-.124-1.01l-.787-6.433c-.111-.9-.193-1.8-.256-2.7,3.352,1.376,13.826.786,15.933.36,2.48-.5,5.3-3.163,4.8-5.644s-4.135-3.838-6.616-3.339c-2.036.419-11.266,3.685-14.23,6.215a52.923,52.923,0,0,1,3.436-20.167c1.843,2.271,13.742,4.133,16.074,4.158,2.528.025,5.845-1.99,5.865-4.521s-3.247-4.609-5.776-4.642c-2.128-.021-12.265,1.324-15.454,3.257a53.037,53.037,0,0,1,9.867-15.366l1.213-1.318c2.763,2.095,13.47,3.752,15.667,3.771,2.531.027,5.845-1.99,5.866-4.519s-3.245-4.609-5.776-4.642a61.483,61.483,0,0,0-12.793,2.166l9.785-10.606c.39-.419.763-.855,1.14-1.284,1.305,2.227,14.375,2.095,16.784,1.711,2.5-.394,5.432-2.933,5.038-5.434s-3.968-4.012-6.467-3.616a58.766,58.766,0,0,0-13.157,4.739,76.853,76.853,0,0,0,9.06-14.157v.019c.838,2.386,14.576-.3,16.968-1.144s4.806-3.875,3.961-6.261-4.632-3.22-7.017-2.376c-1.919.679-10.284,5.049-13.049,7.973a76.884,76.884,0,0,0,5.237-15.385C1785.475,207.522,1796.478,201.941,1798.405,200.578Z" transform="translate(-1342.871 -71.931)" fill="#206666"/>
      <path id="Caminho_15514" data-name="Caminho 15514" d="M17.344,842.949c-2.3-.157-5.176-2.233-5.028-4.537s3.3-3.974,5.6-3.808a54.247,54.247,0,0,1,12.165,3.176c-.419-.467-.821-.932-1.221-1.41l-8.983-10.776C17.859,827.479,7.1,828.3,5.006,828.155,2.7,828-.175,825.922-.022,823.618s3.287-3.968,5.591-3.809a54.57,54.57,0,0,1,12.1,3.142l-4-4.8.017-.013c-1.969-2.83-3.911-11.836-4.047-13.759-.161-2.3,1.5-5.436,3.8-5.6s4.382,2.709,4.544,5.013c.136,1.944-.543,11.312-2.143,14.3l8.235,9.862a55.554,55.554,0,0,1,2.11-11.966c.8-2.166,3.607-4.332,5.773-3.528s2.874,4.276,2.068,6.442c-.656,1.764-4.866,9.523-7.573,11.9l3.723,4.47a69.291,69.291,0,0,0,7.162,7.393c-.639-3.917,0-11.45.381-13.133.513-2.254,3-4.772,5.258-4.259s3.413,3.859,2.9,6.111c-.44,1.934-3.909,10.971-6.308,13.175a68.393,68.393,0,0,0,13.5,8.589c-.727-3.605.419-12.15.915-13.933.628-2.223,3.241-4.609,5.465-3.98s3.213,4.026,2.589,6.249c-.524,1.862-4.267,10.338-6.779,12.68a69.343,69.343,0,0,0,8.7,3.159l6.226,1.793c-1.123-3.748-1.326-11.564-1.127-13.311.262-2.3,2.461-5.072,4.757-4.818s3.815,3.461,3.561,5.757c-.209,1.831-2.346,10.055-4.368,13.174l9.035,2.6a50.139,50.139,0,0,1,5.715,2.038c-1.827-3.377-3.513-11.293-3.639-13.082-.161-2.3,1.5-5.436,3.8-5.6s4.382,2.707,4.544,5.011c.145,2.049-.618,12.33-2.409,14.708a50,50,0,0,1,14.454,10.554,57.022,57.022,0,0,1-2.424-10.185c-.161-2.3,1.5-5.434,3.8-5.6s4.382,2.707,4.544,5.011c.147,2.076-.628,12.6-2.478,14.8a50.168,50.168,0,0,1,5.924,9.879l.1.209a47.973,47.973,0,0,1,.4-8.486c.5-2.3,3.32-4.818,5.991-4.225s4.19,4.047,3.679,6.341c-.434,1.986-4.169,11.3-6.9,13.388l8.233,18.225-1.552.7-3.209-7.1c-2.635,1.594-12.716,1.766-14.727,1.51-2.292-.291-5.038-2.528-4.747-4.818s3.511-3.771,5.8-3.48a51.9,51.9,0,0,1,12.479,4.15L115.142,897a4.449,4.449,0,0,1-.381-.838l-2.438-5.394c-.339-.754-.7-1.5-1.079-2.227-1.954,2.658-10.409,7.167-12.263,7.837-2.172.786-5.637.048-6.425-2.124s1.406-4.956,3.578-5.742c1.785-.645,10.539-2.47,14.052-1.9a48.348,48.348,0,0,0-12.234-14.117c-.36,2.646-8.761,9.743-10.568,10.868-1.961,1.219-5.505,1.219-6.724-.744s.344-5.141,2.3-6.36c1.649-1.026,10.2-4.785,13.6-4.787a48.429,48.429,0,0,0-14.984-7.311L80,863.7c-1.161,2.933-8.729,9.314-10.432,10.374-1.963,1.221-5.505,1.219-6.724-.742s.344-5.141,2.3-6.362a56.157,56.157,0,0,1,11.01-4.378l-12.674-3.647c-.5-.145-1-.306-1.5-.461.036,2.355-10.225,8.449-12.284,9.293-2.137.878-5.631.287-6.509-1.85s1.194-5.011,3.331-5.889A54.11,54.11,0,0,1,59.038,857.5a70.246,70.246,0,0,1-13.784-6.747s0,0,0,.017c.473,2.26-11.522,6.678-13.776,7.152s-5.587-.746-6.06-3.008,2.095-4.709,4.351-5.181c1.818-.381,10.416-.941,13.962.031a70.248,70.248,0,0,1-11.39-9.517C30.728,842.235,19.5,843.1,17.344,842.949Z" transform="translate(17.064 -579.518)" fill="#206666"/>
      <path id="Caminho_15515" data-name="Caminho 15515" d="M144.775,557.181c-.478-2.26-2.933-4.818-5.191-4.338s-3.471,3.806-2.994,6.075a54.189,54.189,0,0,0,4.833,11.605c-.52-.341-1.037-.683-1.565-1.012L127.936,562.1c1.59-2.26.907-13.021.473-15.083-.478-2.26-2.933-4.818-5.191-4.34s-3.471,3.806-2.994,6.075a54.407,54.407,0,0,0,4.793,11.54l-5.306-3.3-.01.017c-3.079-1.565-12.267-2.235-14.19-2.095-2.3.159-5.174,2.237-5.015,4.542s3.291,3.964,5.6,3.8c1.944-.136,11.132-2.109,13.857-4.108l10.91,6.779a55.332,55.332,0,0,0-11.557,3.75c-2.032,1.1-3.79,4.175-2.692,6.207s4.634,2.252,6.668,1.154c1.657-.894,8.756-6.142,10.732-9.154l4.95,3.075a69.242,69.242,0,0,1,8.314,6.065c-3.968-.088-11.339,1.59-12.952,2.2-2.16.821-4.307,3.639-3.488,5.8s4.3,2.843,6.456,2.024c1.852-.7,10.321-5.392,12.169-8.073A68.165,68.165,0,0,1,159.83,591.16c-3.67-.22-11.968,2.095-13.669,2.841-2.116.928-4.118,3.85-3.19,5.966s4.435,2.623,6.548,1.695c1.772-.777,9.636-5.656,11.616-8.474a69.072,69.072,0,0,1,4.336,8.17l2.642,5.916c-3.867-.589-11.635.293-13.338.733-2.237.578-4.68,3.142-4.1,5.38s3.957,3.3,6.194,2.723c1.785-.461,9.636-3.72,12.441-6.155l3.831,8.589a49.905,49.905,0,0,0,2.811,5.375c-3.6-1.339-11.67-1.911-13.461-1.785-2.3.159-5.174,2.235-5.015,4.539s3.291,3.966,5.6,3.8c2.049-.14,12.125-2.325,14.23-4.426a50,50,0,0,0,12.458,12.837,57.212,57.212,0,0,0-10.422-.987c-2.3.159-5.176,2.237-5.017,4.542s3.291,3.963,5.6,3.8c2.076-.145,12.393-2.384,14.312-4.51a50.223,50.223,0,0,0,10.608,4.5l.226.067a47.83,47.83,0,0,0-8.346,1.573c-2.2.817-4.3,3.957-3.352,6.521s4.588,3.578,6.789,2.763c1.906-.706,10.606-5.7,12.3-8.694l19.191,5.623.478-1.634-7.481-2.191c1.213-2.832-.017-12.837-.551-14.794-.605-2.229-3.2-4.638-5.432-4.033s-3.245,4-2.64,6.23c.455,1.676,3.436,8.629,5.845,11.781l-9.98-2.933a4.414,4.414,0,0,0-.89-.262l-5.681-1.663c-.794-.233-1.577-.49-2.357-.76,2.363-2.3,5.656-11.312,6.06-13.233.476-2.26-.737-5.589-3-6.075s-4.711,2.08-5.189,4.34c-.392,1.856-.98,10.78.071,14.18a48.321,48.321,0,0,1-15.671-10.151c2.57-.725,8.432-10.03,9.295-11.976.936-2.112.442-5.618-1.676-6.555s-5.042,1.047-5.979,3.167c-.788,1.774-3.322,10.763-2.853,14.134a48.461,48.461,0,0,1-9.32-13.826l-.666-1.5c2.753-1.559,8.013-9.94,8.826-11.773.934-2.112.442-5.62-1.676-6.557s-5.044,1.047-5.979,3.167a55.927,55.927,0,0,0-2.807,11.509l-5.369-12.033c-.209-.478-.442-.947-.666-1.42,2.338-.289,6.947-11.3,7.5-13.455.572-2.237-.5-5.616-2.734-6.188s-4.8,1.885-5.371,4.116a53.439,53.439,0,0,0-.779,12.745,70.208,70.208,0,0,0-8.589-12.714h.017c2.3.155,5.015-12.33,5.17-14.635s-1.515-5.432-3.821-5.585-4.374,2.723-4.527,5.028c-.124,1.854.517,10.447,1.971,13.826a70.273,70.273,0,0,0-11.006-9.957C145.927,570.534,145.217,559.291,144.775,557.181Z" transform="translate(-62.397 -377.022)" fill="#206666"/>
      <path id="Caminho_15516" data-name="Caminho 15516" d="M363.57,231.509c-2.047-1.073-3.842-4.127-2.769-6.173s4.609-2.3,6.651-1.236a53.628,53.628,0,0,1,9.86,7.8c-.189-.593-.377-1.184-.551-1.783l-3.9-13.482c-2.608.918-12.779-2.656-14.645-3.635-2.047-1.07-3.842-4.127-2.769-6.171s4.609-2.3,6.651-1.238a54.335,54.335,0,0,1,9.81,7.751l-1.726-6.01h.019c-.672-3.389,1.173-12.414,1.825-14.228.777-2.174,3.561-4.376,5.729-3.6s2.933,4.242,2.145,6.417c-.658,1.835-5.049,10.143-7.711,12.225l3.561,12.339A55.361,55.361,0,0,1,382.5,210.38c1.609-1.659,5.046-2.514,6.7-.909s.909,5.072-.7,6.731c-1.311,1.351-8.287,6.762-11.721,7.849l1.617,5.6a69.213,69.213,0,0,0,3.582,9.636c.991-3.844,4.609-10.474,5.633-11.869,1.374-1.858,4.669-3.161,6.525-1.785s1.573,4.906.2,6.762c-1.179,1.594-7.99,8.474-11.071,9.525a68.368,68.368,0,0,0,8.916,13.29c.784-3.593,5.262-10.952,6.44-12.387,1.466-1.785,4.818-2.92,6.609-1.452s1.322,4.977-.145,6.762c-1.227,1.5-8.065,7.751-11.312,8.882a69.325,69.325,0,0,0,6.7,6.393l4.979,4.146c.48-3.882,3.438-11.119,4.322-12.638,1.163-2,4.294-3.653,6.284-2.491s2.095,4.7.939,6.7c-.928,1.592-6.192,8.264-9.3,10.307l7.227,6.016a50.358,50.358,0,0,1,4.412,4.165c-.314-3.827,1.326-11.754,1.929-13.443.779-2.174,3.561-4.374,5.731-3.595s2.933,4.242,2.145,6.417c-.693,1.931-5.526,11.04-8.12,12.5a50.009,50.009,0,0,1,8.979,15.473,56.276,56.276,0,0,1,1.885-10.3c.779-2.174,3.561-4.374,5.732-3.595s2.933,4.242,2.145,6.416c-.7,1.959-5.656,11.281-8.222,12.552A50.2,50.2,0,0,1,433,313.465v.237a48.757,48.757,0,0,1,3.771-7.608c1.383-1.9,4.973-3.067,7.183-1.466s2.2,5.388.819,7.286c-1.2,1.644-8.363,8.662-11.7,9.481l.209,20-1.7.017-.08-7.795c-3.056.4-12.36-3.5-14.092-4.542-1.98-1.188-3.595-4.341-2.407-6.322s4.73-2.038,6.7-.85c1.481.89,7.374,5.656,9.756,8.819l-.1-10.395a4.375,4.375,0,0,1,0-.928l-.063-5.918c0-.827-.042-1.653-.092-2.474-2.859,1.649-12.414,2.376-14.379,2.244-2.3-.155-5.181-2.225-5.028-4.529s3.281-3.98,5.585-3.819c1.885.128,10.642,1.98,13.629,3.913a48.332,48.332,0,0,0-5.522-17.846c-1.4,2.277-11.941,5.4-14.048,5.7-2.285.327-5.528-1.1-5.866-3.385s2.382-4.567,4.669-4.9c1.923-.276,11.262-.279,14.379,1.087a48.4,48.4,0,0,0-10.78-12.72l-1.257-1.047c-2.248,2.227-11.731,5.017-13.725,5.3-2.288.329-5.53-1.1-5.866-3.385s2.384-4.567,4.669-4.9a56.77,56.77,0,0,1,11.84.419l-10.127-8.43c-.4-.335-.792-.683-1.186-1.026-.913,2.172-12.76,3.622-14.984,3.561-2.3-.057-5.271-2-5.214-4.311s3.109-4.108,5.417-4.054a53.736,53.736,0,0,1,12.479,2.707,70.152,70.152,0,0,1-9.9-11.731v.017c-.476,2.26-13.229,1.483-15.489,1.008s-4.818-2.933-4.338-5.191,3.806-3.471,6.075-3c1.818.383,9.915,3.331,12.779,5.646a70.256,70.256,0,0,1-6.6-13.294C376.109,236.237,365.478,232.51,363.57,231.509Z" transform="translate(-263.694 -97.75)" fill="#206666"/>
      <path id="Caminho_15517" data-name="Caminho 15517" d="M897.47,407.878V393.067A16.072,16.072,0,0,1,913.542,377h101.374a16.07,16.07,0,0,1,16.07,16.07v14.81" transform="translate(-692.423 -246.095)" fill="none" stroke="#ea833d" stroke-miterlimit="10" stroke-width="15"/>
      <g id="Grupo_3479" data-name="Grupo 3479" transform="translate(73.016 132.078)">
        <circle id="Elipse_1461" data-name="Elipse 1461" cx="35.216" cy="35.216" r="35.216" transform="translate(0 0)" fill="url(#linear-gradient)"/>
        <circle id="Elipse_1462" data-name="Elipse 1462" cx="28.5" cy="28.5" r="28.5" transform="translate(6.716 6.716)" fill="url(#linear-gradient-2)"/>
        <path id="Caminho_15518" data-name="Caminho 15518" d="M390.654,471.7a.886.886,0,0,1-.706-1.422l8.467-11.143v-23a.886.886,0,1,1,1.772,0v23.3a.888.888,0,0,1-.18.536l-8.641,11.379a.892.892,0,0,1-.712.35Z" transform="translate(-364.092 -424.221)" fill="url(#linear-gradient-3)"/>
        <circle id="Elipse_1463" data-name="Elipse 1463" cx="3.492" cy="3.492" r="3.492" transform="translate(31.724 31.724)" fill="url(#linear-gradient-4)"/>
      </g>
      <path id="Caminho_15531" data-name="Caminho 15531" d="M19.639,0H282.016a19.639,19.639,0,0,1,19.639,19.639V163.362A19.639,19.639,0,0,1,282.016,183H19.639A19.639,19.639,0,0,1,0,163.362V19.639A19.639,19.639,0,0,1,19.639,0Z" transform="translate(120.977 161.04)" fill="#183456"/>
      <path id="Caminho_15519" data-name="Caminho 15519" d="M711.921,520.85H729.5v11.89a8.8,8.8,0,0,1-8.8,8.8h0a8.8,8.8,0,0,1-8.8-8.8V520.85Z" transform="translate(-545.727 -359.811)" fill="url(#linear-gradient-5)"/>
      <path id="Caminho_15520" data-name="Caminho 15520" d="M1636.341,520.85h17.575v11.89a8.8,8.8,0,0,1-8.8,8.8h0a8.8,8.8,0,0,1-8.8-8.8V520.85Z" transform="translate(-1276.495 -359.811)" fill="url(#linear-gradient-6)"/>
      <g id="Grupo_3477" data-name="Grupo 3477" transform="translate(343.209 211.288)">
        <path id="Caminho_15521" data-name="Caminho 15521" d="M1661.774,962.429H1568.51l8.9-79.763h50.507l17.6-29.537,26.066-.6a4.837,4.837,0,0,1,4.946,4.979l-2.784,93.292A11.983,11.983,0,0,1,1661.774,962.429Z" transform="translate(-1566.099 -833.292)" fill="url(#linear-gradient-7)"/>
        <rect id="Retângulo_2954" data-name="Retângulo 2954" width="87.881" height="85.897" rx="14" transform="translate(12.483 4.108)" fill="url(#linear-gradient-2)"/>
        <rect id="Retângulo_2955" data-name="Retângulo 2955" width="87.881" height="85.897" rx="20" transform="translate(5.761)" fill="url(#linear-gradient-2)"/>
        <rect id="Retângulo_2956" data-name="Retângulo 2956" width="63.415" height="2.378" rx="1.189" transform="translate(17.995 37.619)" fill="url(#linear-gradient-10)"/>
        <rect id="Retângulo_2957" data-name="Retângulo 2957" width="63.415" height="2.378" rx="1.189" transform="translate(17.995 45.016)" fill="url(#linear-gradient-11)"/>
        <path id="Caminho_15522" data-name="Caminho 15522" d="M1657.134,1027.973H1561.77a4.77,4.77,0,0,1-4.77-4.77V952.979a4.77,4.77,0,0,1,4.77-4.77h52.1a4.772,4.772,0,0,0,3.955-2.095l8.878-13.16a4.768,4.768,0,0,1,3.955-2.095h26.473a4.77,4.77,0,0,1,4.77,4.77v87.587A4.77,4.77,0,0,1,1657.134,1027.973Z" transform="translate(-1557 -895.218)" fill="url(#linear-gradient-12)"/>
        <rect id="Retângulo_2958" data-name="Retângulo 2958" width="63.415" height="2.378" rx="1.189" transform="translate(17.995 15.424)" fill="url(#linear-gradient-10)"/>
        <rect id="Retângulo_2959" data-name="Retângulo 2959" width="63.415" height="2.378" rx="1.189" transform="translate(17.995 22.821)" fill="url(#linear-gradient-11)"/>
        <rect id="Retângulo_2960" data-name="Retângulo 2960" width="63.415" height="2.378" rx="1.189" transform="translate(17.995 30.22)" fill="url(#linear-gradient-11)"/>
      </g>
      <g id="Grupo_3476" data-name="Grupo 3476" transform="translate(399.633 130.903)">
        <rect id="Retângulo_2961" data-name="Retângulo 2961" width="104.646" height="60.512" rx="13" transform="translate(0)" fill="url(#linear-gradient-2)"/>
        <path id="Caminho_15523" data-name="Caminho 15523" d="M1896.913,440.124a4.716,4.716,0,0,0-6.666,0l-23.368,23.368a4.711,4.711,0,0,1-6.666,0l-5.947-5.947a4.716,4.716,0,0,0-6.668,0l-21.248,21.248v.71a6.817,6.817,0,0,0,6.817,6.817h91.013A6.817,6.817,0,0,0,1931,479.5v-5.3Z" transform="translate(-1826.35 -425.807)" fill="#183456"/>
        <circle id="Elipse_1464" data-name="Elipse 1464" cx="6.119" cy="6.119" r="6.119" transform="translate(23.079 6.817)" fill="url(#linear-gradient)"/>
      </g>
      <g id="Grupo_3478" data-name="Grupo 3478" transform="translate(59.8 232.555)">
        <rect id="Retângulo_2962" data-name="Retângulo 2962" width="136.594" height="73.99" rx="23" fill="url(#linear-gradient-2)"/>
        <path id="Caminho_15524" data-name="Caminho 15524" d="M716.045,1148.4l-7.372-6.892a.863.863,0,0,0-1.179,0l-7.37,6.892a.863.863,0,0,1-1.454-.628v-35.539a.865.865,0,0,1,.863-.863h17.1a.865.865,0,0,1,.863.863v35.537a.863.863,0,0,1-1.454.63Z" transform="translate(-595.068 -1059.181)" fill="url(#linear-gradient-19)"/>
        <circle id="Elipse_1465" data-name="Elipse 1465" cx="14.672" cy="14.672" r="14.672" transform="translate(98.344 31.689)" fill="url(#linear-gradient-20)"/>
        <rect id="Retângulo_2963" data-name="Retângulo 2963" width="55.18" height="2.654" rx="1.327" transform="translate(16.788 14.5)" fill="url(#linear-gradient-10)"/>
        <rect id="Retângulo_2964" data-name="Retângulo 2964" width="73.225" height="2.654" rx="1.327" transform="translate(16.788 20.687)" fill="url(#linear-gradient-10)"/>
        <rect id="Retângulo_2965" data-name="Retângulo 2965" width="73.225" height="2.654" rx="1.327" transform="translate(16.788 26.871)" fill="url(#linear-gradient-11)"/>
        <rect id="Retângulo_2966" data-name="Retângulo 2966" width="73.225" height="2.654" rx="1.327" transform="translate(16.788 33.057)" fill="url(#linear-gradient-10)"/>
        <rect id="Retângulo_2967" data-name="Retângulo 2967" width="73.225" height="2.654" rx="1.327" transform="translate(16.788 39.243)" fill="url(#linear-gradient-10)"/>
        <rect id="Retângulo_2968" data-name="Retângulo 2968" width="73.225" height="2.654" rx="1.327" transform="translate(16.788 45.427)" fill="url(#linear-gradient-11)"/>
        <rect id="Retângulo_2969" data-name="Retângulo 2969" width="73.225" height="2.654" rx="1.327" transform="translate(16.788 51.613)" fill="url(#linear-gradient-10)"/>
        <rect id="Retângulo_2970" data-name="Retângulo 2970" width="73.225" height="2.654" rx="1.327" transform="translate(16.788 57.799)" fill="url(#linear-gradient-10)"/>
      </g>
      <rect id="Retângulo_2971" data-name="Retângulo 2971" width="64.785" height="64.785" rx="21" transform="translate(239.413 214.523)" fill="url(#linear-gradient-2)"/>
      <circle id="Elipse_1466" data-name="Elipse 1466" cx="11.115" cy="11.115" r="11.115" transform="translate(260.691 222.994)" fill="#183456"/>
      <path id="Caminho_15525" data-name="Caminho 15525" d="M1133.393,939h7.122a17.421,17.421,0,0,1,17.421,17.421v4.95a3.582,3.582,0,0,1-3.582,3.582h-34.8a3.582,3.582,0,0,1-3.582-3.582v-4.95A17.421,17.421,0,0,1,1133.393,939Z" transform="translate(-865.15 -690.365)" fill="#183456"/>
      <path id="Caminho_15526" data-name="Caminho 15526" d="M1341.728,1352.177c-33.258,9.322-61.477,12.391-63.029,6.854s24.151-17.584,57.411-26.9,61.477-12.391,63.03-6.854S1374.988,1342.855,1341.728,1352.177Z" transform="translate(-993.737 -993.542)" fill="#d6f3f3"/>
      <path id="Caminho_15527" data-name="Caminho 15527" d="M1392.3,1379.736l4.627,16.509s19.692-3.268,34.657-7.805l-5.62-20.05q-7.63,2.107-15.829,4.818C1403.839,1375.305,1397.894,1377.5,1392.3,1379.736Z" transform="translate(-1083.594 -1029.804)" fill="#1f384e"/>
      <path id="Caminho_15528" data-name="Caminho 15528" d="M1259.763,1485l1.175,4.19-6.746.088a.457.457,0,0,1-.239-.838Z" transform="translate(-974.066 -1121.986)" fill="#1f384e"/>
      <path id="Caminho_15529" data-name="Caminho 15529" d="M1708.484,1335.67s-.92,13.79-38.511,22.714c0,0-1.36-2.382,18.089-9.448Z" transform="translate(-1303.082 -1003.939)" fill="#d6f3f3"/>
      <path id="Caminho_15530" data-name="Caminho 15530" d="M1377.527,1539.215c-4.774,0-10.985-3.71-19.5-11.63-4.33-4.028-6.63-5.671-7.7-5.468-.57.1-.953.838-1.579,2.095a13.49,13.49,0,0,1-7.232,7.29c-6.745,2.9-21.114,7.162-27.212,2.531-2.137-1.624-2.991-4.141-2.539-7.485.446-3.3.775-6.308-.071-6.948-.955-.721-4.28.714-9.318,2.891-3.6,1.556-8.534,3.689-14.863,6.046-9.726,3.618-16.218,3.98-19.3,1.081-2.918-2.753-1.573-7.282-1.515-7.474l1.175.358c-.013.042-1.179,4,1.186,6.228,1.864,1.751,6.494,2.933,18.016-1.343,6.3-2.344,11.216-4.468,14.806-6.023,6.194-2.677,9.021-3.9,10.546-2.742,1.28.97,1.209,3.18.545,8.092-.39,2.872.306,5.007,2.066,6.343,5.237,3.98,18.412.574,25.987-2.679a12.3,12.3,0,0,0,6.615-6.7c.7-1.42,1.257-2.545,2.457-2.767,1.6-.276,3.8,1.169,8.761,5.778,8.478,7.889,14.492,11.494,18.981,11.3a8.014,8.014,0,0,0,5.715-2.933l.905.838a9.182,9.182,0,0,1-6.57,3.329Z" transform="translate(-984.022 -1148.219)" fill="#1f384e"/>
    </g>
  </g>
</svg>
