<svg xmlns="http://www.w3.org/2000/svg" xmlns:xlink="http://www.w3.org/1999/xlink" width="53.651" height="24.413" viewBox="0 0 53.651 24.413">
  <defs>
    <linearGradient id="linear-gradient" x1="-0.001" y1="0.5" x2="0.999" y2="0.5" gradientUnits="objectBoundingBox">
      <stop offset="0.04" stop-color="#7bc5f8"/>
      <stop offset="0.34" stop-color="#7ec7f9"/>
      <stop offset="0.6" stop-color="#89cdfa"/>
      <stop offset="0.84" stop-color="#9ad7fd"/>
      <stop offset="0.99" stop-color="#a9e0ff"/>
    </linearGradient>
    <linearGradient id="linear-gradient-2" x1="0" y1="0.5" x2="1" y2="0.5" xlink:href="#linear-gradient"/>
  </defs>
  <g id="Grupo_3212" data-name="Grupo 3212" transform="translate(0 0)">
    <g id="Componente_183_2" data-name="Componente 183 – 2" transform="translate(0)">
      <g id="Componente_184_1" data-name="Componente 184 – 1">
        <path id="Caminho_11200" data-name="Caminho 11200" d="M179.15,534.879a15.322,15.322,0,0,0,0-24.369h-2.59a15.321,15.321,0,0,1,0,24.369h0l1.956.044h-1.1Z" transform="translate(-131.531 -510.51)" fill="url(#linear-gradient)"/>
        <path id="Caminho_11201" data-name="Caminho 11201" d="M55.73,513a12.2,12.2,0,0,0-7.388-2.494H24.6A12.2,12.2,0,0,0,17.219,513h0a12.183,12.183,0,0,0,0,19.379h0a12.186,12.186,0,0,0,7.385,2.5H48.342a12.185,12.185,0,0,0,7.386-2.5h0a12.186,12.186,0,0,0,0-19.379Z" transform="translate(-12.421 -510.51)" fill="url(#linear-gradient-2)"/>
      </g>
    </g>
    <path id="Caminho_11203" data-name="Caminho 11203" d="M81.655,527.224a2.674,2.674,0,0,1-.779.1l.014-.082a6.472,6.472,0,0,0,1.569-1.791c.058-.2,0-.274-.014-.274l-1.309.549-1.1.5h0a4.367,4.367,0,0,0-3.185-1.314,3.9,3.9,0,0,0-4.129,3.607,5.336,5.336,0,0,0,.17,1.372h0a12.921,12.921,0,0,1-5.026-1.492c-3.3-1.682-3.5-2.839-3.5-2.839a4.54,4.54,0,0,0-.274,3.808,4.753,4.753,0,0,0,1.5,1.739h0a3.53,3.53,0,0,1-1.059-.176,2.329,2.329,0,0,1-.746-.365c-.324.787.324,2.195,1.443,3.2a5.873,5.873,0,0,0,1.841.957l-1.86.052c-.1,1.808,3.791,2.883,3.791,2.883h0a6.367,6.367,0,0,1-3.887,1.413A7.379,7.379,0,0,1,63,538.754a10.085,10.085,0,0,0,6.913,2.469C76.87,540.856,80.8,534.875,80.983,529h0a4.829,4.829,0,0,0,1.023-.861,7.2,7.2,0,0,0,1.13-1.512A15.387,15.387,0,0,1,81.655,527.224Z" transform="translate(-49.125 -520.958)" fill="#fff"/>
  </g>
</svg>
