<?xml version="1.0" standalone="no"?>
<svg xmlns="http://www.w3.org/2000/svg" viewBox="0 0 1440 320">
<path fill="#206666" fill-opacity="1" d="M0,160L48,181.3C96,203,192,245,288,250.7C384,256,480,224,576,202.7C672,181,768,171,864,170.7C960,171,1056,181,1152,186.7C1248,192,1344,192,1392,192L1440,192L1440,320L1392,320C1344,320,1248,320,1152,320C1056,320,960,320,864,320C768,320,672,320,576,320C480,320,384,320,288,320C192,320,96,320,48,320L0,320Z"></path>

<path fill="#f9c001" fill-opacity="1" d="M0,192L30,165.3C60,139,120,85,180,96C240,107,300,181,360,192C420,203,480,149,540,149.3C600,149,660,203,720,213.3C780,224,840,192,900,197.3C960,203,1020,245,1080,224C1140,203,1200,117,1260,101.3C1320,85,1380,139,1410,165.3L1440,192L1440,320L1410,320C1380,320,1320,320,1260,320C1200,320,1140,320,1080,320C1020,320,960,320,900,320C840,320,780,320,720,320C660,320,600,320,540,320C480,320,420,320,360,320C300,320,240,320,180,320C120,320,60,320,30,320L0,320Z"></path>

</svg>