<?xml version="1.0" encoding="UTF-8" standalone="no"?>
<svg
class="waves-cont">
  <path
     d="m 1.272792,47.201995 v 0 C 41.45513,24.720375 91.998568,8.9327748 162.1809,0.84089476 222.77944,-6.1459952 300,32.383615 360,43.383615 c 60,11 125.09117,-41.7272102 185.09117,-41.4272102 60,-0.3 122.54558,32.0625302 182.54558,42.3625302 57.45442,10.7 112.36325,-0.93532 172.36325,4.36468 60,5.7 120,47.7 180,26.7 60,-21 80.5434,-43.36039 140.5434,-59.06039 60,-16.30000024 113.6361,16.062528 171.6376,24.543438 L 1440,43.383615 V 171.38361 H 1410 1260 1080 900 720 540 360 180 30 0 Z"
     class="temp0"
     inkscape:connector-curvature="0"
     style="fill:#f9c001;fill-opacity:1"
     sodipodi:nodetypes="ccsscccsccccccccccccccc" />
  <path
     d="m 0,11.383615 48,21.3 c 47.999998,21.7 144,63.7 240,69.399995 96,5.3 170.36253,1.30143 266.36253,-19.998565 96,-21.7 213.63747,-59.70143 309.63747,-60.00143 96,0.3 189.4544,73.93961 285.4544,79.639605 C 1248,93.022515 1344,43.383615 1392,43.383615 h 48 V 171.38361 H 1392 1152 864 576 288 48 0 Z"
     class="temp1"
     inkscape:connector-curvature="0"
     style="fill:#206666;fill-opacity:1"
     sodipodi:nodetypes="ccccccscccccccccc" />
  <path
     d="m -1.272792,97.573095 68.364675,8.391875 c 47.999997,6.2463 89.269937,16.06611 185.269937,32.36611 96,15.7 235.27493,-41.032915 331.27493,-36.03292 96,5 174.18091,47.00428 270.18091,57.30428 96,10.7 192.00004,-60.215965 288.00004,-44.21597 96,16 206.4693,40.07269 254.0007,22.73006 l 40.3632,-14.72721 3.8184,47.99429 H 1392 1152 864 576 288 48 0 Z"
     class="temp2"
     inkscape:connector-curvature="0"
     style="fill:#f9c001;fill-opacity:1"
     sodipodi:nodetypes="cccscsscccccccccc" />
</svg>
