<svg xmlns="http://www.w3.org/2000/svg" xmlns:xlink="http://www.w3.org/1999/xlink" width="52.328" height="23.811" viewBox="0 0 52.328 23.811">
  <defs>
    <linearGradient id="linear-gradient" x1="-0.001" y1="0.5" x2="0.999" y2="0.5" gradientUnits="objectBoundingBox">
      <stop offset="0" stop-color="#bc0f0f"/>
      <stop offset="0.67" stop-color="#ce0e0e"/>
      <stop offset="1" stop-color="#d80e0e"/>
    </linearGradient>
    <linearGradient id="linear-gradient-2" x1="0" y1="0.5" x2="1" y2="0.5" xlink:href="#linear-gradient"/>
    <linearGradient id="linear-gradient-3" y1="0.5" x2="1" y2="0.5" gradientUnits="objectBoundingBox">
      <stop offset="0" stop-color="#d80e0e"/>
      <stop offset="1" stop-color="#bc0f0f"/>
    </linearGradient>
  </defs>
  <path id="Caminho_11154" data-name="Caminho 11154" d="M987.086,202.278a14.944,14.944,0,0,0,0-23.768H984.56a14.944,14.944,0,0,1,0,23.768h0l1.908.043H985.4Z" transform="translate(-940.642 -178.51)" fill="url(#linear-gradient)"/>
  <path id="Caminho_11156" data-name="Caminho 11156" d="M862.662,180.942a11.9,11.9,0,0,0-7.206-2.432H832.3a11.9,11.9,0,0,0-7.2,2.432h0a11.883,11.883,0,0,0,0,18.9h0a11.885,11.885,0,0,0,7.2,2.435h23.153a11.884,11.884,0,0,0,7.2-2.434h0a11.885,11.885,0,0,0,0-18.9Z" transform="translate(-820.421 -178.51)" fill="url(#linear-gradient-2)"/>
  <rect id="Retângulo_2353" data-name="Retângulo 2353" width="19.005" height="14.216" rx="7.108" transform="translate(13.504 4.894)" fill="#f7f7f8"/>
  <path id="Caminho_11157" data-name="Caminho 11157" d="M900.15,213.04l4.787,2.764-4.787,2.764Z" transform="translate(-878.817 -203.801)" fill="url(#linear-gradient-3)"/>
</svg>
